<?xml version="1.0" encoding="utf-8" standalone="no"?>
<!DOCTYPE svg PUBLIC "-//W3C//DTD SVG 1.1//EN"
  "http://www.w3.org/Graphics/SVG/1.1/DTD/svg11.dtd">
<svg xmlns:xlink="http://www.w3.org/1999/xlink" width="648pt" height="360pt" viewBox="0 0 648 360" xmlns="http://www.w3.org/2000/svg" version="1.1">
 <metadata>
  <rdf:RDF xmlns:dc="http://purl.org/dc/elements/1.1/" xmlns:cc="http://creativecommons.org/ns#" xmlns:rdf="http://www.w3.org/1999/02/22-rdf-syntax-ns#">
   <cc:Work>
    <dc:type rdf:resource="http://purl.org/dc/dcmitype/StillImage"/>
    <dc:date>2024-12-06T19:10:33.345478</dc:date>
    <dc:format>image/svg+xml</dc:format>
    <dc:creator>
     <cc:Agent>
      <dc:title>Matplotlib v3.9.2, https://matplotlib.org/</dc:title>
     </cc:Agent>
    </dc:creator>
   </cc:Work>
  </rdf:RDF>
 </metadata>
 <defs>
  <style type="text/css">*{stroke-linejoin: round; stroke-linecap: butt}</style>
 </defs>
 <g id="figure_1">
  <g id="patch_1">
   <path d="M 0 360 
L 648 360 
L 648 0 
L 0 0 
z
" style="fill: #ffffff"/>
  </g>
  <g id="axes_1">
   <g id="patch_2">
    <path d="M 81 320.4 
L 583.2 320.4 
L 583.2 43.2 
L 81 43.2 
z
" style="fill: #ffffff"/>
   </g>
   <g id="matplotlib.axis_1">
    <g id="xtick_1">
     <g id="line2d_1">
      <defs>
       <path id="m96bb5e3d7b" d="M 0 0 
L 0 3.5 
" style="stroke: #000000; stroke-width: 0.8"/>
      </defs>
      <g>
       <use xlink:href="#m96bb5e3d7b" x="81" y="320.4" style="stroke: #000000; stroke-width: 0.8"/>
      </g>
     </g>
     <g id="text_1">
      <!-- 16.0 -->
      <g transform="translate(69.867188 334.998438) scale(0.1 -0.1)">
       <defs>
        <path id="DejaVuSans-31" d="M 794 531 
L 1825 531 
L 1825 4091 
L 703 3866 
L 703 4441 
L 1819 4666 
L 2450 4666 
L 2450 531 
L 3481 531 
L 3481 0 
L 794 0 
L 794 531 
z
" transform="scale(0.015625)"/>
        <path id="DejaVuSans-36" d="M 2113 2584 
Q 1688 2584 1439 2293 
Q 1191 2003 1191 1497 
Q 1191 994 1439 701 
Q 1688 409 2113 409 
Q 2538 409 2786 701 
Q 3034 994 3034 1497 
Q 3034 2003 2786 2293 
Q 2538 2584 2113 2584 
z
M 3366 4563 
L 3366 3988 
Q 3128 4100 2886 4159 
Q 2644 4219 2406 4219 
Q 1781 4219 1451 3797 
Q 1122 3375 1075 2522 
Q 1259 2794 1537 2939 
Q 1816 3084 2150 3084 
Q 2853 3084 3261 2657 
Q 3669 2231 3669 1497 
Q 3669 778 3244 343 
Q 2819 -91 2113 -91 
Q 1303 -91 875 529 
Q 447 1150 447 2328 
Q 447 3434 972 4092 
Q 1497 4750 2381 4750 
Q 2619 4750 2861 4703 
Q 3103 4656 3366 4563 
z
" transform="scale(0.015625)"/>
        <path id="DejaVuSans-2e" d="M 684 794 
L 1344 794 
L 1344 0 
L 684 0 
L 684 794 
z
" transform="scale(0.015625)"/>
        <path id="DejaVuSans-30" d="M 2034 4250 
Q 1547 4250 1301 3770 
Q 1056 3291 1056 2328 
Q 1056 1369 1301 889 
Q 1547 409 2034 409 
Q 2525 409 2770 889 
Q 3016 1369 3016 2328 
Q 3016 3291 2770 3770 
Q 2525 4250 2034 4250 
z
M 2034 4750 
Q 2819 4750 3233 4129 
Q 3647 3509 3647 2328 
Q 3647 1150 3233 529 
Q 2819 -91 2034 -91 
Q 1250 -91 836 529 
Q 422 1150 422 2328 
Q 422 3509 836 4129 
Q 1250 4750 2034 4750 
z
" transform="scale(0.015625)"/>
       </defs>
       <use xlink:href="#DejaVuSans-31"/>
       <use xlink:href="#DejaVuSans-36" x="63.623047"/>
       <use xlink:href="#DejaVuSans-2e" x="127.246094"/>
       <use xlink:href="#DejaVuSans-30" x="159.033203"/>
      </g>
     </g>
    </g>
    <g id="xtick_2">
     <g id="line2d_2">
      <g>
       <use xlink:href="#m96bb5e3d7b" x="164.7" y="320.4" style="stroke: #000000; stroke-width: 0.8"/>
      </g>
     </g>
     <g id="text_2">
      <!-- 16.5 -->
      <g transform="translate(153.567187 334.998438) scale(0.1 -0.1)">
       <defs>
        <path id="DejaVuSans-35" d="M 691 4666 
L 3169 4666 
L 3169 4134 
L 1269 4134 
L 1269 2991 
Q 1406 3038 1543 3061 
Q 1681 3084 1819 3084 
Q 2600 3084 3056 2656 
Q 3513 2228 3513 1497 
Q 3513 744 3044 326 
Q 2575 -91 1722 -91 
Q 1428 -91 1123 -41 
Q 819 9 494 109 
L 494 744 
Q 775 591 1075 516 
Q 1375 441 1709 441 
Q 2250 441 2565 725 
Q 2881 1009 2881 1497 
Q 2881 1984 2565 2268 
Q 2250 2553 1709 2553 
Q 1456 2553 1204 2497 
Q 953 2441 691 2322 
L 691 4666 
z
" transform="scale(0.015625)"/>
       </defs>
       <use xlink:href="#DejaVuSans-31"/>
       <use xlink:href="#DejaVuSans-36" x="63.623047"/>
       <use xlink:href="#DejaVuSans-2e" x="127.246094"/>
       <use xlink:href="#DejaVuSans-35" x="159.033203"/>
      </g>
     </g>
    </g>
    <g id="xtick_3">
     <g id="line2d_3">
      <g>
       <use xlink:href="#m96bb5e3d7b" x="248.4" y="320.4" style="stroke: #000000; stroke-width: 0.8"/>
      </g>
     </g>
     <g id="text_3">
      <!-- 17.0 -->
      <g transform="translate(237.267188 334.998438) scale(0.1 -0.1)">
       <defs>
        <path id="DejaVuSans-37" d="M 525 4666 
L 3525 4666 
L 3525 4397 
L 1831 0 
L 1172 0 
L 2766 4134 
L 525 4134 
L 525 4666 
z
" transform="scale(0.015625)"/>
       </defs>
       <use xlink:href="#DejaVuSans-31"/>
       <use xlink:href="#DejaVuSans-37" x="63.623047"/>
       <use xlink:href="#DejaVuSans-2e" x="127.246094"/>
       <use xlink:href="#DejaVuSans-30" x="159.033203"/>
      </g>
     </g>
    </g>
    <g id="xtick_4">
     <g id="line2d_4">
      <g>
       <use xlink:href="#m96bb5e3d7b" x="332.1" y="320.4" style="stroke: #000000; stroke-width: 0.8"/>
      </g>
     </g>
     <g id="text_4">
      <!-- 17.5 -->
      <g transform="translate(320.967187 334.998438) scale(0.1 -0.1)">
       <use xlink:href="#DejaVuSans-31"/>
       <use xlink:href="#DejaVuSans-37" x="63.623047"/>
       <use xlink:href="#DejaVuSans-2e" x="127.246094"/>
       <use xlink:href="#DejaVuSans-35" x="159.033203"/>
      </g>
     </g>
    </g>
    <g id="xtick_5">
     <g id="line2d_5">
      <g>
       <use xlink:href="#m96bb5e3d7b" x="415.8" y="320.4" style="stroke: #000000; stroke-width: 0.8"/>
      </g>
     </g>
     <g id="text_5">
      <!-- 18.0 -->
      <g transform="translate(404.667188 334.998438) scale(0.1 -0.1)">
       <defs>
        <path id="DejaVuSans-38" d="M 2034 2216 
Q 1584 2216 1326 1975 
Q 1069 1734 1069 1313 
Q 1069 891 1326 650 
Q 1584 409 2034 409 
Q 2484 409 2743 651 
Q 3003 894 3003 1313 
Q 3003 1734 2745 1975 
Q 2488 2216 2034 2216 
z
M 1403 2484 
Q 997 2584 770 2862 
Q 544 3141 544 3541 
Q 544 4100 942 4425 
Q 1341 4750 2034 4750 
Q 2731 4750 3128 4425 
Q 3525 4100 3525 3541 
Q 3525 3141 3298 2862 
Q 3072 2584 2669 2484 
Q 3125 2378 3379 2068 
Q 3634 1759 3634 1313 
Q 3634 634 3220 271 
Q 2806 -91 2034 -91 
Q 1263 -91 848 271 
Q 434 634 434 1313 
Q 434 1759 690 2068 
Q 947 2378 1403 2484 
z
M 1172 3481 
Q 1172 3119 1398 2916 
Q 1625 2713 2034 2713 
Q 2441 2713 2670 2916 
Q 2900 3119 2900 3481 
Q 2900 3844 2670 4047 
Q 2441 4250 2034 4250 
Q 1625 4250 1398 4047 
Q 1172 3844 1172 3481 
z
" transform="scale(0.015625)"/>
       </defs>
       <use xlink:href="#DejaVuSans-31"/>
       <use xlink:href="#DejaVuSans-38" x="63.623047"/>
       <use xlink:href="#DejaVuSans-2e" x="127.246094"/>
       <use xlink:href="#DejaVuSans-30" x="159.033203"/>
      </g>
     </g>
    </g>
    <g id="xtick_6">
     <g id="line2d_6">
      <g>
       <use xlink:href="#m96bb5e3d7b" x="499.5" y="320.4" style="stroke: #000000; stroke-width: 0.8"/>
      </g>
     </g>
     <g id="text_6">
      <!-- 18.5 -->
      <g transform="translate(488.367188 334.998438) scale(0.1 -0.1)">
       <use xlink:href="#DejaVuSans-31"/>
       <use xlink:href="#DejaVuSans-38" x="63.623047"/>
       <use xlink:href="#DejaVuSans-2e" x="127.246094"/>
       <use xlink:href="#DejaVuSans-35" x="159.033203"/>
      </g>
     </g>
    </g>
    <g id="xtick_7">
     <g id="line2d_7">
      <g>
       <use xlink:href="#m96bb5e3d7b" x="583.2" y="320.4" style="stroke: #000000; stroke-width: 0.8"/>
      </g>
     </g>
     <g id="text_7">
      <!-- 19.0 -->
      <g transform="translate(572.067187 334.998438) scale(0.1 -0.1)">
       <defs>
        <path id="DejaVuSans-39" d="M 703 97 
L 703 672 
Q 941 559 1184 500 
Q 1428 441 1663 441 
Q 2288 441 2617 861 
Q 2947 1281 2994 2138 
Q 2813 1869 2534 1725 
Q 2256 1581 1919 1581 
Q 1219 1581 811 2004 
Q 403 2428 403 3163 
Q 403 3881 828 4315 
Q 1253 4750 1959 4750 
Q 2769 4750 3195 4129 
Q 3622 3509 3622 2328 
Q 3622 1225 3098 567 
Q 2575 -91 1691 -91 
Q 1453 -91 1209 -44 
Q 966 3 703 97 
z
M 1959 2075 
Q 2384 2075 2632 2365 
Q 2881 2656 2881 3163 
Q 2881 3666 2632 3958 
Q 2384 4250 1959 4250 
Q 1534 4250 1286 3958 
Q 1038 3666 1038 3163 
Q 1038 2656 1286 2365 
Q 1534 2075 1959 2075 
z
" transform="scale(0.015625)"/>
       </defs>
       <use xlink:href="#DejaVuSans-31"/>
       <use xlink:href="#DejaVuSans-39" x="63.623047"/>
       <use xlink:href="#DejaVuSans-2e" x="127.246094"/>
       <use xlink:href="#DejaVuSans-30" x="159.033203"/>
      </g>
     </g>
    </g>
    <g id="text_8">
     <!-- Time [s] -->
     <g transform="translate(311.771094 348.676562) scale(0.1 -0.1)">
      <defs>
       <path id="DejaVuSans-54" d="M -19 4666 
L 3928 4666 
L 3928 4134 
L 2272 4134 
L 2272 0 
L 1638 0 
L 1638 4134 
L -19 4134 
L -19 4666 
z
" transform="scale(0.015625)"/>
       <path id="DejaVuSans-69" d="M 603 3500 
L 1178 3500 
L 1178 0 
L 603 0 
L 603 3500 
z
M 603 4863 
L 1178 4863 
L 1178 4134 
L 603 4134 
L 603 4863 
z
" transform="scale(0.015625)"/>
       <path id="DejaVuSans-6d" d="M 3328 2828 
Q 3544 3216 3844 3400 
Q 4144 3584 4550 3584 
Q 5097 3584 5394 3201 
Q 5691 2819 5691 2113 
L 5691 0 
L 5113 0 
L 5113 2094 
Q 5113 2597 4934 2840 
Q 4756 3084 4391 3084 
Q 3944 3084 3684 2787 
Q 3425 2491 3425 1978 
L 3425 0 
L 2847 0 
L 2847 2094 
Q 2847 2600 2669 2842 
Q 2491 3084 2119 3084 
Q 1678 3084 1418 2786 
Q 1159 2488 1159 1978 
L 1159 0 
L 581 0 
L 581 3500 
L 1159 3500 
L 1159 2956 
Q 1356 3278 1631 3431 
Q 1906 3584 2284 3584 
Q 2666 3584 2933 3390 
Q 3200 3197 3328 2828 
z
" transform="scale(0.015625)"/>
       <path id="DejaVuSans-65" d="M 3597 1894 
L 3597 1613 
L 953 1613 
Q 991 1019 1311 708 
Q 1631 397 2203 397 
Q 2534 397 2845 478 
Q 3156 559 3463 722 
L 3463 178 
Q 3153 47 2828 -22 
Q 2503 -91 2169 -91 
Q 1331 -91 842 396 
Q 353 884 353 1716 
Q 353 2575 817 3079 
Q 1281 3584 2069 3584 
Q 2775 3584 3186 3129 
Q 3597 2675 3597 1894 
z
M 3022 2063 
Q 3016 2534 2758 2815 
Q 2500 3097 2075 3097 
Q 1594 3097 1305 2825 
Q 1016 2553 972 2059 
L 3022 2063 
z
" transform="scale(0.015625)"/>
       <path id="DejaVuSans-20" transform="scale(0.015625)"/>
       <path id="DejaVuSans-5b" d="M 550 4863 
L 1875 4863 
L 1875 4416 
L 1125 4416 
L 1125 -397 
L 1875 -397 
L 1875 -844 
L 550 -844 
L 550 4863 
z
" transform="scale(0.015625)"/>
       <path id="DejaVuSans-73" d="M 2834 3397 
L 2834 2853 
Q 2591 2978 2328 3040 
Q 2066 3103 1784 3103 
Q 1356 3103 1142 2972 
Q 928 2841 928 2578 
Q 928 2378 1081 2264 
Q 1234 2150 1697 2047 
L 1894 2003 
Q 2506 1872 2764 1633 
Q 3022 1394 3022 966 
Q 3022 478 2636 193 
Q 2250 -91 1575 -91 
Q 1294 -91 989 -36 
Q 684 19 347 128 
L 347 722 
Q 666 556 975 473 
Q 1284 391 1588 391 
Q 1994 391 2212 530 
Q 2431 669 2431 922 
Q 2431 1156 2273 1281 
Q 2116 1406 1581 1522 
L 1381 1569 
Q 847 1681 609 1914 
Q 372 2147 372 2553 
Q 372 3047 722 3315 
Q 1072 3584 1716 3584 
Q 2034 3584 2315 3537 
Q 2597 3491 2834 3397 
z
" transform="scale(0.015625)"/>
       <path id="DejaVuSans-5d" d="M 1947 4863 
L 1947 -844 
L 622 -844 
L 622 -397 
L 1369 -397 
L 1369 4416 
L 622 4416 
L 622 4863 
L 1947 4863 
z
" transform="scale(0.015625)"/>
      </defs>
      <use xlink:href="#DejaVuSans-54"/>
      <use xlink:href="#DejaVuSans-69" x="57.958984"/>
      <use xlink:href="#DejaVuSans-6d" x="85.742188"/>
      <use xlink:href="#DejaVuSans-65" x="183.154297"/>
      <use xlink:href="#DejaVuSans-20" x="244.677734"/>
      <use xlink:href="#DejaVuSans-5b" x="276.464844"/>
      <use xlink:href="#DejaVuSans-73" x="315.478516"/>
      <use xlink:href="#DejaVuSans-5d" x="367.578125"/>
     </g>
    </g>
   </g>
   <g id="matplotlib.axis_2">
    <g id="ytick_1">
     <g id="line2d_8">
      <defs>
       <path id="m34d829d9f5" d="M 0 0 
L -3.5 0 
" style="stroke: #000000; stroke-width: 0.8"/>
      </defs>
      <g>
       <use xlink:href="#m34d829d9f5" x="81" y="312.140378" style="stroke: #000000; stroke-width: 0.8"/>
      </g>
     </g>
     <g id="text_9">
      <!-- 12.5 -->
      <g transform="translate(51.734375 315.939597) scale(0.1 -0.1)">
       <defs>
        <path id="DejaVuSans-32" d="M 1228 531 
L 3431 531 
L 3431 0 
L 469 0 
L 469 531 
Q 828 903 1448 1529 
Q 2069 2156 2228 2338 
Q 2531 2678 2651 2914 
Q 2772 3150 2772 3378 
Q 2772 3750 2511 3984 
Q 2250 4219 1831 4219 
Q 1534 4219 1204 4116 
Q 875 4013 500 3803 
L 500 4441 
Q 881 4594 1212 4672 
Q 1544 4750 1819 4750 
Q 2544 4750 2975 4387 
Q 3406 4025 3406 3419 
Q 3406 3131 3298 2873 
Q 3191 2616 2906 2266 
Q 2828 2175 2409 1742 
Q 1991 1309 1228 531 
z
" transform="scale(0.015625)"/>
       </defs>
       <use xlink:href="#DejaVuSans-31"/>
       <use xlink:href="#DejaVuSans-32" x="63.623047"/>
       <use xlink:href="#DejaVuSans-2e" x="127.246094"/>
       <use xlink:href="#DejaVuSans-35" x="159.033203"/>
      </g>
     </g>
    </g>
    <g id="ytick_2">
     <g id="line2d_9">
      <g>
       <use xlink:href="#m34d829d9f5" x="81" y="274.467148" style="stroke: #000000; stroke-width: 0.8"/>
      </g>
     </g>
     <g id="text_10">
      <!-- 15.0 -->
      <g transform="translate(51.734375 278.266367) scale(0.1 -0.1)">
       <use xlink:href="#DejaVuSans-31"/>
       <use xlink:href="#DejaVuSans-35" x="63.623047"/>
       <use xlink:href="#DejaVuSans-2e" x="127.246094"/>
       <use xlink:href="#DejaVuSans-30" x="159.033203"/>
      </g>
     </g>
    </g>
    <g id="ytick_3">
     <g id="line2d_10">
      <g>
       <use xlink:href="#m34d829d9f5" x="81" y="236.793919" style="stroke: #000000; stroke-width: 0.8"/>
      </g>
     </g>
     <g id="text_11">
      <!-- 17.5 -->
      <g transform="translate(51.734375 240.593138) scale(0.1 -0.1)">
       <use xlink:href="#DejaVuSans-31"/>
       <use xlink:href="#DejaVuSans-37" x="63.623047"/>
       <use xlink:href="#DejaVuSans-2e" x="127.246094"/>
       <use xlink:href="#DejaVuSans-35" x="159.033203"/>
      </g>
     </g>
    </g>
    <g id="ytick_4">
     <g id="line2d_11">
      <g>
       <use xlink:href="#m34d829d9f5" x="81" y="199.120689" style="stroke: #000000; stroke-width: 0.8"/>
      </g>
     </g>
     <g id="text_12">
      <!-- 20.0 -->
      <g transform="translate(51.734375 202.919908) scale(0.1 -0.1)">
       <use xlink:href="#DejaVuSans-32"/>
       <use xlink:href="#DejaVuSans-30" x="63.623047"/>
       <use xlink:href="#DejaVuSans-2e" x="127.246094"/>
       <use xlink:href="#DejaVuSans-30" x="159.033203"/>
      </g>
     </g>
    </g>
    <g id="ytick_5">
     <g id="line2d_12">
      <g>
       <use xlink:href="#m34d829d9f5" x="81" y="161.44746" style="stroke: #000000; stroke-width: 0.8"/>
      </g>
     </g>
     <g id="text_13">
      <!-- 22.5 -->
      <g transform="translate(51.734375 165.246678) scale(0.1 -0.1)">
       <use xlink:href="#DejaVuSans-32"/>
       <use xlink:href="#DejaVuSans-32" x="63.623047"/>
       <use xlink:href="#DejaVuSans-2e" x="127.246094"/>
       <use xlink:href="#DejaVuSans-35" x="159.033203"/>
      </g>
     </g>
    </g>
    <g id="ytick_6">
     <g id="line2d_13">
      <g>
       <use xlink:href="#m34d829d9f5" x="81" y="123.77423" style="stroke: #000000; stroke-width: 0.8"/>
      </g>
     </g>
     <g id="text_14">
      <!-- 25.0 -->
      <g transform="translate(51.734375 127.573449) scale(0.1 -0.1)">
       <use xlink:href="#DejaVuSans-32"/>
       <use xlink:href="#DejaVuSans-35" x="63.623047"/>
       <use xlink:href="#DejaVuSans-2e" x="127.246094"/>
       <use xlink:href="#DejaVuSans-30" x="159.033203"/>
      </g>
     </g>
    </g>
    <g id="ytick_7">
     <g id="line2d_14">
      <g>
       <use xlink:href="#m34d829d9f5" x="81" y="86.101" style="stroke: #000000; stroke-width: 0.8"/>
      </g>
     </g>
     <g id="text_15">
      <!-- 27.5 -->
      <g transform="translate(51.734375 89.900219) scale(0.1 -0.1)">
       <use xlink:href="#DejaVuSans-32"/>
       <use xlink:href="#DejaVuSans-37" x="63.623047"/>
       <use xlink:href="#DejaVuSans-2e" x="127.246094"/>
       <use xlink:href="#DejaVuSans-35" x="159.033203"/>
      </g>
     </g>
    </g>
    <g id="ytick_8">
     <g id="line2d_15">
      <g>
       <use xlink:href="#m34d829d9f5" x="81" y="48.427771" style="stroke: #000000; stroke-width: 0.8"/>
      </g>
     </g>
     <g id="text_16">
      <!-- 30.0 -->
      <g transform="translate(51.734375 52.22699) scale(0.1 -0.1)">
       <defs>
        <path id="DejaVuSans-33" d="M 2597 2516 
Q 3050 2419 3304 2112 
Q 3559 1806 3559 1356 
Q 3559 666 3084 287 
Q 2609 -91 1734 -91 
Q 1441 -91 1130 -33 
Q 819 25 488 141 
L 488 750 
Q 750 597 1062 519 
Q 1375 441 1716 441 
Q 2309 441 2620 675 
Q 2931 909 2931 1356 
Q 2931 1769 2642 2001 
Q 2353 2234 1838 2234 
L 1294 2234 
L 1294 2753 
L 1863 2753 
Q 2328 2753 2575 2939 
Q 2822 3125 2822 3475 
Q 2822 3834 2567 4026 
Q 2313 4219 1838 4219 
Q 1578 4219 1281 4162 
Q 984 4106 628 3988 
L 628 4550 
Q 988 4650 1302 4700 
Q 1616 4750 1894 4750 
Q 2613 4750 3031 4423 
Q 3450 4097 3450 3541 
Q 3450 3153 3228 2886 
Q 3006 2619 2597 2516 
z
" transform="scale(0.015625)"/>
       </defs>
       <use xlink:href="#DejaVuSans-33"/>
       <use xlink:href="#DejaVuSans-30" x="63.623047"/>
       <use xlink:href="#DejaVuSans-2e" x="127.246094"/>
       <use xlink:href="#DejaVuSans-30" x="159.033203"/>
      </g>
     </g>
    </g>
    <g id="text_17">
     <!-- Power [mW] -->
     <g transform="translate(45.654687 212.21875) rotate(-90) scale(0.1 -0.1)">
      <defs>
       <path id="DejaVuSans-50" d="M 1259 4147 
L 1259 2394 
L 2053 2394 
Q 2494 2394 2734 2622 
Q 2975 2850 2975 3272 
Q 2975 3691 2734 3919 
Q 2494 4147 2053 4147 
L 1259 4147 
z
M 628 4666 
L 2053 4666 
Q 2838 4666 3239 4311 
Q 3641 3956 3641 3272 
Q 3641 2581 3239 2228 
Q 2838 1875 2053 1875 
L 1259 1875 
L 1259 0 
L 628 0 
L 628 4666 
z
" transform="scale(0.015625)"/>
       <path id="DejaVuSans-6f" d="M 1959 3097 
Q 1497 3097 1228 2736 
Q 959 2375 959 1747 
Q 959 1119 1226 758 
Q 1494 397 1959 397 
Q 2419 397 2687 759 
Q 2956 1122 2956 1747 
Q 2956 2369 2687 2733 
Q 2419 3097 1959 3097 
z
M 1959 3584 
Q 2709 3584 3137 3096 
Q 3566 2609 3566 1747 
Q 3566 888 3137 398 
Q 2709 -91 1959 -91 
Q 1206 -91 779 398 
Q 353 888 353 1747 
Q 353 2609 779 3096 
Q 1206 3584 1959 3584 
z
" transform="scale(0.015625)"/>
       <path id="DejaVuSans-77" d="M 269 3500 
L 844 3500 
L 1563 769 
L 2278 3500 
L 2956 3500 
L 3675 769 
L 4391 3500 
L 4966 3500 
L 4050 0 
L 3372 0 
L 2619 2869 
L 1863 0 
L 1184 0 
L 269 3500 
z
" transform="scale(0.015625)"/>
       <path id="DejaVuSans-72" d="M 2631 2963 
Q 2534 3019 2420 3045 
Q 2306 3072 2169 3072 
Q 1681 3072 1420 2755 
Q 1159 2438 1159 1844 
L 1159 0 
L 581 0 
L 581 3500 
L 1159 3500 
L 1159 2956 
Q 1341 3275 1631 3429 
Q 1922 3584 2338 3584 
Q 2397 3584 2469 3576 
Q 2541 3569 2628 3553 
L 2631 2963 
z
" transform="scale(0.015625)"/>
       <path id="DejaVuSans-57" d="M 213 4666 
L 850 4666 
L 1831 722 
L 2809 4666 
L 3519 4666 
L 4500 722 
L 5478 4666 
L 6119 4666 
L 4947 0 
L 4153 0 
L 3169 4050 
L 2175 0 
L 1381 0 
L 213 4666 
z
" transform="scale(0.015625)"/>
      </defs>
      <use xlink:href="#DejaVuSans-50"/>
      <use xlink:href="#DejaVuSans-6f" x="56.677734"/>
      <use xlink:href="#DejaVuSans-77" x="117.859375"/>
      <use xlink:href="#DejaVuSans-65" x="199.646484"/>
      <use xlink:href="#DejaVuSans-72" x="261.169922"/>
      <use xlink:href="#DejaVuSans-20" x="302.283203"/>
      <use xlink:href="#DejaVuSans-5b" x="334.070312"/>
      <use xlink:href="#DejaVuSans-6d" x="373.083984"/>
      <use xlink:href="#DejaVuSans-57" x="470.496094"/>
      <use xlink:href="#DejaVuSans-5d" x="569.373047"/>
     </g>
    </g>
   </g>
   <g id="line2d_16">
    <path d="M 80.98326 83.800221 
L 81.13392 83.800221 
L 81.15066 85.447234 
L 81.1674 82.153208 
L 81.21762 82.153208 
L 81.26784 82.153208 
L 81.35154 87.094248 
L 81.40176 85.447234 
L 82.23876 85.447234 
L 82.2555 83.800221 
L 82.27224 87.094248 
L 82.3392 85.447234 
L 82.45638 85.447234 
L 82.47312 87.094248 
L 82.48986 83.800221 
L 82.54008 83.800221 
L 82.62378 83.800221 
L 82.74096 85.447234 
L 83.5947 85.447234 
L 83.64492 83.800221 
L 83.66166 87.094248 
L 83.69514 85.447234 
L 83.81232 85.447234 
L 83.9295 83.800221 
L 83.99646 83.800221 
L 84.0132 87.094248 
L 84.11364 85.447234 
L 84.5154 85.447234 
L 84.53214 87.094248 
L 84.54888 83.800221 
L 84.5991 83.800221 
L 84.64932 83.800221 
L 84.7665 85.447234 
L 84.81672 85.447234 
L 84.9339 83.800221 
L 85.36914 83.800221 
L 85.38588 87.094248 
L 85.48632 85.447234 
L 85.50306 85.447234 
L 85.62024 83.800221 
L 85.63698 83.800221 
L 85.75416 85.447234 
L 85.83786 85.447234 
L 85.95504 83.800221 
L 86.07222 83.800221 
L 86.13918 85.447234 
L 86.17266 83.800221 
L 86.59116 83.800221 
L 86.6079 82.153208 
L 86.62464 85.447234 
L 86.6916 83.800221 
L 86.70834 87.094248 
L 86.80878 85.447234 
L 86.9427 85.447234 
L 86.99292 87.094248 
L 86.97618 83.800221 
L 87.04314 85.447234 
L 87.22728 85.447234 
L 87.34446 83.800221 
L 87.3612 87.094248 
L 87.46164 85.447234 
L 87.47838 85.447234 
L 87.49512 87.094248 
L 87.51186 83.800221 
L 87.56208 83.800221 
L 88.0308 83.800221 
L 88.04754 87.094248 
L 88.14798 85.447234 
L 88.21494 85.447234 
L 88.23168 87.094248 
L 88.24842 83.800221 
L 88.29864 83.800221 
L 88.31538 83.800221 
L 88.43256 85.447234 
L 88.54974 85.447234 
L 88.56648 87.094248 
L 88.58322 83.800221 
L 88.63344 83.800221 
L 88.68366 83.800221 
L 88.7004 87.094248 
L 88.80084 85.447234 
L 88.85106 85.447234 
L 88.8678 87.094248 
L 88.88454 83.800221 
L 88.93476 83.800221 
L 89.38674 83.800221 
L 89.40348 87.094248 
L 89.50392 85.447234 
L 89.55414 85.447234 
L 89.57088 87.094248 
L 89.58762 83.800221 
L 89.63784 83.800221 
L 89.67132 83.800221 
L 89.68806 87.094248 
L 89.7885 85.447234 
L 89.85546 85.447234 
L 89.97264 83.800221 
L 90.05634 83.800221 
L 90.17352 87.094248 
L 90.2907 83.800221 
L 90.6255 83.800221 
L 90.64224 82.153208 
L 90.72594 83.800221 
L 90.75942 83.800221 
L 90.84312 87.094248 
L 90.85986 83.800221 
L 91.06074 83.800221 
L 91.14444 85.447234 
L 91.16118 83.800221 
L 91.86426 83.800221 
L 91.881 85.447234 
L 91.89774 82.153208 
L 91.94796 82.153208 
L 92.01492 82.153208 
L 92.1321 85.447234 
L 92.4669 85.447234 
L 92.51712 87.094248 
L 92.56734 85.447234 
L 92.95236 85.447234 
L 92.9691 83.800221 
L 92.98584 87.094248 
L 93.0528 85.447234 
L 93.2202 85.447234 
L 93.33738 83.800221 
L 93.37086 83.800221 
L 93.48804 85.447234 
L 94.27482 85.447234 
L 94.3083 83.800221 
L 94.37526 87.094248 
L 94.392 83.800221 
L 94.49244 85.447234 
L 94.52592 85.447234 
L 94.54266 87.094248 
L 94.5594 83.800221 
L 94.60962 83.800221 
L 94.7268 83.800221 
L 94.74354 87.094248 
L 94.84398 85.447234 
L 94.9779 85.447234 
L 95.04486 87.094248 
L 95.01138 83.800221 
L 95.07834 85.447234 
L 95.24574 85.447234 
L 95.26248 87.094248 
L 95.27922 83.800221 
L 95.32944 83.800221 
L 95.41314 83.800221 
L 95.53032 85.447234 
L 95.5638 85.447234 
L 95.68098 83.800221 
L 96.09948 83.800221 
L 96.21666 85.447234 
L 96.26688 85.447234 
L 96.36732 83.800221 
L 96.46776 87.094248 
L 96.58494 83.800221 
L 97.28802 83.800221 
L 97.37172 82.153208 
L 97.4889 85.447234 
L 97.62282 85.447234 
L 97.63956 87.094248 
L 97.6563 83.800221 
L 97.72326 85.447234 
L 97.89066 85.447234 
L 97.9074 87.094248 
L 97.92414 83.800221 
L 97.97436 83.800221 
L 98.09154 83.800221 
L 98.10828 87.094248 
L 98.20872 85.447234 
L 98.22546 85.447234 
L 98.2422 87.094248 
L 98.25894 83.800221 
L 98.30916 83.800221 
L 98.77788 83.800221 
L 98.79462 87.094248 
L 98.89506 85.447234 
L 98.9118 87.094248 
L 98.92854 83.800221 
L 98.97876 83.800221 
L 99.09594 83.800221 
L 99.11268 87.094248 
L 99.21312 85.447234 
L 99.2466 85.447234 
L 99.26334 87.094248 
L 99.28008 83.800221 
L 99.3303 83.800221 
L 99.4977 83.800221 
L 99.54792 85.447234 
L 99.59814 83.800221 
L 100.1673 83.800221 
L 100.23426 85.447234 
L 100.26774 83.800221 
L 100.5021 83.800221 
L 100.53558 87.094248 
L 100.56906 83.800221 
L 100.73646 72.270133 
L 100.76994 70.62312 
L 100.82016 73.917147 
L 100.93734 70.62312 
L 102.52764 70.62312 
L 102.54438 72.270133 
L 102.56112 68.976107 
L 102.61134 68.976107 
L 102.74526 68.976107 
L 102.86244 72.270133 
L 103.64922 72.270133 
L 103.7664 70.62312 
L 104.13468 70.62312 
L 104.25186 72.270133 
L 104.3523 72.270133 
L 104.36904 73.917147 
L 104.38578 70.62312 
L 104.436 70.62312 
L 105.47388 70.62312 
L 105.49062 73.917147 
L 105.59106 72.270133 
L 105.64128 72.270133 
L 105.75846 70.62312 
L 107.8677 70.62312 
L 107.98488 68.976107 
L 108.10206 68.976107 
L 108.21924 70.62312 
L 108.25272 70.62312 
L 108.2862 72.270133 
L 108.35316 70.62312 
L 110.61306 70.62312 
L 110.73024 68.976107 
L 110.7972 68.976107 
L 110.91438 70.62312 
L 111.83508 70.62312 
L 111.95226 68.976107 
L 112.15314 68.976107 
L 112.16988 72.270133 
L 112.27032 70.62312 
L 112.58838 70.62312 
L 112.60512 72.270133 
L 112.62186 68.976107 
L 112.67208 68.976107 
L 112.7223 68.976107 
L 112.77252 70.62312 
L 112.82274 68.976107 
L 112.83948 68.976107 
L 112.85622 72.270133 
L 112.95666 70.62312 
L 112.9734 70.62312 
L 112.99014 72.270133 
L 113.00688 68.976107 
L 113.0571 68.976107 
L 113.49234 68.976107 
L 113.57604 73.917147 
L 113.60952 72.270133 
L 114.36282 72.270133 
L 114.37956 73.917147 
L 114.3963 70.62312 
L 114.46326 72.270133 
L 114.48 72.270133 
L 114.59718 70.62312 
L 114.8985 70.62312 
L 114.91524 73.917147 
L 115.01568 72.270133 
L 115.04916 72.270133 
L 115.0659 73.917147 
L 115.08264 70.62312 
L 115.13286 70.62312 
L 116.20422 70.62312 
L 116.3214 72.270133 
L 116.38836 72.270133 
L 116.50554 70.62312 
L 118.63152 70.62312 
L 118.7487 68.976107 
L 118.84914 68.976107 
L 118.86588 72.270133 
L 118.96632 70.62312 
L 119.03328 72.270133 
L 119.06676 70.62312 
L 121.3434 70.62312 
L 121.46058 68.976107 
L 121.52754 68.976107 
L 121.64472 70.62312 
L 122.73282 70.62312 
L 122.81652 72.270133 
L 122.85 68.976107 
L 122.96718 70.62312 
L 123.9381 70.62312 
L 124.05528 68.976107 
L 124.20594 68.976107 
L 124.28964 73.917147 
L 124.33986 72.270133 
L 124.6914 72.270133 
L 124.70814 73.917147 
L 124.72488 70.62312 
L 124.7751 70.62312 
L 124.80858 70.62312 
L 124.90902 73.917147 
L 124.92576 72.270133 
L 125.09316 72.270133 
L 125.21034 70.62312 
L 125.6121 70.62312 
L 125.72928 72.270133 
L 125.76276 72.270133 
L 125.87994 70.62312 
L 127.01826 70.62312 
L 127.05174 73.917147 
L 127.1187 70.62312 
L 128.13984 70.62312 
L 128.15658 72.270133 
L 128.17332 68.976107 
L 128.24028 70.62312 
L 129.19446 70.62312 
L 129.22794 72.270133 
L 129.2949 68.976107 
L 129.32838 70.62312 
L 129.39534 68.976107 
L 129.57948 68.976107 
L 129.69666 70.62312 
L 130.8852 70.62312 
L 130.90194 72.270133 
L 130.91868 68.976107 
L 130.98564 70.62312 
L 131.83938 70.62312 
L 131.87286 68.976107 
L 131.95656 72.270133 
L 132.07374 68.976107 
L 132.29136 68.976107 
L 132.3081 72.270133 
L 132.40854 70.62312 
L 132.82704 70.62312 
L 132.84378 72.270133 
L 132.86052 68.976107 
L 132.92748 70.62312 
L 133.26228 70.62312 
L 133.37946 68.976107 
L 133.63056 68.976107 
L 133.74774 70.62312 
L 133.8984 70.62312 
L 133.91514 72.270133 
L 133.93188 68.976107 
L 133.9821 68.976107 
L 134.26668 68.976107 
L 134.50104 82.153208 
L 134.95302 82.153208 
L 135.01998 87.094248 
L 135.08694 85.447234 
L 135.50544 85.447234 
L 135.62262 83.800221 
L 135.7398 85.447234 
L 136.12482 85.447234 
L 136.242 83.800221 
L 136.30896 83.800221 
L 136.42614 85.447234 
L 136.77768 85.447234 
L 136.79442 87.094248 
L 136.81116 83.800221 
L 136.86138 83.800221 
L 136.97856 83.800221 
L 137.09574 85.447234 
L 137.1627 85.447234 
L 137.17944 87.094248 
L 137.19618 83.800221 
L 137.2464 83.800221 
L 137.68164 83.800221 
L 137.69838 87.094248 
L 137.79882 85.447234 
L 137.96622 85.447234 
L 138.04992 87.094248 
L 138.0834 83.800221 
L 138.35124 83.800221 
L 138.46842 85.447234 
L 138.5019 85.447234 
L 138.61908 83.800221 
L 138.88692 83.800221 
L 138.95388 85.447234 
L 138.9204 82.153208 
L 138.98736 83.800221 
L 139.03758 83.800221 
L 139.15476 85.447234 
L 139.18824 85.447234 
L 139.30542 83.800221 
L 139.60674 83.800221 
L 139.62348 82.153208 
L 139.64022 85.447234 
L 139.70718 83.800221 
L 140.15916 83.800221 
L 140.1759 85.447234 
L 140.19264 82.153208 
L 140.24286 82.153208 
L 140.30982 82.153208 
L 140.41026 87.094248 
L 140.44374 85.447234 
L 140.54418 85.447234 
L 140.56092 87.094248 
L 140.57766 83.800221 
L 140.62788 85.447234 
L 140.66136 87.094248 
L 140.74506 83.800221 
L 140.7618 83.800221 
L 140.79528 87.094248 
L 140.86224 83.800221 
L 141.04638 83.800221 
L 141.16356 87.094248 
L 141.28074 83.800221 
L 141.5988 83.800221 
L 141.66576 85.447234 
L 141.63228 82.153208 
L 141.69924 83.800221 
L 141.73272 83.800221 
L 141.8499 87.094248 
L 141.96708 83.800221 
L 142.25166 83.800221 
L 142.33536 85.447234 
L 142.28514 82.153208 
L 142.3521 83.800221 
L 142.87104 83.800221 
L 142.98822 82.153208 
L 143.00496 82.153208 
L 143.12214 87.094248 
L 143.25606 83.800221 
L 143.57412 83.800221 
L 143.59086 85.447234 
L 143.6076 82.153208 
L 143.65782 82.153208 
L 143.67456 82.153208 
L 143.6913 85.447234 
L 143.79174 83.800221 
L 144.21024 83.800221 
L 144.32742 82.153208 
L 144.34416 82.153208 
L 144.3609 85.447234 
L 144.46134 83.800221 
L 144.47808 83.800221 
L 144.49482 87.094248 
L 144.57852 83.800221 
L 144.87984 83.800221 
L 144.99702 82.153208 
L 145.01376 82.153208 
L 145.0305 85.447234 
L 145.13094 83.800221 
L 145.33182 83.800221 
L 145.3653 82.153208 
L 145.43226 85.447234 
L 145.54944 82.153208 
L 145.68336 82.153208 
L 145.81728 85.447234 
L 146.16882 85.447234 
L 146.18556 87.094248 
L 146.2023 83.800221 
L 146.25252 83.800221 
L 146.3697 83.800221 
L 146.48688 85.447234 
L 146.65428 85.447234 
L 146.77146 83.800221 
L 147.07278 83.800221 
L 147.08952 87.094248 
L 147.18996 85.447234 
L 147.3741 85.447234 
L 147.39084 87.094248 
L 147.40758 83.800221 
L 147.47454 85.447234 
L 147.59172 83.800221 
L 147.72564 83.800221 
L 147.84282 85.447234 
L 147.85956 85.447234 
L 147.8763 87.094248 
L 147.89304 83.800221 
L 147.94326 83.800221 
L 148.2948 83.800221 
L 148.3785 85.447234 
L 148.32828 82.153208 
L 148.39524 83.800221 
L 148.42872 83.800221 
L 148.5459 85.447234 
L 148.61286 85.447234 
L 148.6296 87.094248 
L 148.64634 83.800221 
L 148.69656 83.800221 
L 149.11506 83.800221 
L 149.2155 85.447234 
L 149.33268 83.800221 
L 149.58378 83.800221 
L 149.70096 82.153208 
L 149.81814 85.447234 
L 149.90184 85.447234 
L 150.01902 83.800221 
L 150.32034 83.800221 
L 150.37056 82.153208 
L 150.3873 85.447234 
L 150.42078 83.800221 
L 150.8895 83.800221 
L 151.00668 82.153208 
L 151.0569 82.153208 
L 151.17408 85.447234 
L 151.27452 85.447234 
L 151.308 87.094248 
L 151.3917 83.800221 
L 151.8102 83.800221 
L 151.8939 85.447234 
L 151.91064 83.800221 
L 152.26218 83.800221 
L 152.27892 85.447234 
L 152.29566 82.153208 
L 152.34588 82.153208 
L 152.3961 82.153208 
L 152.51328 85.447234 
L 152.58024 85.447234 
L 152.69742 83.800221 
L 152.96526 83.800221 
L 153.0657 82.153208 
L 153.08244 85.447234 
L 153.18288 83.800221 
L 153.55116 83.800221 
L 153.5679 85.447234 
L 153.58464 82.153208 
L 153.63486 82.153208 
L 153.7353 82.153208 
L 153.85248 83.800221 
L 154.28772 83.800221 
L 154.4049 82.153208 
L 154.42164 82.153208 
L 154.43838 85.447234 
L 154.53882 83.800221 
L 154.70622 83.800221 
L 154.75644 85.447234 
L 154.7397 82.153208 
L 154.78992 82.153208 
L 154.84014 82.153208 
L 154.89036 85.447234 
L 154.94058 82.153208 
L 155.10798 82.153208 
L 155.12472 85.447234 
L 155.22516 83.800221 
L 155.55996 83.800221 
L 155.5767 85.447234 
L 155.59344 82.153208 
L 155.64366 82.153208 
L 155.76084 82.153208 
L 155.87802 83.800221 
L 156.06216 83.800221 
L 156.0789 85.447234 
L 156.09564 82.153208 
L 156.14586 82.153208 
L 156.4137 82.153208 
L 156.54762 85.447234 
L 156.9159 85.447234 
L 156.93264 87.094248 
L 156.94938 83.800221 
L 156.9996 83.800221 
L 157.10004 83.800221 
L 157.11678 87.094248 
L 157.21722 85.447234 
L 157.4181 85.447234 
L 157.43484 83.800221 
L 157.45158 87.094248 
L 157.51854 85.447234 
L 157.53528 87.094248 
L 157.55202 83.800221 
L 157.60224 83.800221 
L 157.78638 83.800221 
L 157.80312 87.094248 
L 157.90356 85.447234 
L 158.12118 85.447234 
L 158.20488 83.800221 
L 158.15466 87.094248 
L 158.22162 85.447234 
L 158.2551 85.447234 
L 158.27184 87.094248 
L 158.28858 83.800221 
L 158.3388 83.800221 
L 158.47272 83.800221 
L 158.48946 87.094248 
L 158.5899 85.447234 
L 158.62338 85.447234 
L 158.64012 87.094248 
L 158.65686 83.800221 
L 158.70708 83.800221 
L 159.14232 83.800221 
L 159.2595 85.447234 
L 159.41016 85.447234 
L 159.44364 87.094248 
L 159.52734 83.800221 
L 159.57756 83.800221 
L 159.5943 87.094248 
L 159.678 83.800221 
L 159.82866 83.800221 
L 159.94584 87.094248 
L 160.06302 83.800221 
L 160.31412 83.800221 
L 160.33086 85.447234 
L 160.3476 82.153208 
L 160.39782 82.153208 
L 160.4313 82.153208 
L 160.44804 85.447234 
L 160.54848 83.800221 
L 160.63218 85.447234 
L 160.64892 83.800221 
L 161.0172 83.800221 
L 161.03394 85.447234 
L 161.05068 82.153208 
L 161.11764 83.800221 
L 161.61984 83.800221 
L 161.63658 85.447234 
L 161.65332 82.153208 
L 161.70354 82.153208 
L 161.78724 82.153208 
L 161.90442 85.447234 
L 161.98812 85.447234 
L 162.05508 87.094248 
L 162.0216 83.800221 
L 162.07182 85.447234 
L 162.13878 83.800221 
L 162.17226 85.447234 
L 162.189 85.447234 
L 162.30618 83.800221 
L 162.5238 83.800221 
L 162.62424 87.094248 
L 162.74142 83.800221 
L 163.17666 83.800221 
L 163.29384 85.447234 
L 163.31058 85.447234 
L 163.42776 83.800221 
L 163.76256 83.800221 
L 163.7793 82.153208 
L 163.79604 85.447234 
L 163.863 83.800221 
L 164.31498 83.800221 
L 164.33172 85.447234 
L 164.34846 82.153208 
L 164.39868 82.153208 
L 164.46564 82.153208 
L 164.56608 87.094248 
L 164.58282 85.447234 
L 164.63304 85.447234 
L 164.64978 87.094248 
L 164.66652 83.800221 
L 164.71674 83.800221 
L 165.0348 83.800221 
L 165.05154 85.447234 
L 165.06828 82.153208 
L 165.1185 82.153208 
L 165.13524 82.153208 
L 165.15198 85.447234 
L 165.25242 83.800221 
L 165.65418 83.800221 
L 165.77136 82.153208 
L 165.80484 82.153208 
L 165.92202 83.800221 
L 166.32378 83.800221 
L 166.34052 85.447234 
L 166.35726 82.153208 
L 166.40748 82.153208 
L 166.49118 82.153208 
L 166.50792 85.447234 
L 166.60836 83.800221 
L 166.74228 83.800221 
L 166.75902 85.447234 
L 166.77576 82.153208 
L 166.82598 83.800221 
L 166.89294 85.447234 
L 166.94316 82.153208 
L 167.16078 82.153208 
L 167.27796 85.447234 
L 167.66298 85.447234 
L 167.78016 83.800221 
L 167.86386 83.800221 
L 167.98104 85.447234 
L 168.2154 72.270133 
L 168.3828 72.270133 
L 168.43302 70.62312 
L 168.48324 73.917147 
L 168.60042 72.270133 
L 169.1361 72.270133 
L 169.15284 70.62312 
L 169.16958 73.917147 
L 169.23654 72.270133 
L 169.67178 72.270133 
L 169.78896 70.62312 
L 169.85592 70.62312 
L 169.87266 73.917147 
L 169.9731 72.270133 
L 170.29116 72.270133 
L 170.32464 73.917147 
L 170.40834 70.62312 
L 170.57574 70.62312 
L 170.59248 73.917147 
L 170.69292 72.270133 
L 170.8101 72.270133 
L 170.82684 73.917147 
L 170.84358 70.62312 
L 170.8938 70.62312 
L 170.91054 70.62312 
L 170.92728 73.917147 
L 171.01098 70.62312 
L 171.24534 70.62312 
L 171.26208 73.917147 
L 171.36252 72.270133 
L 171.54666 72.270133 
L 171.5634 73.917147 
L 171.58014 70.62312 
L 171.63036 70.62312 
L 172.60128 70.62312 
L 172.61802 73.917147 
L 172.71846 72.270133 
L 172.80216 72.270133 
L 172.8189 73.917147 
L 172.83564 70.62312 
L 172.88586 70.62312 
L 173.94048 70.62312 
L 173.9907 73.917147 
L 174.04092 70.62312 
L 174.05766 70.62312 
L 174.09114 72.270133 
L 174.1581 70.62312 
L 175.14576 70.62312 
L 175.1625 68.976107 
L 175.17924 72.270133 
L 175.2462 70.62312 
L 175.81536 70.62312 
L 175.88232 72.270133 
L 175.84884 68.976107 
L 175.9158 70.62312 
L 176.35104 70.62312 
L 176.36778 72.270133 
L 176.38452 68.976107 
L 176.43474 68.976107 
L 176.55192 68.976107 
L 176.6691 70.62312 
L 177.03738 70.62312 
L 177.15456 68.976107 
L 177.3387 68.976107 
L 177.4224 72.270133 
L 177.45588 70.62312 
L 177.55632 70.62312 
L 177.6735 68.976107 
L 177.89112 68.976107 
L 177.95808 73.917147 
L 178.0083 72.270133 
L 178.35984 72.270133 
L 178.37658 73.917147 
L 178.39332 70.62312 
L 178.44354 70.62312 
L 178.5942 70.62312 
L 178.71138 72.270133 
L 179.04618 72.270133 
L 179.06292 73.917147 
L 179.07966 70.62312 
L 179.12988 70.62312 
L 179.23032 70.62312 
L 179.3475 72.270133 
L 179.71578 72.270133 
L 179.73252 73.917147 
L 179.74926 70.62312 
L 179.79948 70.62312 
L 180.00036 70.62312 
L 180.0171 73.917147 
L 180.11754 72.270133 
L 180.15102 72.270133 
L 180.16776 73.917147 
L 180.1845 70.62312 
L 180.23472 72.270133 
L 180.3519 70.62312 
L 180.36864 70.62312 
L 180.38538 72.270133 
L 180.46908 70.62312 
L 180.603 70.62312 
L 180.72018 72.270133 
L 180.92106 72.270133 
L 180.9378 73.917147 
L 180.95454 70.62312 
L 181.00476 70.62312 
L 183.09726 70.62312 
L 183.114 72.270133 
L 183.13074 68.976107 
L 183.18096 68.976107 
L 183.23118 68.976107 
L 183.34836 70.62312 
L 183.4488 70.62312 
L 183.46554 73.917147 
L 183.54924 72.270133 
L 183.66642 70.62312 
L 184.73778 70.62312 
L 184.77126 73.917147 
L 184.83822 70.62312 
L 185.84262 70.62312 
L 185.92632 68.976107 
L 185.94306 70.62312 
L 186.47874 70.62312 
L 186.51222 72.270133 
L 186.59592 68.976107 
L 186.61266 68.976107 
L 186.72984 70.62312 
L 186.94746 70.62312 
L 186.98094 72.270133 
L 187.06464 68.976107 
L 187.299 68.976107 
L 187.31574 72.270133 
L 187.41618 70.62312 
L 187.66728 70.62312 
L 187.70076 72.270133 
L 187.78446 68.976107 
L 188.06904 68.976107 
L 188.08578 70.62312 
L 188.16948 68.976107 
L 188.18622 68.976107 
L 188.20296 70.62312 
L 188.28666 68.976107 
L 188.62146 68.976107 
L 188.75538 72.270133 
L 188.98974 72.270133 
L 189.0567 73.917147 
L 189.10692 70.62312 
L 189.4752 70.62312 
L 189.49194 73.917147 
L 189.59238 72.270133 
L 189.75978 72.270133 
L 189.87696 70.62312 
L 189.9774 70.62312 
L 189.99414 73.917147 
L 190.09458 72.270133 
L 190.44612 72.270133 
L 190.46286 73.917147 
L 190.4796 70.62312 
L 190.52982 70.62312 
L 190.69722 70.62312 
L 190.71396 73.917147 
L 190.8144 72.270133 
L 190.83114 73.917147 
L 190.84788 70.62312 
L 190.8981 70.62312 
L 191.4003 70.62312 
L 191.51748 73.917147 
L 191.6514 70.62312 
L 193.25844 70.62312 
L 193.27518 68.976107 
L 193.29192 72.270133 
L 193.35888 70.62312 
L 193.81086 70.62312 
L 193.8276 72.270133 
L 193.84434 68.976107 
L 193.89456 68.976107 
L 193.995 68.976107 
L 194.01174 72.270133 
L 194.11218 70.62312 
L 195.95358 70.62312 
L 196.0038 72.270133 
L 195.98706 68.976107 
L 196.05402 70.62312 
L 196.506 70.62312 
L 196.52274 72.270133 
L 196.53948 68.976107 
L 196.5897 68.976107 
L 196.69014 68.976107 
L 196.70688 72.270133 
L 196.80732 70.62312 
L 197.19234 70.62312 
L 197.30952 68.976107 
L 197.35974 68.976107 
L 197.47692 70.62312 
L 197.5941 70.62312 
L 197.6778 72.270133 
L 197.62758 68.976107 
L 197.69454 70.62312 
L 197.81172 68.976107 
L 198.06282 68.976107 
L 198.07956 72.270133 
L 198.18 70.62312 
L 198.31392 70.62312 
L 198.33066 72.270133 
L 198.3474 68.976107 
L 198.39762 70.62312 
L 198.5148 68.976107 
L 199.36854 68.976107 
L 199.46898 73.917147 
L 199.48572 72.270133 
L 199.83726 72.270133 
L 199.854 73.917147 
L 199.87074 70.62312 
L 199.92096 70.62312 
L 200.1051 70.62312 
L 200.12184 73.917147 
L 200.22228 72.270133 
L 200.4399 72.270133 
L 200.45664 73.917147 
L 200.47338 70.62312 
L 200.5236 72.270133 
L 200.64078 70.62312 
L 200.70774 70.62312 
L 200.82492 72.270133 
L 201.15972 72.270133 
L 201.1932 73.917147 
L 201.2769 70.62312 
L 201.67866 70.62312 
L 201.89628 82.153208 
L 202.0302 82.153208 
L 202.14738 83.800221 
L 202.58262 83.800221 
L 202.59936 85.447234 
L 202.6161 82.153208 
L 202.66632 82.153208 
L 202.71654 82.153208 
L 202.73328 85.447234 
L 202.83372 83.800221 
L 202.91742 83.800221 
L 203.0346 82.153208 
L 203.08482 82.153208 
L 203.10156 85.447234 
L 203.202 83.800221 
L 203.31918 82.153208 
L 203.38614 82.153208 
L 203.50332 83.800221 
L 203.88834 83.800221 
L 203.90508 85.447234 
L 203.92182 82.153208 
L 203.97204 82.153208 
L 204.08922 82.153208 
L 204.10596 85.447234 
L 204.2064 83.800221 
L 204.22314 83.800221 
L 204.34032 82.153208 
L 204.74208 82.153208 
L 204.75882 85.447234 
L 204.85926 83.800221 
L 205.27776 83.800221 
L 205.39494 82.153208 
L 205.41168 82.153208 
L 205.52886 83.800221 
L 205.57908 83.800221 
L 205.59582 85.447234 
L 205.61256 82.153208 
L 205.66278 82.153208 
L 205.7967 82.153208 
L 205.81344 83.800221 
L 205.89714 82.153208 
L 206.09802 82.153208 
L 206.2152 83.800221 
L 206.28216 83.800221 
L 206.39934 82.153208 
L 206.41608 82.153208 
L 206.43282 85.447234 
L 206.53326 83.800221 
L 206.56674 83.800221 
L 206.68392 82.153208 
L 207.45396 82.153208 
L 207.57114 83.800221 
L 207.58788 83.800221 
L 207.70506 82.153208 
L 208.86012 82.153208 
L 208.87686 85.447234 
L 208.96056 82.153208 
L 209.91474 82.153208 
L 209.93148 83.800221 
L 209.94822 80.506194 
L 209.99844 80.506194 
L 210.08214 80.506194 
L 210.1491 85.447234 
L 210.19932 83.800221 
L 210.68478 83.800221 
L 210.70152 85.447234 
L 210.71826 82.153208 
L 210.78522 83.800221 
L 210.96936 83.800221 
L 210.9861 85.447234 
L 211.00284 82.153208 
L 211.05306 82.153208 
L 211.10328 82.153208 
L 211.22046 83.800221 
L 211.27068 83.800221 
L 211.38786 82.153208 
L 211.45482 82.153208 
L 211.47156 85.447234 
L 211.572 83.800221 
L 211.95702 83.800221 
L 212.0742 82.153208 
L 212.1579 82.153208 
L 212.17464 85.447234 
L 212.27508 83.800221 
L 212.39226 82.153208 
L 212.4927 82.153208 
L 212.59314 85.447234 
L 212.71032 82.153208 
L 212.79402 82.153208 
L 212.81076 85.447234 
L 212.9112 83.800221 
L 213.02838 83.800221 
L 213.04512 85.447234 
L 213.06186 82.153208 
L 213.12882 83.800221 
L 213.27948 83.800221 
L 213.39666 82.153208 
L 213.48036 82.153208 
L 213.59754 85.447234 
L 213.71472 82.153208 
L 214.14996 82.153208 
L 214.26714 83.800221 
L 214.38432 83.800221 
L 214.46802 82.153208 
L 214.5852 85.447234 
L 214.70238 82.153208 
L 214.92 82.153208 
L 214.93674 83.800221 
L 215.02044 82.153208 
L 215.37198 82.153208 
L 215.4222 80.506194 
L 215.47242 82.153208 
L 215.5059 82.153208 
L 215.52264 85.447234 
L 215.62308 83.800221 
L 215.69004 83.800221 
L 215.70678 85.447234 
L 215.72352 82.153208 
L 215.77374 82.153208 
L 215.82396 82.153208 
L 215.9244 85.447234 
L 216.04158 82.153208 
L 216.24246 82.153208 
L 216.27594 85.447234 
L 216.3429 82.153208 
L 216.72792 82.153208 
L 216.77814 83.800221 
L 216.7614 80.506194 
L 216.82836 82.153208 
L 216.91206 82.153208 
L 216.96228 83.800221 
L 217.0125 82.153208 
L 217.71558 82.153208 
L 217.74906 80.506194 
L 217.81602 83.800221 
L 217.9332 82.153208 
L 218.0169 82.153208 
L 218.13408 80.506194 
L 218.15082 83.800221 
L 218.25126 82.153208 
L 218.65302 82.153208 
L 218.66976 83.800221 
L 218.6865 80.506194 
L 218.73672 80.506194 
L 218.80368 80.506194 
L 218.92086 82.153208 
L 219.00456 82.153208 
L 219.12174 80.506194 
L 219.1887 80.506194 
L 219.20544 83.800221 
L 219.30588 82.153208 
L 219.32262 82.153208 
L 219.4398 80.506194 
L 219.50676 80.506194 
L 219.5235 83.800221 
L 219.62394 82.153208 
L 219.99222 82.153208 
L 220.1094 80.506194 
L 220.20984 80.506194 
L 220.24332 83.800221 
L 220.32702 82.153208 
L 220.4442 80.506194 
L 220.81248 80.506194 
L 220.9464 87.094248 
L 220.96314 85.447234 
L 221.0301 85.447234 
L 221.14728 83.800221 
L 221.21424 83.800221 
L 221.23098 87.094248 
L 221.31468 85.447234 
L 221.43186 83.800221 
L 222.23538 83.800221 
L 222.33582 85.447234 
L 222.453 83.800221 
L 223.55784 83.800221 
L 223.69176 87.094248 
L 223.80894 83.800221 
L 223.9596 83.800221 
L 223.99308 85.447234 
L 224.06004 83.800221 
L 224.72964 83.800221 
L 224.81334 85.447234 
L 224.76312 82.153208 
L 224.83008 83.800221 
L 224.94726 83.800221 
L 224.964 87.094248 
L 225.0477 83.800221 
L 226.10232 83.800221 
L 226.16928 82.153208 
L 226.20276 83.800221 
L 226.23624 83.800221 
L 226.35342 85.447234 
L 226.43712 85.447234 
L 226.45386 87.094248 
L 226.4706 83.800221 
L 226.52082 83.800221 
L 226.53756 83.800221 
L 226.65474 85.447234 
L 226.68822 85.447234 
L 226.8054 83.800221 
L 226.95606 83.800221 
L 227.02302 87.094248 
L 227.0565 83.800221 
L 227.62566 83.800221 
L 227.6424 87.094248 
L 227.7261 83.800221 
L 228.78072 83.800221 
L 228.86442 85.447234 
L 228.8142 82.153208 
L 228.88116 83.800221 
L 230.0697 83.800221 
L 230.08644 85.447234 
L 230.10318 82.153208 
L 230.1534 82.153208 
L 230.22036 82.153208 
L 230.2371 85.447234 
L 230.33754 83.800221 
L 230.77278 83.800221 
L 230.78952 85.447234 
L 230.80626 82.153208 
L 230.85648 82.153208 
L 230.87322 82.153208 
L 230.9904 83.800221 
L 231.0741 83.800221 
L 231.09084 85.447234 
L 231.10758 82.153208 
L 231.1578 82.153208 
L 231.25824 82.153208 
L 231.3252 85.447234 
L 231.37542 83.800221 
L 231.4926 82.153208 
L 231.55956 82.153208 
L 231.62652 87.094248 
L 231.67674 85.447234 
L 232.06176 85.447234 
L 232.0785 87.094248 
L 232.09524 83.800221 
L 232.14546 83.800221 
L 232.26264 83.800221 
L 232.39656 87.094248 
L 232.51374 83.800221 
L 232.68114 83.800221 
L 232.71462 85.447234 
L 232.78158 83.800221 
L 232.94898 83.800221 
L 233.06616 85.447234 
L 233.11638 85.447234 
L 233.23356 83.800221 
L 233.31726 83.800221 
L 233.38422 87.094248 
L 233.4177 83.800221 
L 234.27144 83.800221 
L 234.38862 85.447234 
L 234.4221 85.447234 
L 234.43884 87.094248 
L 234.45558 83.800221 
L 234.5058 85.447234 
L 234.62298 83.800221 
L 234.63972 83.800221 
L 234.65646 87.094248 
L 234.74016 83.800221 
L 235.39302 83.800221 
L 235.6776 288.03584 
L 235.69434 288.03584 
L 235.82826 294.623893 
L 236.19654 294.623893 
L 236.21328 296.270907 
L 236.29698 294.623893 
L 236.31372 294.623893 
L 236.38068 296.270907 
L 236.41416 294.623893 
L 236.5146 294.623893 
L 236.54808 296.270907 
L 236.61504 294.623893 
L 236.66526 294.623893 
L 236.71548 296.270907 
L 236.7657 294.623893 
L 236.78244 294.623893 
L 236.88288 296.270907 
L 237.00006 294.623893 
L 237.05028 296.270907 
L 237.1005 294.623893 
L 237.13398 294.623893 
L 237.23442 296.270907 
L 237.28464 294.623893 
L 237.33486 296.270907 
L 237.38508 296.270907 
L 237.48552 294.623893 
L 237.55248 296.270907 
L 237.58596 294.623893 
L 237.6027 294.623893 
L 237.71988 296.270907 
L 237.78684 294.623893 
L 237.82032 296.270907 
L 237.88728 296.270907 
L 237.95424 294.623893 
L 237.98772 296.270907 
L 238.05468 296.270907 
L 238.13838 294.623893 
L 238.15512 296.270907 
L 238.22208 296.270907 
L 238.2723 294.623893 
L 238.32252 296.270907 
L 238.38948 296.270907 
L 238.4397 294.623893 
L 238.48992 296.270907 
L 238.55688 296.270907 
L 238.6071 294.623893 
L 238.65732 296.270907 
L 238.72428 296.270907 
L 238.7745 294.623893 
L 238.82472 296.270907 
L 239.22648 296.270907 
L 239.31018 294.623893 
L 239.32692 296.270907 
L 239.39388 296.270907 
L 239.46084 294.623893 
L 239.49432 296.270907 
L 239.76216 296.270907 
L 239.79564 294.623893 
L 239.8626 296.270907 
L 239.89608 296.270907 
L 239.9463 294.623893 
L 239.99652 296.270907 
L 240.06348 296.270907 
L 240.1137 294.623893 
L 240.16392 296.270907 
L 240.23088 296.270907 
L 240.29784 294.623893 
L 240.33132 296.270907 
L 240.39828 296.270907 
L 240.49872 294.623893 
L 240.56568 296.270907 
L 240.59916 294.623893 
L 240.6159 294.623893 
L 240.73308 296.270907 
L 240.80004 294.623893 
L 240.83352 296.270907 
L 240.90048 296.270907 
L 241.01766 294.623893 
L 241.06788 296.270907 
L 241.1181 294.623893 
L 241.15158 294.623893 
L 241.23528 296.270907 
L 241.25202 294.623893 
L 241.2855 294.623893 
L 241.38594 296.270907 
L 241.46964 294.623893 
L 241.48638 296.270907 
L 241.57008 296.270907 
L 241.6203 292.97688 
L 241.67052 296.270907 
L 241.73748 296.270907 
L 241.80444 294.623893 
L 241.83792 296.270907 
L 241.90488 296.270907 
L 241.9551 294.623893 
L 242.00532 296.270907 
L 242.07228 296.270907 
L 242.1225 294.623893 
L 242.17272 296.270907 
L 242.23968 296.270907 
L 242.27316 294.623893 
L 242.34012 296.270907 
L 242.40708 296.270907 
L 242.4573 294.623893 
L 242.50752 296.270907 
L 242.74188 296.270907 
L 242.7921 294.623893 
L 242.84232 296.270907 
L 242.90928 296.270907 
L 242.97624 294.623893 
L 243.00972 296.270907 
L 243.07668 296.270907 
L 243.16038 294.623893 
L 243.17712 296.270907 
L 243.22734 296.270907 
L 243.2943 294.623893 
L 243.32778 296.270907 
L 243.41148 296.270907 
L 243.4617 294.623893 
L 243.51192 296.270907 
L 243.56214 296.270907 
L 243.6291 294.623893 
L 243.66258 296.270907 
L 243.74628 296.270907 
L 243.77976 288.03584 
L 243.98064 64.035067 
L 244.16478 92.035288 
L 244.4661 289.682853 
L 244.48284 289.682853 
L 244.61676 294.623893 
L 244.7172 294.623893 
L 244.73394 296.270907 
L 244.75068 292.97688 
L 244.81764 294.623893 
L 244.83438 294.623893 
L 244.91808 296.270907 
L 244.90134 292.97688 
L 244.93482 294.623893 
L 244.98504 294.623893 
L 245.06874 296.270907 
L 245.08548 294.623893 
L 245.11896 294.623893 
L 245.23614 296.270907 
L 245.25288 296.270907 
L 245.3031 294.623893 
L 245.35332 296.270907 
L 245.40354 296.270907 
L 245.4705 294.623893 
L 245.50398 296.270907 
L 245.57094 296.270907 
L 245.65464 294.623893 
L 245.67138 296.270907 
L 245.73834 296.270907 
L 245.85552 294.623893 
L 245.90574 296.270907 
L 245.95596 294.623893 
L 246.00618 294.623893 
L 246.07314 296.270907 
L 246.10662 294.623893 
L 246.1401 294.623893 
L 246.24054 296.270907 
L 246.3075 294.623893 
L 246.34098 296.270907 
L 246.40794 296.270907 
L 246.4749 294.623893 
L 246.50838 296.270907 
L 246.57534 296.270907 
L 246.65904 294.623893 
L 246.67578 296.270907 
L 246.74274 296.270907 
L 246.82644 294.623893 
L 246.84318 296.270907 
L 246.91014 296.270907 
L 247.01058 294.623893 
L 247.07754 296.270907 
L 247.11102 294.623893 
L 247.17798 294.623893 
L 247.24494 296.270907 
L 247.27842 294.623893 
L 247.3119 294.623893 
L 247.41234 296.270907 
L 247.49604 292.97688 
L 247.4793 297.91792 
L 247.51278 296.270907 
L 247.57974 296.270907 
L 247.61322 294.623893 
L 247.68018 296.270907 
L 247.74714 296.270907 
L 247.83084 294.623893 
L 247.84758 296.270907 
L 247.91454 296.270907 
L 247.99824 294.623893 
L 248.01498 296.270907 
L 248.08194 296.270907 
L 248.16564 294.623893 
L 248.18238 296.270907 
L 248.24934 296.270907 
L 248.29956 294.623893 
L 248.34978 296.270907 
L 248.41674 296.270907 
L 248.50044 292.97688 
L 248.4837 297.91792 
L 248.51718 296.270907 
L 248.58414 296.270907 
L 248.6511 294.623893 
L 248.68458 296.270907 
L 248.75154 296.270907 
L 248.83524 294.623893 
L 248.85198 296.270907 
L 248.91894 296.270907 
L 249.00264 297.91792 
L 249.01938 292.97688 
L 249.08634 296.270907 
L 249.13656 294.623893 
L 249.17004 294.623893 
L 249.25374 296.270907 
L 249.27048 294.623893 
L 249.3207 294.623893 
L 249.33744 297.91792 
L 249.42114 296.270907 
L 249.50484 297.91792 
L 249.52158 294.623893 
L 249.58854 296.270907 
L 249.62202 294.623893 
L 249.63876 294.623893 
L 249.75594 296.270907 
L 249.80616 294.623893 
L 249.85638 296.270907 
L 249.92334 296.270907 
L 249.9903 294.623893 
L 250.02378 296.270907 
L 250.09074 296.270907 
L 250.14096 294.623893 
L 250.19118 296.270907 
L 250.25814 296.270907 
L 250.3251 294.623893 
L 250.35858 296.270907 
L 250.42554 296.270907 
L 250.45902 294.623893 
L 250.52598 296.270907 
L 250.59294 296.270907 
L 250.67664 294.623893 
L 250.69338 296.270907 
L 250.76034 296.270907 
L 250.81056 294.623893 
L 250.86078 296.270907 
L 250.92774 296.270907 
L 251.02818 294.623893 
L 251.0784 296.270907 
L 251.12862 294.623893 
L 251.1621 294.623893 
L 251.2458 296.270907 
L 251.26254 294.623893 
L 251.34624 294.623893 
L 251.42994 296.270907 
L 251.44668 294.623893 
L 251.51364 294.623893 
L 251.59734 296.270907 
L 251.61408 294.623893 
L 251.68104 294.623893 
L 251.76474 296.270907 
L 251.78148 294.623893 
L 251.81496 294.623893 
L 251.88192 292.97688 
L 251.9154 296.270907 
L 251.9991 294.623893 
L 252.01584 296.270907 
L 252.0828 296.270907 
L 252.14976 297.91792 
L 252.1665 279.800774 
L 252.36738 62.388053 
L 252.38412 62.388053 
L 252.60174 180.976991 
L 252.78588 284.741814 
L 252.93654 292.97688 
L 252.95328 292.97688 
L 253.07046 294.623893 
L 253.18764 294.623893 
L 253.23786 296.270907 
L 253.28808 294.623893 
L 253.35504 294.623893 
L 253.422 296.270907 
L 253.45548 294.623893 
L 253.5057 294.623893 
L 253.5894 296.270907 
L 253.60614 294.623893 
L 253.68984 294.623893 
L 253.7568 296.270907 
L 253.79028 294.623893 
L 253.85724 294.623893 
L 253.9242 296.270907 
L 253.95768 294.623893 
L 254.04138 294.623893 
L 254.0916 296.270907 
L 254.14182 294.623893 
L 254.1753 294.623893 
L 254.259 296.270907 
L 254.27574 294.623893 
L 254.32596 294.623893 
L 254.4264 296.270907 
L 254.52684 294.623893 
L 254.5938 296.270907 
L 254.62728 294.623893 
L 254.64402 294.623893 
L 254.7612 296.270907 
L 254.81142 294.623893 
L 254.86164 296.270907 
L 254.9286 296.270907 
L 254.97882 294.623893 
L 255.02904 296.270907 
L 255.096 296.270907 
L 255.14622 294.623893 
L 255.19644 296.270907 
L 255.2634 296.270907 
L 255.38058 294.623893 
L 255.49776 296.270907 
L 255.5982 296.270907 
L 255.69864 294.623893 
L 255.7656 296.270907 
L 255.79908 294.623893 
L 255.8493 294.623893 
L 255.933 296.270907 
L 255.94974 294.623893 
L 255.99996 294.623893 
L 256.1004 296.270907 
L 256.1841 294.623893 
L 256.20084 296.270907 
L 256.2678 296.270907 
L 256.33476 294.623893 
L 256.36824 296.270907 
L 256.4352 296.270907 
L 256.5189 294.623893 
L 256.53564 296.270907 
L 256.6026 296.270907 
L 256.6863 294.623893 
L 256.70304 296.270907 
L 256.77 296.270907 
L 256.82022 294.623893 
L 256.87044 296.270907 
L 256.9374 296.270907 
L 257.03784 294.623893 
L 257.1048 296.270907 
L 257.13828 294.623893 
L 257.22198 294.623893 
L 257.2722 296.270907 
L 257.32242 294.623893 
L 257.33916 294.623893 
L 257.3559 297.91792 
L 257.4396 296.270907 
L 257.5233 294.623893 
L 257.54004 296.270907 
L 257.607 296.270907 
L 257.67396 294.623893 
L 257.70744 296.270907 
L 257.7744 296.270907 
L 257.8581 294.623893 
L 257.87484 296.270907 
L 257.9418 296.270907 
L 258.00876 292.97688 
L 258.04224 296.270907 
L 258.07572 296.270907 
L 258.1092 297.91792 
L 258.1929 294.623893 
L 258.20964 294.623893 
L 258.2766 296.270907 
L 258.31008 294.623893 
L 258.3603 294.623893 
L 258.444 296.270907 
L 258.46074 294.623893 
L 258.51096 294.623893 
L 258.6114 296.270907 
L 258.66162 294.623893 
L 258.71184 296.270907 
L 258.7788 296.270907 
L 258.8625 294.623893 
L 258.87924 296.270907 
L 258.9462 296.270907 
L 259.01316 294.623893 
L 259.04664 296.270907 
L 259.1136 296.270907 
L 259.18056 294.623893 
L 259.21404 296.270907 
L 259.281 296.270907 
L 259.39818 294.623893 
L 259.51536 294.623893 
L 259.6158 296.270907 
L 259.66602 294.623893 
L 259.71624 296.270907 
L 259.76646 296.270907 
L 259.88364 292.97688 
L 259.9506 296.270907 
L 260.00082 294.623893 
L 260.01756 294.623893 
L 260.10126 296.270907 
L 260.118 294.623893 
L 260.16822 294.623893 
L 260.2854 296.270907 
L 260.38584 294.623893 
L 260.50302 296.270907 
L 260.5365 296.270907 
L 260.75412 64.035067 
L 260.77086 67.329093 
L 260.93826 92.035288 
L 261.13914 279.800774 
L 261.30654 292.97688 
L 261.32328 292.97688 
L 261.44046 294.623893 
L 261.75852 294.623893 
L 261.77526 297.91792 
L 261.85896 294.623893 
L 261.89244 294.623893 
L 261.94266 296.270907 
L 261.99288 294.623893 
L 262.02636 294.623893 
L 262.11006 296.270907 
L 262.1268 294.623893 
L 262.34442 294.623893 
L 262.44486 296.270907 
L 262.52856 294.623893 
L 262.5453 296.270907 
L 262.61226 296.270907 
L 262.69596 294.623893 
L 262.7127 296.270907 
L 262.77966 296.270907 
L 262.84662 294.623893 
L 262.8801 296.270907 
L 262.94706 296.270907 
L 263.03076 294.623893 
L 263.0475 296.270907 
L 263.1312 296.270907 
L 263.19816 294.623893 
L 263.23164 296.270907 
L 263.28186 296.270907 
L 263.39904 292.97688 
L 263.44926 296.270907 
L 263.51622 294.623893 
L 263.5497 294.623893 
L 263.61666 296.270907 
L 263.65014 294.623893 
L 263.70036 294.623893 
L 263.78406 296.270907 
L 263.8008 294.623893 
L 263.86776 294.623893 
L 263.95146 296.270907 
L 263.9682 294.623893 
L 264.01842 294.623893 
L 264.11886 296.270907 
L 264.16908 294.623893 
L 264.2193 296.270907 
L 264.28626 296.270907 
L 264.35322 294.623893 
L 264.3867 296.270907 
L 264.45366 296.270907 
L 264.52062 294.623893 
L 264.5541 296.270907 
L 264.62106 296.270907 
L 264.67128 294.623893 
L 264.7215 296.270907 
L 264.78846 296.270907 
L 264.83868 294.623893 
L 264.8889 296.270907 
L 264.95586 296.270907 
L 265.03956 294.623893 
L 265.0563 296.270907 
L 265.12326 296.270907 
L 265.20696 294.623893 
L 265.2237 296.270907 
L 265.29066 296.270907 
L 265.35762 294.623893 
L 265.3911 296.270907 
L 265.45806 296.270907 
L 265.50828 294.623893 
L 265.5585 296.270907 
L 265.62546 296.270907 
L 265.67568 294.623893 
L 265.7259 296.270907 
L 265.79286 296.270907 
L 265.85982 294.623893 
L 265.8933 296.270907 
L 265.96026 296.270907 
L 266.07744 294.623893 
L 266.12766 296.270907 
L 266.17788 294.623893 
L 266.21136 294.623893 
L 266.29506 296.270907 
L 266.3118 294.623893 
L 266.37876 294.623893 
L 266.46246 296.270907 
L 266.4792 294.623893 
L 266.52942 294.623893 
L 266.62986 296.270907 
L 266.66334 294.623893 
L 266.7303 296.270907 
L 266.79726 296.270907 
L 266.84748 292.97688 
L 266.8977 296.270907 
L 266.96466 296.270907 
L 266.99814 292.97688 
L 267.0651 296.270907 
L 267.29946 296.270907 
L 267.36642 294.623893 
L 267.3999 296.270907 
L 267.46686 296.270907 
L 267.51708 294.623893 
L 267.5673 296.270907 
L 267.63426 296.270907 
L 267.66774 292.97688 
L 267.7347 296.270907 
L 267.80166 296.270907 
L 267.85188 294.623893 
L 267.9021 296.270907 
L 267.96906 296.270907 
L 268.00254 294.623893 
L 268.0695 296.270907 
L 268.13646 296.270907 
L 268.20342 294.623893 
L 268.2369 296.270907 
L 268.30386 296.270907 
L 268.37082 294.623893 
L 268.4043 296.270907 
L 268.47126 296.270907 
L 268.52148 294.623893 
L 268.5717 296.270907 
L 268.63866 296.270907 
L 268.67214 294.623893 
L 268.7391 296.270907 
L 268.80606 296.270907 
L 268.85628 294.623893 
L 268.9065 296.270907 
L 268.92324 296.270907 
L 269.14086 65.68208 
L 269.1576 65.68208 
L 269.34174 133.211615 
L 269.52588 279.800774 
L 269.67654 292.97688 
L 269.71002 292.97688 
L 269.8272 294.623893 
L 269.9109 294.623893 
L 269.94438 296.270907 
L 270.01134 294.623893 
L 270.06156 294.623893 
L 270.12852 296.270907 
L 270.162 294.623893 
L 270.17874 294.623893 
L 270.29592 296.270907 
L 270.39636 294.623893 
L 270.46332 296.270907 
L 270.4968 294.623893 
L 270.51354 292.97688 
L 270.53028 296.270907 
L 270.5805 296.270907 
L 270.63072 296.270907 
L 270.71442 294.623893 
L 270.73116 296.270907 
L 270.81486 296.270907 
L 270.88182 294.623893 
L 270.9153 296.270907 
L 270.96552 296.270907 
L 271.06596 292.97688 
L 271.14966 296.270907 
L 271.18314 294.623893 
L 271.30032 296.270907 
L 271.35054 294.623893 
L 271.40076 296.270907 
L 271.43424 296.270907 
L 271.55142 294.623893 
L 271.56816 294.623893 
L 271.63512 296.270907 
L 271.6686 294.623893 
L 271.73556 294.623893 
L 271.80252 296.270907 
L 271.836 294.623893 
L 271.88622 294.623893 
L 271.96992 296.270907 
L 271.98666 294.623893 
L 272.05362 294.623893 
L 272.13732 296.270907 
L 272.15406 294.623893 
L 272.22102 294.623893 
L 272.30472 296.270907 
L 272.32146 294.623893 
L 272.37168 294.623893 
L 272.47212 296.270907 
L 272.53908 294.623893 
L 272.57256 296.270907 
L 272.63952 296.270907 
L 272.70648 294.623893 
L 272.73996 296.270907 
L 272.82366 296.270907 
L 272.8404 292.97688 
L 272.9241 296.270907 
L 272.97432 296.270907 
L 273.05802 294.623893 
L 273.07476 296.270907 
L 273.14172 296.270907 
L 273.19194 294.623893 
L 273.24216 296.270907 
L 273.30912 296.270907 
L 273.35934 294.623893 
L 273.40956 296.270907 
L 273.49326 296.270907 
L 273.51 292.97688 
L 273.5937 296.270907 
L 273.64392 296.270907 
L 273.71088 294.623893 
L 273.74436 296.270907 
L 273.81132 296.270907 
L 273.87828 294.623893 
L 273.91176 296.270907 
L 273.97872 296.270907 
L 274.02894 292.97688 
L 274.07916 296.270907 
L 274.14612 296.270907 
L 274.21308 294.623893 
L 274.24656 296.270907 
L 274.31352 296.270907 
L 274.36374 294.623893 
L 274.41396 296.270907 
L 274.48092 296.270907 
L 274.5144 294.623893 
L 274.58136 296.270907 
L 274.64832 296.270907 
L 274.71528 294.623893 
L 274.74876 296.270907 
L 274.81572 296.270907 
L 274.88268 294.623893 
L 274.91616 296.270907 
L 274.98312 296.270907 
L 275.05008 294.623893 
L 275.08356 296.270907 
L 275.15052 296.270907 
L 275.21748 294.623893 
L 275.25096 296.270907 
L 275.31792 296.270907 
L 275.36814 294.623893 
L 275.41836 296.270907 
L 275.48532 296.270907 
L 275.53554 294.623893 
L 275.58576 296.270907 
L 275.65272 296.270907 
L 275.6862 294.623893 
L 275.75316 296.270907 
L 275.82012 296.270907 
L 275.87034 294.623893 
L 275.92056 296.270907 
L 275.98752 296.270907 
L 276.05448 294.623893 
L 276.08796 296.270907 
L 276.15492 296.270907 
L 276.20514 294.623893 
L 276.25536 296.270907 
L 276.32232 296.270907 
L 276.37254 294.623893 
L 276.42276 296.270907 
L 276.48972 296.270907 
L 276.53994 294.623893 
L 276.59016 296.270907 
L 276.65712 296.270907 
L 276.72408 294.623893 
L 276.75756 296.270907 
L 276.82452 296.270907 
L 276.87474 294.623893 
L 276.92496 296.270907 
L 276.99192 296.270907 
L 277.04214 292.97688 
L 277.09236 296.270907 
L 277.15932 296.270907 
L 277.1928 294.623893 
L 277.25976 296.270907 
L 277.29324 296.270907 
L 277.30998 294.623893 
L 277.51086 65.68208 
L 277.5276 62.388053 
L 277.57782 73.917147 
L 277.72848 133.211615 
L 277.91262 279.800774 
L 278.09676 294.623893 
L 278.29764 294.623893 
L 278.31438 292.97688 
L 278.33112 296.270907 
L 278.39808 294.623893 
L 278.4483 294.623893 
L 278.48178 296.270907 
L 278.54874 294.623893 
L 278.6157 294.623893 
L 278.73288 296.270907 
L 278.85006 294.623893 
L 278.88354 294.623893 
L 279.00072 296.270907 
L 279.05094 294.623893 
L 279.10116 296.270907 
L 279.16812 296.270907 
L 279.25182 294.623893 
L 279.26856 296.270907 
L 279.31878 296.270907 
L 279.41922 294.623893 
L 279.48618 296.270907 
L 279.51966 294.623893 
L 279.6201 294.623893 
L 279.73728 297.91792 
L 279.85446 294.623893 
L 279.88794 294.623893 
L 279.98838 296.270907 
L 280.08882 294.623893 
L 280.15578 296.270907 
L 280.18926 294.623893 
L 280.206 294.623893 
L 280.22274 292.97688 
L 280.25622 296.270907 
L 280.2897 296.270907 
L 280.32318 296.270907 
L 280.39014 294.623893 
L 280.42362 296.270907 
L 280.49058 296.270907 
L 280.57428 294.623893 
L 280.59102 296.270907 
L 280.65798 296.270907 
L 280.77516 294.623893 
L 280.82538 296.270907 
L 280.8756 294.623893 
L 280.90908 294.623893 
L 280.99278 296.270907 
L 281.00952 294.623893 
L 281.05974 294.623893 
L 281.16018 296.270907 
L 281.2104 294.623893 
L 281.26062 296.270907 
L 281.32758 296.270907 
L 281.39454 294.623893 
L 281.42802 296.270907 
L 281.49498 296.270907 
L 281.56194 294.623893 
L 281.59542 296.270907 
L 281.66238 296.270907 
L 281.76282 294.623893 
L 281.82978 296.270907 
L 281.86326 294.623893 
L 281.93022 294.623893 
L 282.01392 296.270907 
L 282.03066 294.623893 
L 282.06414 294.623893 
L 282.16458 296.270907 
L 282.26502 294.623893 
L 282.33198 296.270907 
L 282.2985 292.97688 
L 282.36546 294.623893 
L 282.43242 294.623893 
L 282.49938 296.270907 
L 282.53286 294.623893 
L 282.56634 294.623893 
L 282.58308 292.97688 
L 282.59982 296.270907 
L 282.65004 296.270907 
L 282.66678 296.270907 
L 282.75048 294.623893 
L 282.76722 296.270907 
L 282.83418 296.270907 
L 282.91788 294.623893 
L 282.93462 296.270907 
L 283.00158 296.270907 
L 283.10202 294.623893 
L 283.16898 296.270907 
L 283.20246 294.623893 
L 283.23594 294.623893 
L 283.33638 296.270907 
L 283.42008 294.623893 
L 283.43682 296.270907 
L 283.50378 296.270907 
L 283.57074 294.623893 
L 283.60422 296.270907 
L 283.67118 296.270907 
L 283.73814 294.623893 
L 283.77162 296.270907 
L 283.83858 296.270907 
L 283.90554 294.623893 
L 283.93902 296.270907 
L 284.00598 296.270907 
L 284.07294 294.623893 
L 284.10642 296.270907 
L 284.17338 296.270907 
L 284.2236 294.623893 
L 284.27382 296.270907 
L 284.34078 296.270907 
L 284.40774 294.623893 
L 284.44122 296.270907 
L 284.49144 296.270907 
L 284.60862 294.623893 
L 284.67558 296.270907 
L 284.70906 294.623893 
L 284.7258 294.623893 
L 284.74254 292.97688 
L 284.77602 296.270907 
L 284.8095 296.270907 
L 284.84298 296.270907 
L 284.92668 294.623893 
L 284.94342 296.270907 
L 285.01038 296.270907 
L 285.09408 294.623893 
L 285.11082 296.270907 
L 285.17778 296.270907 
L 285.24474 294.623893 
L 285.27822 296.270907 
L 285.34518 296.270907 
L 285.41214 294.623893 
L 285.44562 296.270907 
L 285.51258 296.270907 
L 285.5628 294.623893 
L 285.61302 296.270907 
L 285.67998 296.270907 
L 285.7302 220.506305 
L 285.91434 62.388053 
L 285.93108 68.976107 
L 286.09848 106.858407 
L 286.26588 274.858739 
L 286.5672 294.623893 
L 286.80156 294.623893 
L 286.85178 296.270907 
L 286.902 294.623893 
L 286.91874 294.623893 
L 287.00244 296.270907 
L 287.01918 294.623893 
L 287.08614 294.623893 
L 287.16984 296.270907 
L 287.18658 294.623893 
L 287.22006 294.623893 
L 287.2368 292.97688 
L 287.25354 296.270907 
L 287.30376 296.270907 
L 287.35398 296.270907 
L 287.43768 294.623893 
L 287.45442 296.270907 
L 287.52138 296.270907 
L 287.60508 294.623893 
L 287.62182 296.270907 
L 287.67204 296.270907 
L 287.739 294.623893 
L 287.77248 296.270907 
L 287.85618 296.270907 
L 287.92314 294.623893 
L 287.95662 296.270907 
L 288.02358 296.270907 
L 288.10728 294.623893 
L 288.12402 296.270907 
L 288.17424 296.270907 
L 288.27468 294.623893 
L 288.34164 296.270907 
L 288.37512 294.623893 
L 288.42534 294.623893 
L 288.52578 296.270907 
L 288.55926 294.623893 
L 288.62622 296.270907 
L 288.69318 296.270907 
L 288.76014 292.97688 
L 288.7434 297.91792 
L 288.79362 296.270907 
L 288.86058 296.270907 
L 288.92754 294.623893 
L 288.96102 296.270907 
L 289.01124 296.270907 
L 289.09494 294.623893 
L 289.11168 296.270907 
L 289.14516 296.270907 
L 289.2456 294.623893 
L 289.34604 296.270907 
L 289.46322 294.623893 
L 289.53018 296.270907 
L 289.4967 292.97688 
L 289.56366 294.623893 
L 289.59714 294.623893 
L 289.68084 296.270907 
L 289.69758 294.623893 
L 289.79802 294.623893 
L 289.84824 296.270907 
L 289.89846 294.623893 
L 289.94868 294.623893 
L 290.01564 296.270907 
L 290.04912 294.623893 
L 290.09934 294.623893 
L 290.18304 296.270907 
L 290.19978 294.623893 
L 290.26674 294.623893 
L 290.35044 296.270907 
L 290.36718 294.623893 
L 290.45088 294.623893 
L 290.51784 296.270907 
L 290.55132 294.623893 
L 290.56806 294.623893 
L 290.68524 296.270907 
L 290.7522 297.91792 
L 290.78568 294.623893 
L 290.85264 296.270907 
L 290.88612 294.623893 
L 290.93634 294.623893 
L 291.02004 296.270907 
L 291.03678 294.623893 
L 291.087 294.623893 
L 291.18744 296.270907 
L 291.30462 294.623893 
L 291.32136 294.623893 
L 291.4218 296.270907 
L 291.43854 292.97688 
L 291.53898 294.623893 
L 291.57246 294.623893 
L 291.68964 296.270907 
L 291.7566 294.623893 
L 291.79008 296.270907 
L 291.85704 296.270907 
L 291.94074 294.623893 
L 291.95748 296.270907 
L 291.97422 296.270907 
L 292.0914 294.623893 
L 292.12488 294.623893 
L 292.19184 296.270907 
L 292.22532 294.623893 
L 292.27554 294.623893 
L 292.35924 296.270907 
L 292.37598 294.623893 
L 292.44294 294.623893 
L 292.52664 296.270907 
L 292.54338 294.623893 
L 292.57686 294.623893 
L 292.69404 296.270907 
L 292.77774 294.623893 
L 292.79448 296.270907 
L 292.86144 296.270907 
L 292.94514 294.623893 
L 292.96188 296.270907 
L 293.02884 296.270907 
L 293.12928 294.623893 
L 293.19624 296.270907 
L 293.22972 294.623893 
L 293.2632 294.623893 
L 293.36364 296.270907 
L 293.44734 294.623893 
L 293.46408 296.270907 
L 293.53104 296.270907 
L 293.58126 292.97688 
L 293.63148 296.270907 
L 293.69844 296.270907 
L 293.81562 294.623893 
L 293.86584 296.270907 
L 293.91606 294.623893 
L 293.9328 294.623893 
L 294.03324 296.270907 
L 294.08346 284.741814 
L 294.28434 62.388053 
L 294.30108 62.388053 
L 294.88698 297.91792 
L 294.95394 297.91792 
L 295.05438 296.270907 
L 295.07112 301.211947 
L 295.37244 301.211947 
L 295.38918 297.91792 
L 295.47288 301.211947 
L 295.53984 301.211947 
L 295.55658 297.91792 
L 295.64028 301.211947 
L 302.45346 301.211947 
L 302.68782 68.976107 
L 302.7213 80.506194 
L 302.85522 96.976328 
L 303.07284 286.388827 
L 303.24024 297.91792 
L 303.3072 297.91792 
L 303.42438 301.211947 
L 307.4085 301.211947 
L 307.42524 297.91792 
L 307.50894 301.211947 
L 309.9195 301.211947 
L 309.93624 297.91792 
L 310.01994 301.211947 
L 310.8402 301.211947 
L 311.05782 68.976107 
L 311.2587 129.917589 
L 311.44284 283.0948 
L 311.62698 297.91792 
L 311.69394 297.91792 
L 311.81112 301.211947 
L 319.19346 301.211947 
L 319.2102 297.91792 
L 319.22694 301.211947 
L 319.42782 70.62312 
L 319.44456 67.329093 
L 319.47804 78.859181 
L 319.6287 96.976328 
L 319.82958 283.0948 
L 320.01372 297.91792 
L 320.08068 297.91792 
L 320.19786 301.211947 
L 320.78376 301.211947 
L 320.8005 297.91792 
L 320.8842 301.211947 
L 327.59694 301.211947 
L 327.61368 297.91792 
L 327.81456 70.62312 
L 327.8313 67.329093 
L 327.86478 78.859181 
L 328.01544 101.917368 
L 328.19958 281.447787 
L 328.38372 297.91792 
L 328.43394 297.91792 
L 328.46742 296.270907 
L 328.55112 301.211947 
L 328.61808 301.211947 
L 328.63482 297.91792 
L 328.71852 301.211947 
L 335.98368 301.211947 
L 336.05064 200.74115 
L 336.21804 67.329093 
L 336.25152 80.506194 
L 336.40218 110.153429 
L 336.56958 276.505752 
L 336.72024 296.270907 
L 336.73698 296.270907 
L 336.85416 297.91792 
L 336.8709 297.91792 
L 336.98808 301.211947 
L 337.32288 301.211947 
L 337.33962 297.91792 
L 337.42332 301.211947 
L 344.37042 301.211947 
L 344.60478 67.329093 
L 344.72196 82.153208 
L 344.80566 156.270796 
L 344.9898 286.388827 
L 345.1572 297.91792 
L 345.22416 297.91792 
L 345.34134 301.211947 
L 352.74042 301.211947 
L 352.75716 302.85896 
L 352.97478 68.976107 
L 353.00826 77.212168 
L 353.17566 126.623562 
L 353.3598 283.0948 
L 353.54394 297.91792 
L 353.62764 297.91792 
L 353.74482 301.211947 
L 361.12716 301.211947 
L 361.1439 302.85896 
L 361.34478 70.62312 
L 361.36152 68.976107 
L 361.37826 72.270133 
L 361.59588 197.447124 
L 361.78002 291.329867 
L 361.79676 291.329867 
L 361.96416 297.91792 
L 361.9809 297.91792 
L 362.09808 301.211947 
L 369.5139 301.211947 
L 369.56412 223.800332 
L 369.74826 67.329093 
L 369.765 73.917147 
L 369.94914 149.682743 
L 370.13328 286.388827 
L 370.38438 301.211947 
L 377.8839 301.211947 
L 377.90064 302.85896 
L 378.135 68.976107 
L 378.16848 78.859181 
L 378.31914 129.917589 
L 378.50328 284.741814 
L 378.73764 297.91792 
L 378.78786 297.91792 
L 378.90504 301.211947 
L 386.28738 301.211947 
L 386.505 67.329093 
L 386.68914 103.564381 
L 386.87328 281.447787 
L 387.05742 297.91792 
L 387.14112 297.91792 
L 387.2583 301.211947 
L 394.65738 301.211947 
L 394.69086 256.741593 
L 394.89174 67.329093 
L 395.1261 200.74115 
L 395.31024 289.682853 
L 395.49438 297.91792 
L 395.52786 297.91792 
L 395.64504 301.211947 
L 403.04412 301.211947 
L 403.27848 70.62312 
L 403.39566 87.094248 
L 403.63002 129.917589 
L 403.6635 124.976549 
L 403.79742 115.094469 
L 403.84764 115.094469 
L 403.86438 111.800442 
L 403.9146 123.329535 
L 403.93134 124.976549 
L 403.96482 118.388495 
L 404.09874 115.094469 
L 404.11548 115.094469 
L 404.1657 111.800442 
L 404.18244 115.094469 
L 404.23266 124.976549 
L 404.29962 118.388495 
L 404.31636 118.388495 
L 404.43354 115.094469 
L 404.45028 115.094469 
L 404.46702 113.447455 
L 404.5005 120.035509 
L 404.53398 124.976549 
L 404.5842 116.741482 
L 404.63442 116.741482 
L 404.76834 111.800442 
L 404.81856 124.976549 
L 404.88552 118.388495 
L 405.01944 113.447455 
L 405.06966 113.447455 
L 405.11988 124.976549 
L 405.18684 115.094469 
L 405.22032 115.094469 
L 405.23706 116.741482 
L 405.2538 113.447455 
L 405.32076 115.094469 
L 405.37098 111.800442 
L 405.38772 120.035509 
L 405.40446 118.388495 
L 405.4212 124.976549 
L 405.5049 115.094469 
L 405.53838 115.094469 
L 405.55512 116.741482 
L 405.57186 113.447455 
L 405.62208 113.447455 
L 405.65556 113.447455 
L 405.72252 124.976549 
L 405.78948 118.388495 
L 405.9234 113.447455 
L 405.95688 113.447455 
L 406.02384 124.976549 
L 406.07406 116.741482 
L 406.10754 116.741482 
L 406.22472 113.447455 
L 406.32516 123.329535 
L 406.2582 111.800442 
L 406.37538 118.388495 
L 406.5093 113.447455 
L 406.55952 113.447455 
L 406.60974 124.976549 
L 406.6767 116.741482 
L 406.69344 116.741482 
L 406.81062 113.447455 
L 406.91106 124.976549 
L 406.8441 111.800442 
L 406.96128 118.388495 
L 406.97802 118.388495 
L 407.11194 113.447455 
L 407.12868 113.447455 
L 407.21238 124.976549 
L 407.2626 116.741482 
L 407.29608 116.741482 
L 407.41326 113.447455 
L 407.5137 124.976549 
L 407.44674 111.800442 
L 407.54718 118.388495 
L 407.69784 113.447455 
L 407.73132 113.447455 
L 407.74806 111.800442 
L 407.78154 118.388495 
L 407.81502 123.329535 
L 407.8485 116.741482 
L 407.88198 116.741482 
L 407.89872 116.741482 
L 408.03264 111.800442 
L 408.0996 124.976549 
L 408.16656 118.388495 
L 408.30048 113.447455 
L 408.3507 113.447455 
L 408.40092 124.976549 
L 408.46788 116.741482 
L 408.48462 116.741482 
L 408.61854 113.447455 
L 408.63528 113.447455 
L 408.70224 124.976549 
L 408.7692 118.388495 
L 408.90312 113.447455 
L 409.00356 124.976549 
L 408.9366 111.800442 
L 409.03704 120.035509 
L 409.17096 113.447455 
L 409.22118 113.447455 
L 409.23792 111.800442 
L 409.2714 118.388495 
L 409.30488 124.976549 
L 409.3551 116.741482 
L 409.37184 116.741482 
L 409.38858 116.741482 
L 409.53924 111.800442 
L 409.6062 123.329535 
L 409.67316 116.741482 
L 409.70664 116.741482 
L 409.84056 111.800442 
L 409.89078 124.976549 
L 409.95774 116.741482 
L 410.00796 116.741482 
L 410.12514 113.447455 
L 410.1921 124.976549 
L 410.2758 118.388495 
L 410.39298 113.447455 
L 410.49342 124.976549 
L 410.42646 111.800442 
L 410.54364 118.388495 
L 410.67756 113.447455 
L 410.6943 113.447455 
L 410.79474 124.976549 
L 410.72778 111.800442 
L 410.82822 120.035509 
L 410.96214 113.447455 
L 410.99562 113.447455 
L 411.09606 123.329535 
L 411.12954 120.035509 
L 411.26346 113.447455 
L 411.33042 113.447455 
L 411.39738 123.329535 
L 411.4476 118.388495 
L 411.58152 113.447455 
L 411.63174 113.447455 
L 411.68196 124.976549 
L 411.74892 118.388495 
L 411.88284 113.447455 
L 411.98328 124.976549 
L 411.91632 111.800442 
L 412.01676 118.388495 
L 412.16742 113.447455 
L 412.18416 113.447455 
L 412.2846 124.976549 
L 412.21764 111.800442 
L 412.31808 118.388495 
L 412.46874 113.447455 
L 412.50222 113.447455 
L 412.58592 124.976549 
L 412.63614 116.741482 
L 412.66962 116.741482 
L 412.7868 113.447455 
L 412.88724 123.329535 
L 412.82028 111.800442 
L 412.92072 118.388495 
L 413.07138 113.447455 
L 413.1216 113.447455 
L 413.17182 124.976549 
L 413.23878 116.741482 
L 413.25552 116.741482 
L 413.38944 113.447455 
L 413.40618 113.447455 
L 413.42292 111.800442 
L 413.43966 120.035509 
L 413.4564 118.388495 
L 413.47314 124.976549 
L 413.5401 116.741482 
L 413.55684 116.741482 
L 413.57358 116.741482 
L 413.69076 113.447455 
L 413.7075 113.447455 
L 413.77446 124.976549 
L 413.84142 116.741482 
L 413.97534 113.447455 
L 414.07578 124.976549 
L 414.00882 111.800442 
L 414.10926 120.035509 
L 414.24318 113.447455 
L 414.27666 113.447455 
L 414.3771 123.329535 
L 414.31014 111.800442 
L 414.41058 118.388495 
L 414.56124 113.447455 
L 414.61146 113.447455 
L 414.67842 123.329535 
L 414.72864 115.094469 
L 414.76212 115.094469 
L 414.77886 116.741482 
L 414.7956 113.447455 
L 414.84582 113.447455 
L 414.86256 113.447455 
L 414.963 124.976549 
L 414.89604 111.800442 
L 415.01322 118.388495 
L 415.02996 118.388495 
L 415.16388 113.447455 
L 415.2141 113.447455 
L 415.26432 124.976549 
L 415.33128 116.741482 
L 415.34802 116.741482 
L 415.4652 113.447455 
L 415.56564 124.976549 
L 415.49868 111.800442 
L 415.59912 120.035509 
L 415.73304 113.447455 
L 415.76652 113.447455 
L 415.86696 124.976549 
L 415.8 111.800442 
L 415.90044 118.388495 
L 416.01762 113.447455 
L 416.03436 115.094469 
L 416.0511 115.094469 
L 416.10132 111.800442 
L 416.11806 116.741482 
L 416.16828 123.329535 
L 416.2185 116.741482 
L 416.23524 116.741482 
L 416.36916 113.447455 
L 416.40264 113.447455 
L 416.4696 123.329535 
L 416.53656 118.388495 
L 416.67048 113.447455 
L 416.68722 113.447455 
L 416.75418 124.976549 
L 416.82114 118.388495 
L 416.95506 113.447455 
L 416.98854 113.447455 
L 417.00528 111.800442 
L 417.02202 118.388495 
L 417.0555 124.976549 
L 417.12246 118.388495 
L 417.25638 113.447455 
L 417.35682 124.976549 
L 417.28986 111.800442 
L 417.3903 116.741482 
L 417.42378 116.741482 
L 417.54096 113.447455 
L 417.65814 123.329535 
L 417.57444 111.800442 
L 417.67488 120.035509 
L 417.8088 113.447455 
L 417.8925 113.447455 
L 417.95946 123.329535 
L 418.00968 116.741482 
L 418.02642 116.741482 
L 418.16034 113.447455 
L 418.19382 113.447455 
L 418.24404 124.976549 
L 418.311 118.388495 
L 418.44492 113.447455 
L 418.49514 113.447455 
L 418.54536 124.976549 
L 418.59558 118.388495 
L 418.7295 113.447455 
L 418.76298 113.447455 
L 418.93038 59.094027 
L 418.94712 80.506194 
L 419.13126 284.741814 
L 419.43258 304.505973 
L 419.68368 304.505973 
L 419.71716 306.152987 
L 419.78412 304.505973 
L 420.01848 304.505973 
L 420.03522 306.152987 
L 420.11892 304.505973 
L 420.1524 304.505973 
L 420.21936 307.8 
L 420.20262 302.85896 
L 420.25284 304.505973 
L 420.33654 304.505973 
L 420.35328 306.152987 
L 420.42024 304.505973 
L 420.43698 302.85896 
L 420.45372 306.152987 
L 420.52068 304.505973 
L 420.53742 306.152987 
L 420.62112 304.505973 
L 420.78852 304.505973 
L 420.87222 306.152987 
L 420.85548 302.85896 
L 420.88896 304.505973 
L 420.97266 304.505973 
L 421.03962 306.152987 
L 421.0731 304.505973 
L 421.1568 304.505973 
L 421.20702 306.152987 
L 421.25724 304.505973 
L 421.29072 304.505973 
L 421.37442 306.152987 
L 421.39116 304.505973 
L 421.4916 304.505973 
L 421.54182 306.152987 
L 421.59204 304.505973 
L 421.62552 304.505973 
L 421.64226 306.152987 
L 421.75944 115.094469 
L 421.80966 205.68219 
L 421.9938 296.270907 
L 422.02728 296.270907 
L 422.1612 304.505973 
L 422.36208 304.505973 
L 422.37882 306.152987 
L 422.44578 304.505973 
L 422.46252 302.85896 
L 422.47926 306.152987 
L 422.52948 306.152987 
L 422.54622 306.152987 
L 422.6634 304.505973 
L 422.68014 304.505973 
L 422.71362 306.152987 
L 422.78058 304.505973 
L 422.84754 304.505973 
L 422.88102 306.152987 
L 422.94798 304.505973 
L 423.01494 304.505973 
L 423.03168 306.152987 
L 423.11538 304.505973 
L 423.13212 304.505973 
L 423.21582 306.152987 
L 423.23256 304.505973 
L 423.333 304.505973 
L 423.38322 306.152987 
L 423.43344 304.505973 
L 423.46692 304.505973 
L 423.55062 306.152987 
L 423.56736 304.505973 
L 423.6678 304.505973 
L 423.68454 302.85896 
L 423.70128 306.152987 
L 423.76824 304.505973 
L 423.85194 304.505973 
L 423.88542 306.152987 
L 423.95238 304.505973 
L 423.98586 304.505973 
L 424.05282 306.152987 
L 424.0863 304.505973 
L 424.11978 304.505973 
L 424.18674 306.152987 
L 424.20348 302.85896 
L 424.22022 304.505973 
L 424.32066 123.329535 
L 424.35414 164.505863 
L 424.53828 292.97688 
L 424.55502 292.97688 
L 424.72242 304.505973 
L 424.95678 304.505973 
L 424.97352 307.8 
L 425.05722 304.505973 
L 425.15766 304.505973 
L 425.22462 306.152987 
L 425.2581 304.505973 
L 425.27484 304.505973 
L 425.3418 302.85896 
L 425.30832 306.152987 
L 425.35854 306.152987 
L 425.39202 306.152987 
L 425.5092 304.505973 
L 425.52594 304.505973 
L 425.55942 306.152987 
L 425.62638 304.505973 
L 425.6766 304.505973 
L 425.72682 306.152987 
L 425.77704 304.505973 
L 425.82726 304.505973 
L 425.89422 306.152987 
L 425.9277 304.505973 
L 425.97792 304.505973 
L 426.06162 307.8 
L 426.07836 304.505973 
L 426.16206 304.505973 
L 426.22902 306.152987 
L 426.2625 304.505973 
L 426.31272 304.505973 
L 426.39642 306.152987 
L 426.41316 304.505973 
L 426.48012 304.505973 
L 426.56382 306.152987 
L 426.58056 304.505973 
L 426.66426 304.505973 
L 426.73122 306.152987 
L 426.7647 304.505973 
L 426.78144 304.505973 
L 426.89862 115.094469 
L 426.96558 220.506305 
L 427.13298 294.623893 
L 427.33386 304.505973 
L 427.66866 304.505973 
L 427.73562 306.152987 
L 427.7691 304.505973 
L 427.81932 304.505973 
L 427.90302 306.152987 
L 427.91976 304.505973 
L 428.00346 304.505973 
L 428.07042 306.152987 
L 428.1039 304.505973 
L 428.20434 304.505973 
L 428.32152 306.152987 
L 428.40522 306.152987 
L 428.5224 304.505973 
L 428.53914 304.505973 
L 428.65632 306.152987 
L 428.67306 306.152987 
L 428.79024 304.505973 
L 428.80698 304.505973 
L 428.89068 306.152987 
L 428.90742 304.505973 
L 429.00786 304.505973 
L 429.07482 306.152987 
L 429.04134 302.85896 
L 429.1083 304.505973 
L 429.12504 304.505973 
L 429.22548 306.152987 
L 429.34266 304.505973 
L 429.3594 306.152987 
L 429.47658 120.035509 
L 429.51006 189.212057 
L 429.6942 294.623893 
L 429.71094 294.623893 
L 429.91182 304.505973 
L 430.21314 304.505973 
L 430.22988 307.8 
L 430.31358 304.505973 
L 430.33032 302.85896 
L 430.34706 306.152987 
L 430.41402 304.505973 
L 430.54794 304.505973 
L 430.56468 306.152987 
L 430.64838 304.505973 
L 430.88274 304.505973 
L 430.89948 306.152987 
L 430.98318 304.505973 
L 431.05014 304.505973 
L 431.06688 306.152987 
L 431.15058 304.505973 
L 431.2008 304.505973 
L 431.21754 306.152987 
L 431.25102 302.85896 
L 431.30124 304.505973 
L 431.31798 304.505973 
L 431.40168 306.152987 
L 431.41842 304.505973 
L 431.5356 304.505973 
L 431.56908 306.152987 
L 431.63604 304.505973 
L 431.703 304.505973 
L 431.73648 306.152987 
L 431.80344 304.505973 
L 431.8704 304.505973 
L 431.90388 306.152987 
L 431.92062 302.85896 
L 431.93736 297.91792 
L 432.0378 116.741482 
L 432.07128 171.093916 
L 432.25542 292.97688 
L 432.27216 292.97688 
L 432.43956 304.505973 
L 432.80784 304.505973 
L 432.82458 302.85896 
L 432.84132 306.152987 
L 432.89154 306.152987 
L 432.90828 306.152987 
L 433.02546 304.505973 
L 433.0422 304.505973 
L 433.07568 306.152987 
L 433.14264 304.505973 
L 433.17612 304.505973 
L 433.24308 306.152987 
L 433.27656 304.505973 
L 433.39374 304.505973 
L 433.41048 307.8 
L 433.49418 302.85896 
L 433.57788 306.152987 
L 433.61136 304.505973 
L 433.67832 304.505973 
L 433.74528 306.152987 
L 433.77876 304.505973 
L 433.7955 302.85896 
L 433.81224 306.152987 
L 433.86246 306.152987 
L 433.91268 306.152987 
L 434.01312 304.505973 
L 434.08008 306.152987 
L 434.11356 304.505973 
L 434.14704 304.505973 
L 434.18052 302.85896 
L 434.24748 306.152987 
L 434.36466 304.505973 
L 434.3814 304.505973 
L 434.49858 306.152987 
L 434.61576 115.094469 
L 434.66598 205.68219 
L 434.85012 294.623893 
L 435.051 304.505973 
L 435.33558 304.505973 
L 435.35232 302.85896 
L 435.36906 306.152987 
L 435.43602 304.505973 
L 435.68712 304.505973 
L 435.75408 306.152987 
L 435.78756 304.505973 
L 435.82104 304.505973 
L 435.92148 306.152987 
L 436.03866 304.505973 
L 436.0554 304.505973 
L 436.07214 306.152987 
L 436.15584 304.505973 
L 436.33998 304.505973 
L 436.35672 302.85896 
L 436.37346 306.152987 
L 436.44042 304.505973 
L 436.49064 304.505973 
L 436.5576 306.152987 
L 436.59108 304.505973 
L 436.70826 304.505973 
L 436.74174 306.152987 
L 436.8087 304.505973 
L 436.82544 304.505973 
L 436.84218 307.8 
L 436.92588 302.85896 
L 437.04306 306.152987 
L 437.0598 302.85896 
L 437.07654 304.505973 
L 437.17698 123.329535 
L 437.21046 164.505863 
L 437.3946 292.97688 
L 437.41134 292.97688 
L 437.57874 304.505973 
L 437.8968 304.505973 
L 437.91354 306.152987 
L 437.99724 304.505973 
L 438.01398 304.505973 
L 438.08094 306.152987 
L 438.11442 304.505973 
L 438.1479 304.505973 
L 438.24834 306.152987 
L 438.36552 304.505973 
L 438.41574 306.152987 
L 438.46596 304.505973 
L 438.51618 304.505973 
L 438.58314 306.152987 
L 438.5664 302.85896 
L 438.61662 304.505973 
L 438.70032 304.505973 
L 438.7338 306.152987 
L 438.80076 304.505973 
L 438.8175 304.505973 
L 438.91794 306.152987 
L 439.03512 304.505973 
L 439.0686 304.505973 
L 439.18578 306.152987 
L 439.25274 306.152987 
L 439.33644 304.505973 
L 439.35318 306.152987 
L 439.42014 306.152987 
L 439.53732 304.505973 
L 439.63776 306.152987 
L 439.68798 222.153318 
L 439.77168 276.505752 
L 439.93908 302.85896 
L 439.97256 302.85896 
L 440.08974 304.505973 
L 440.19018 304.505973 
L 440.2404 306.152987 
L 440.27388 302.85896 
L 440.29062 304.505973 
L 440.30736 271.564712 
L 440.39106 296.270907 
L 440.42454 296.270907 
L 440.55846 304.505973 
L 440.67564 304.505973 
L 440.69238 302.85896 
L 440.70912 306.152987 
L 440.77608 304.505973 
L 440.80956 304.505973 
L 440.92674 306.152987 
L 441.02718 304.505973 
L 441.09414 306.152987 
L 441.12762 304.505973 
L 441.1611 304.505973 
L 441.2448 306.152987 
L 441.27828 260.035619 
L 441.37872 291.329867 
L 441.39546 291.329867 
L 441.59634 301.211947 
L 441.61308 297.91792 
L 441.69678 301.211947 
L 449.63154 301.211947 
L 449.66502 253.447566 
L 449.8659 68.976107 
L 449.88264 72.270133 
L 450.10026 197.447124 
L 450.2844 289.682853 
L 450.46854 297.91792 
L 450.50202 297.91792 
L 450.6192 301.211947 
L 458.01828 301.211947 
L 458.25264 67.329093 
L 458.38656 87.094248 
L 458.43678 108.506415 
L 458.60418 279.800774 
L 458.80506 297.91792 
L 458.85528 297.91792 
L 458.97246 301.211947 
L 466.38828 301.211947 
L 466.40502 302.85896 
L 466.63938 68.976107 
L 466.65612 77.212168 
L 466.82352 124.976549 
L 467.00766 283.0948 
L 467.1918 297.91792 
L 467.24202 297.91792 
L 467.3592 301.211947 
L 474.75828 301.211947 
L 474.77502 297.91792 
L 474.79176 301.211947 
L 475.00938 67.329093 
L 475.21026 139.799668 
L 475.3944 284.741814 
L 475.52832 296.270907 
L 475.54506 296.270907 
L 475.69572 301.211947 
L 483.16176 301.211947 
L 483.19524 253.447566 
L 483.39612 67.329093 
L 483.597 148.03573 
L 483.78114 286.388827 
L 484.03224 301.211947 
L 491.5485 301.211947 
L 491.76612 67.329093 
L 491.83308 83.800221 
L 491.90004 83.800221 
L 491.95026 95.329314 
L 492.00048 172.740929 
L 492.18462 289.682853 
L 492.20136 289.682853 
L 492.35202 297.91792 
L 492.36876 297.91792 
L 492.3855 302.85896 
L 492.48594 301.211947 
L 499.93524 301.211947 
L 500.15286 67.329093 
L 500.35374 115.094469 
L 500.52114 281.447787 
L 500.78898 297.91792 
L 500.80572 297.91792 
L 500.9229 301.211947 
L 508.30524 301.211947 
L 508.33872 253.447566 
L 508.5396 67.329093 
L 508.77396 195.800111 
L 508.9581 291.329867 
L 508.99158 291.329867 
L 509.1255 297.91792 
L 509.17572 297.91792 
L 509.2929 301.211947 
L 516.69198 301.211947 
L 516.92634 67.329093 
L 517.04352 83.800221 
L 517.11048 118.388495 
L 517.29462 283.0948 
L 517.44528 297.91792 
L 517.51224 297.91792 
L 517.62942 301.211947 
L 525.06198 301.211947 
L 525.07872 302.85896 
L 525.31308 68.976107 
L 525.88224 297.91792 
L 525.99942 301.211947 
L 533.46546 301.211947 
L 533.68308 67.329093 
L 533.88396 124.976549 
L 534.0681 284.741814 
L 534.2355 297.91792 
L 534.26898 297.91792 
L 534.38616 301.211947 
L 541.83546 301.211947 
L 541.8522 296.270907 
L 542.05308 68.976107 
L 542.06982 67.329093 
L 542.08656 72.270133 
L 542.23722 93.682301 
L 542.25396 95.329314 
L 542.45484 284.741814 
L 542.62224 297.91792 
L 542.65572 297.91792 
L 542.7729 301.211947 
L 550.2222 301.211947 
L 550.45656 67.329093 
L 550.59048 85.447234 
L 550.6407 101.917368 
L 550.82484 281.447787 
L 551.00898 297.91792 
L 551.07594 297.91792 
L 551.19312 301.211947 
L 558.5922 301.211947 
L 558.60894 302.85896 
L 558.82656 65.68208 
L 558.86004 77.212168 
L 559.02744 106.858407 
L 559.21158 284.741814 
L 559.22832 284.741814 
L 559.37898 297.91792 
L 559.44594 297.91792 
L 559.56312 301.211947 
L 566.97894 301.211947 
L 566.99568 302.85896 
L 567.2133 67.329093 
L 567.3807 93.682301 
L 567.39744 95.329314 
L 567.66528 292.97688 
L 567.84942 301.211947 
L 575.36568 301.211947 
L 575.38242 297.91792 
L 575.5833 68.976107 
L 575.60004 68.976107 
L 575.80092 126.623562 
L 575.98506 286.388827 
L 576.0018 286.388827 
L 576.13572 297.91792 
L 576.18594 297.91792 
L 576.30312 301.211947 
L 583.21674 301.211947 
L 583.21674 301.211947 
" clip-path="url(#p25ce4af02d)" style="fill: none; stroke: #1f77b4; stroke-width: 1.5; stroke-linecap: square"/>
   </g>
   <g id="patch_3">
    <path d="M 81 320.4 
L 81 43.2 
" style="fill: none; stroke: #000000; stroke-width: 0.8; stroke-linejoin: miter; stroke-linecap: square"/>
   </g>
   <g id="patch_4">
    <path d="M 583.2 320.4 
L 583.2 43.2 
" style="fill: none; stroke: #000000; stroke-width: 0.8; stroke-linejoin: miter; stroke-linecap: square"/>
   </g>
   <g id="patch_5">
    <path d="M 81 320.4 
L 583.2 320.4 
" style="fill: none; stroke: #000000; stroke-width: 0.8; stroke-linejoin: miter; stroke-linecap: square"/>
   </g>
   <g id="patch_6">
    <path d="M 81 43.2 
L 583.2 43.2 
" style="fill: none; stroke: #000000; stroke-width: 0.8; stroke-linejoin: miter; stroke-linecap: square"/>
   </g>
   <g id="text_18">
    <!-- Instant power consumption of the MCU -->
    <g transform="translate(214.903125 37.2) scale(0.12 -0.12)">
     <defs>
      <path id="DejaVuSans-49" d="M 628 4666 
L 1259 4666 
L 1259 0 
L 628 0 
L 628 4666 
z
" transform="scale(0.015625)"/>
      <path id="DejaVuSans-6e" d="M 3513 2113 
L 3513 0 
L 2938 0 
L 2938 2094 
Q 2938 2591 2744 2837 
Q 2550 3084 2163 3084 
Q 1697 3084 1428 2787 
Q 1159 2491 1159 1978 
L 1159 0 
L 581 0 
L 581 3500 
L 1159 3500 
L 1159 2956 
Q 1366 3272 1645 3428 
Q 1925 3584 2291 3584 
Q 2894 3584 3203 3211 
Q 3513 2838 3513 2113 
z
" transform="scale(0.015625)"/>
      <path id="DejaVuSans-74" d="M 1172 4494 
L 1172 3500 
L 2356 3500 
L 2356 3053 
L 1172 3053 
L 1172 1153 
Q 1172 725 1289 603 
Q 1406 481 1766 481 
L 2356 481 
L 2356 0 
L 1766 0 
Q 1100 0 847 248 
Q 594 497 594 1153 
L 594 3053 
L 172 3053 
L 172 3500 
L 594 3500 
L 594 4494 
L 1172 4494 
z
" transform="scale(0.015625)"/>
      <path id="DejaVuSans-61" d="M 2194 1759 
Q 1497 1759 1228 1600 
Q 959 1441 959 1056 
Q 959 750 1161 570 
Q 1363 391 1709 391 
Q 2188 391 2477 730 
Q 2766 1069 2766 1631 
L 2766 1759 
L 2194 1759 
z
M 3341 1997 
L 3341 0 
L 2766 0 
L 2766 531 
Q 2569 213 2275 61 
Q 1981 -91 1556 -91 
Q 1019 -91 701 211 
Q 384 513 384 1019 
Q 384 1609 779 1909 
Q 1175 2209 1959 2209 
L 2766 2209 
L 2766 2266 
Q 2766 2663 2505 2880 
Q 2244 3097 1772 3097 
Q 1472 3097 1187 3025 
Q 903 2953 641 2809 
L 641 3341 
Q 956 3463 1253 3523 
Q 1550 3584 1831 3584 
Q 2591 3584 2966 3190 
Q 3341 2797 3341 1997 
z
" transform="scale(0.015625)"/>
      <path id="DejaVuSans-70" d="M 1159 525 
L 1159 -1331 
L 581 -1331 
L 581 3500 
L 1159 3500 
L 1159 2969 
Q 1341 3281 1617 3432 
Q 1894 3584 2278 3584 
Q 2916 3584 3314 3078 
Q 3713 2572 3713 1747 
Q 3713 922 3314 415 
Q 2916 -91 2278 -91 
Q 1894 -91 1617 61 
Q 1341 213 1159 525 
z
M 3116 1747 
Q 3116 2381 2855 2742 
Q 2594 3103 2138 3103 
Q 1681 3103 1420 2742 
Q 1159 2381 1159 1747 
Q 1159 1113 1420 752 
Q 1681 391 2138 391 
Q 2594 391 2855 752 
Q 3116 1113 3116 1747 
z
" transform="scale(0.015625)"/>
      <path id="DejaVuSans-63" d="M 3122 3366 
L 3122 2828 
Q 2878 2963 2633 3030 
Q 2388 3097 2138 3097 
Q 1578 3097 1268 2742 
Q 959 2388 959 1747 
Q 959 1106 1268 751 
Q 1578 397 2138 397 
Q 2388 397 2633 464 
Q 2878 531 3122 666 
L 3122 134 
Q 2881 22 2623 -34 
Q 2366 -91 2075 -91 
Q 1284 -91 818 406 
Q 353 903 353 1747 
Q 353 2603 823 3093 
Q 1294 3584 2113 3584 
Q 2378 3584 2631 3529 
Q 2884 3475 3122 3366 
z
" transform="scale(0.015625)"/>
      <path id="DejaVuSans-75" d="M 544 1381 
L 544 3500 
L 1119 3500 
L 1119 1403 
Q 1119 906 1312 657 
Q 1506 409 1894 409 
Q 2359 409 2629 706 
Q 2900 1003 2900 1516 
L 2900 3500 
L 3475 3500 
L 3475 0 
L 2900 0 
L 2900 538 
Q 2691 219 2414 64 
Q 2138 -91 1772 -91 
Q 1169 -91 856 284 
Q 544 659 544 1381 
z
M 1991 3584 
L 1991 3584 
z
" transform="scale(0.015625)"/>
      <path id="DejaVuSans-66" d="M 2375 4863 
L 2375 4384 
L 1825 4384 
Q 1516 4384 1395 4259 
Q 1275 4134 1275 3809 
L 1275 3500 
L 2222 3500 
L 2222 3053 
L 1275 3053 
L 1275 0 
L 697 0 
L 697 3053 
L 147 3053 
L 147 3500 
L 697 3500 
L 697 3744 
Q 697 4328 969 4595 
Q 1241 4863 1831 4863 
L 2375 4863 
z
" transform="scale(0.015625)"/>
      <path id="DejaVuSans-68" d="M 3513 2113 
L 3513 0 
L 2938 0 
L 2938 2094 
Q 2938 2591 2744 2837 
Q 2550 3084 2163 3084 
Q 1697 3084 1428 2787 
Q 1159 2491 1159 1978 
L 1159 0 
L 581 0 
L 581 4863 
L 1159 4863 
L 1159 2956 
Q 1366 3272 1645 3428 
Q 1925 3584 2291 3584 
Q 2894 3584 3203 3211 
Q 3513 2838 3513 2113 
z
" transform="scale(0.015625)"/>
      <path id="DejaVuSans-4d" d="M 628 4666 
L 1569 4666 
L 2759 1491 
L 3956 4666 
L 4897 4666 
L 4897 0 
L 4281 0 
L 4281 4097 
L 3078 897 
L 2444 897 
L 1241 4097 
L 1241 0 
L 628 0 
L 628 4666 
z
" transform="scale(0.015625)"/>
      <path id="DejaVuSans-43" d="M 4122 4306 
L 4122 3641 
Q 3803 3938 3442 4084 
Q 3081 4231 2675 4231 
Q 1875 4231 1450 3742 
Q 1025 3253 1025 2328 
Q 1025 1406 1450 917 
Q 1875 428 2675 428 
Q 3081 428 3442 575 
Q 3803 722 4122 1019 
L 4122 359 
Q 3791 134 3420 21 
Q 3050 -91 2638 -91 
Q 1578 -91 968 557 
Q 359 1206 359 2328 
Q 359 3453 968 4101 
Q 1578 4750 2638 4750 
Q 3056 4750 3426 4639 
Q 3797 4528 4122 4306 
z
" transform="scale(0.015625)"/>
      <path id="DejaVuSans-55" d="M 556 4666 
L 1191 4666 
L 1191 1831 
Q 1191 1081 1462 751 
Q 1734 422 2344 422 
Q 2950 422 3222 751 
Q 3494 1081 3494 1831 
L 3494 4666 
L 4128 4666 
L 4128 1753 
Q 4128 841 3676 375 
Q 3225 -91 2344 -91 
Q 1459 -91 1007 375 
Q 556 841 556 1753 
L 556 4666 
z
" transform="scale(0.015625)"/>
     </defs>
     <use xlink:href="#DejaVuSans-49"/>
     <use xlink:href="#DejaVuSans-6e" x="29.492188"/>
     <use xlink:href="#DejaVuSans-73" x="92.871094"/>
     <use xlink:href="#DejaVuSans-74" x="144.970703"/>
     <use xlink:href="#DejaVuSans-61" x="184.179688"/>
     <use xlink:href="#DejaVuSans-6e" x="245.458984"/>
     <use xlink:href="#DejaVuSans-74" x="308.837891"/>
     <use xlink:href="#DejaVuSans-20" x="348.046875"/>
     <use xlink:href="#DejaVuSans-70" x="379.833984"/>
     <use xlink:href="#DejaVuSans-6f" x="443.310547"/>
     <use xlink:href="#DejaVuSans-77" x="504.492188"/>
     <use xlink:href="#DejaVuSans-65" x="586.279297"/>
     <use xlink:href="#DejaVuSans-72" x="647.802734"/>
     <use xlink:href="#DejaVuSans-20" x="688.916016"/>
     <use xlink:href="#DejaVuSans-63" x="720.703125"/>
     <use xlink:href="#DejaVuSans-6f" x="775.683594"/>
     <use xlink:href="#DejaVuSans-6e" x="836.865234"/>
     <use xlink:href="#DejaVuSans-73" x="900.244141"/>
     <use xlink:href="#DejaVuSans-75" x="952.34375"/>
     <use xlink:href="#DejaVuSans-6d" x="1015.722656"/>
     <use xlink:href="#DejaVuSans-70" x="1113.134766"/>
     <use xlink:href="#DejaVuSans-74" x="1176.611328"/>
     <use xlink:href="#DejaVuSans-69" x="1215.820312"/>
     <use xlink:href="#DejaVuSans-6f" x="1243.603516"/>
     <use xlink:href="#DejaVuSans-6e" x="1304.785156"/>
     <use xlink:href="#DejaVuSans-20" x="1368.164062"/>
     <use xlink:href="#DejaVuSans-6f" x="1399.951172"/>
     <use xlink:href="#DejaVuSans-66" x="1461.132812"/>
     <use xlink:href="#DejaVuSans-20" x="1496.337891"/>
     <use xlink:href="#DejaVuSans-74" x="1528.125"/>
     <use xlink:href="#DejaVuSans-68" x="1567.333984"/>
     <use xlink:href="#DejaVuSans-65" x="1630.712891"/>
     <use xlink:href="#DejaVuSans-20" x="1692.236328"/>
     <use xlink:href="#DejaVuSans-4d" x="1724.023438"/>
     <use xlink:href="#DejaVuSans-43" x="1810.302734"/>
     <use xlink:href="#DejaVuSans-55" x="1880.126953"/>
    </g>
   </g>
  </g>
 </g>
 <defs>
  <clipPath id="p25ce4af02d">
   <rect x="81" y="43.2" width="502.2" height="277.2"/>
  </clipPath>
 </defs>
</svg>
