<?xml version="1.0" encoding="utf-8" standalone="no"?>
<!DOCTYPE svg PUBLIC "-//W3C//DTD SVG 1.1//EN"
  "http://www.w3.org/Graphics/SVG/1.1/DTD/svg11.dtd">
<svg xmlns:xlink="http://www.w3.org/1999/xlink" width="648pt" height="360pt" viewBox="0 0 648 360" xmlns="http://www.w3.org/2000/svg" version="1.1">
 <metadata>
  <rdf:RDF xmlns:dc="http://purl.org/dc/elements/1.1/" xmlns:cc="http://creativecommons.org/ns#" xmlns:rdf="http://www.w3.org/1999/02/22-rdf-syntax-ns#">
   <cc:Work>
    <dc:type rdf:resource="http://purl.org/dc/dcmitype/StillImage"/>
    <dc:date>2024-10-13T15:53:06.697246</dc:date>
    <dc:format>image/svg+xml</dc:format>
    <dc:creator>
     <cc:Agent>
      <dc:title>Matplotlib v3.8.2, https://matplotlib.org/</dc:title>
     </cc:Agent>
    </dc:creator>
   </cc:Work>
  </rdf:RDF>
 </metadata>
 <defs>
  <style type="text/css">*{stroke-linejoin: round; stroke-linecap: butt}</style>
 </defs>
 <g id="figure_1">
  <g id="patch_1">
   <path d="M 0 360 
L 648 360 
L 648 0 
L 0 0 
z
" style="fill: #ffffff"/>
  </g>
  <g id="axes_1">
   <g id="patch_2">
    <path d="M 81 320.4 
L 583.2 320.4 
L 583.2 43.2 
L 81 43.2 
z
" style="fill: #ffffff"/>
   </g>
   <g id="matplotlib.axis_1">
    <g id="xtick_1">
     <g id="line2d_1">
      <defs>
       <path id="m70dc1c2c80" d="M 0 0 
L 0 3.5 
" style="stroke: #000000; stroke-width: 0.8"/>
      </defs>
      <g>
       <use xlink:href="#m70dc1c2c80" x="103.827273" y="320.4" style="stroke: #000000; stroke-width: 0.8"/>
      </g>
     </g>
     <g id="text_1">
      <!-- 0 -->
      <g transform="translate(100.646023 334.998438) scale(0.1 -0.1)">
       <defs>
        <path id="DejaVuSans-30" d="M 2034 4250 
Q 1547 4250 1301 3770 
Q 1056 3291 1056 2328 
Q 1056 1369 1301 889 
Q 1547 409 2034 409 
Q 2525 409 2770 889 
Q 3016 1369 3016 2328 
Q 3016 3291 2770 3770 
Q 2525 4250 2034 4250 
z
M 2034 4750 
Q 2819 4750 3233 4129 
Q 3647 3509 3647 2328 
Q 3647 1150 3233 529 
Q 2819 -91 2034 -91 
Q 1250 -91 836 529 
Q 422 1150 422 2328 
Q 422 3509 836 4129 
Q 1250 4750 2034 4750 
z
" transform="scale(0.015625)"/>
       </defs>
       <use xlink:href="#DejaVuSans-30"/>
      </g>
     </g>
    </g>
    <g id="xtick_2">
     <g id="line2d_2">
      <g>
       <use xlink:href="#m70dc1c2c80" x="160.899022" y="320.4" style="stroke: #000000; stroke-width: 0.8"/>
      </g>
     </g>
     <g id="text_2">
      <!-- 2 -->
      <g transform="translate(157.717772 334.998438) scale(0.1 -0.1)">
       <defs>
        <path id="DejaVuSans-32" d="M 1228 531 
L 3431 531 
L 3431 0 
L 469 0 
L 469 531 
Q 828 903 1448 1529 
Q 2069 2156 2228 2338 
Q 2531 2678 2651 2914 
Q 2772 3150 2772 3378 
Q 2772 3750 2511 3984 
Q 2250 4219 1831 4219 
Q 1534 4219 1204 4116 
Q 875 4013 500 3803 
L 500 4441 
Q 881 4594 1212 4672 
Q 1544 4750 1819 4750 
Q 2544 4750 2975 4387 
Q 3406 4025 3406 3419 
Q 3406 3131 3298 2873 
Q 3191 2616 2906 2266 
Q 2828 2175 2409 1742 
Q 1991 1309 1228 531 
z
" transform="scale(0.015625)"/>
       </defs>
       <use xlink:href="#DejaVuSans-32"/>
      </g>
     </g>
    </g>
    <g id="xtick_3">
     <g id="line2d_3">
      <g>
       <use xlink:href="#m70dc1c2c80" x="217.97077" y="320.4" style="stroke: #000000; stroke-width: 0.8"/>
      </g>
     </g>
     <g id="text_3">
      <!-- 4 -->
      <g transform="translate(214.78952 334.998438) scale(0.1 -0.1)">
       <defs>
        <path id="DejaVuSans-34" d="M 2419 4116 
L 825 1625 
L 2419 1625 
L 2419 4116 
z
M 2253 4666 
L 3047 4666 
L 3047 1625 
L 3713 1625 
L 3713 1100 
L 3047 1100 
L 3047 0 
L 2419 0 
L 2419 1100 
L 313 1100 
L 313 1709 
L 2253 4666 
z
" transform="scale(0.015625)"/>
       </defs>
       <use xlink:href="#DejaVuSans-34"/>
      </g>
     </g>
    </g>
    <g id="xtick_4">
     <g id="line2d_4">
      <g>
       <use xlink:href="#m70dc1c2c80" x="275.042519" y="320.4" style="stroke: #000000; stroke-width: 0.8"/>
      </g>
     </g>
     <g id="text_4">
      <!-- 6 -->
      <g transform="translate(271.861269 334.998438) scale(0.1 -0.1)">
       <defs>
        <path id="DejaVuSans-36" d="M 2113 2584 
Q 1688 2584 1439 2293 
Q 1191 2003 1191 1497 
Q 1191 994 1439 701 
Q 1688 409 2113 409 
Q 2538 409 2786 701 
Q 3034 994 3034 1497 
Q 3034 2003 2786 2293 
Q 2538 2584 2113 2584 
z
M 3366 4563 
L 3366 3988 
Q 3128 4100 2886 4159 
Q 2644 4219 2406 4219 
Q 1781 4219 1451 3797 
Q 1122 3375 1075 2522 
Q 1259 2794 1537 2939 
Q 1816 3084 2150 3084 
Q 2853 3084 3261 2657 
Q 3669 2231 3669 1497 
Q 3669 778 3244 343 
Q 2819 -91 2113 -91 
Q 1303 -91 875 529 
Q 447 1150 447 2328 
Q 447 3434 972 4092 
Q 1497 4750 2381 4750 
Q 2619 4750 2861 4703 
Q 3103 4656 3366 4563 
z
" transform="scale(0.015625)"/>
       </defs>
       <use xlink:href="#DejaVuSans-36"/>
      </g>
     </g>
    </g>
    <g id="xtick_5">
     <g id="line2d_5">
      <g>
       <use xlink:href="#m70dc1c2c80" x="332.114268" y="320.4" style="stroke: #000000; stroke-width: 0.8"/>
      </g>
     </g>
     <g id="text_5">
      <!-- 8 -->
      <g transform="translate(328.933018 334.998438) scale(0.1 -0.1)">
       <defs>
        <path id="DejaVuSans-38" d="M 2034 2216 
Q 1584 2216 1326 1975 
Q 1069 1734 1069 1313 
Q 1069 891 1326 650 
Q 1584 409 2034 409 
Q 2484 409 2743 651 
Q 3003 894 3003 1313 
Q 3003 1734 2745 1975 
Q 2488 2216 2034 2216 
z
M 1403 2484 
Q 997 2584 770 2862 
Q 544 3141 544 3541 
Q 544 4100 942 4425 
Q 1341 4750 2034 4750 
Q 2731 4750 3128 4425 
Q 3525 4100 3525 3541 
Q 3525 3141 3298 2862 
Q 3072 2584 2669 2484 
Q 3125 2378 3379 2068 
Q 3634 1759 3634 1313 
Q 3634 634 3220 271 
Q 2806 -91 2034 -91 
Q 1263 -91 848 271 
Q 434 634 434 1313 
Q 434 1759 690 2068 
Q 947 2378 1403 2484 
z
M 1172 3481 
Q 1172 3119 1398 2916 
Q 1625 2713 2034 2713 
Q 2441 2713 2670 2916 
Q 2900 3119 2900 3481 
Q 2900 3844 2670 4047 
Q 2441 4250 2034 4250 
Q 1625 4250 1398 4047 
Q 1172 3844 1172 3481 
z
" transform="scale(0.015625)"/>
       </defs>
       <use xlink:href="#DejaVuSans-38"/>
      </g>
     </g>
    </g>
    <g id="xtick_6">
     <g id="line2d_6">
      <g>
       <use xlink:href="#m70dc1c2c80" x="389.186017" y="320.4" style="stroke: #000000; stroke-width: 0.8"/>
      </g>
     </g>
     <g id="text_6">
      <!-- 10 -->
      <g transform="translate(382.823517 334.998438) scale(0.1 -0.1)">
       <defs>
        <path id="DejaVuSans-31" d="M 794 531 
L 1825 531 
L 1825 4091 
L 703 3866 
L 703 4441 
L 1819 4666 
L 2450 4666 
L 2450 531 
L 3481 531 
L 3481 0 
L 794 0 
L 794 531 
z
" transform="scale(0.015625)"/>
       </defs>
       <use xlink:href="#DejaVuSans-31"/>
       <use xlink:href="#DejaVuSans-30" x="63.623047"/>
      </g>
     </g>
    </g>
    <g id="xtick_7">
     <g id="line2d_7">
      <g>
       <use xlink:href="#m70dc1c2c80" x="446.257766" y="320.4" style="stroke: #000000; stroke-width: 0.8"/>
      </g>
     </g>
     <g id="text_7">
      <!-- 12 -->
      <g transform="translate(439.895266 334.998438) scale(0.1 -0.1)">
       <use xlink:href="#DejaVuSans-31"/>
       <use xlink:href="#DejaVuSans-32" x="63.623047"/>
      </g>
     </g>
    </g>
    <g id="xtick_8">
     <g id="line2d_8">
      <g>
       <use xlink:href="#m70dc1c2c80" x="503.329514" y="320.4" style="stroke: #000000; stroke-width: 0.8"/>
      </g>
     </g>
     <g id="text_8">
      <!-- 14 -->
      <g transform="translate(496.967014 334.998438) scale(0.1 -0.1)">
       <use xlink:href="#DejaVuSans-31"/>
       <use xlink:href="#DejaVuSans-34" x="63.623047"/>
      </g>
     </g>
    </g>
    <g id="xtick_9">
     <g id="line2d_9">
      <g>
       <use xlink:href="#m70dc1c2c80" x="560.401263" y="320.4" style="stroke: #000000; stroke-width: 0.8"/>
      </g>
     </g>
     <g id="text_9">
      <!-- 16 -->
      <g transform="translate(554.038763 334.998438) scale(0.1 -0.1)">
       <use xlink:href="#DejaVuSans-31"/>
       <use xlink:href="#DejaVuSans-36" x="63.623047"/>
      </g>
     </g>
    </g>
    <g id="text_10">
     <!-- Time [s] -->
     <g transform="translate(311.771094 348.676562) scale(0.1 -0.1)">
      <defs>
       <path id="DejaVuSans-54" d="M -19 4666 
L 3928 4666 
L 3928 4134 
L 2272 4134 
L 2272 0 
L 1638 0 
L 1638 4134 
L -19 4134 
L -19 4666 
z
" transform="scale(0.015625)"/>
       <path id="DejaVuSans-69" d="M 603 3500 
L 1178 3500 
L 1178 0 
L 603 0 
L 603 3500 
z
M 603 4863 
L 1178 4863 
L 1178 4134 
L 603 4134 
L 603 4863 
z
" transform="scale(0.015625)"/>
       <path id="DejaVuSans-6d" d="M 3328 2828 
Q 3544 3216 3844 3400 
Q 4144 3584 4550 3584 
Q 5097 3584 5394 3201 
Q 5691 2819 5691 2113 
L 5691 0 
L 5113 0 
L 5113 2094 
Q 5113 2597 4934 2840 
Q 4756 3084 4391 3084 
Q 3944 3084 3684 2787 
Q 3425 2491 3425 1978 
L 3425 0 
L 2847 0 
L 2847 2094 
Q 2847 2600 2669 2842 
Q 2491 3084 2119 3084 
Q 1678 3084 1418 2786 
Q 1159 2488 1159 1978 
L 1159 0 
L 581 0 
L 581 3500 
L 1159 3500 
L 1159 2956 
Q 1356 3278 1631 3431 
Q 1906 3584 2284 3584 
Q 2666 3584 2933 3390 
Q 3200 3197 3328 2828 
z
" transform="scale(0.015625)"/>
       <path id="DejaVuSans-65" d="M 3597 1894 
L 3597 1613 
L 953 1613 
Q 991 1019 1311 708 
Q 1631 397 2203 397 
Q 2534 397 2845 478 
Q 3156 559 3463 722 
L 3463 178 
Q 3153 47 2828 -22 
Q 2503 -91 2169 -91 
Q 1331 -91 842 396 
Q 353 884 353 1716 
Q 353 2575 817 3079 
Q 1281 3584 2069 3584 
Q 2775 3584 3186 3129 
Q 3597 2675 3597 1894 
z
M 3022 2063 
Q 3016 2534 2758 2815 
Q 2500 3097 2075 3097 
Q 1594 3097 1305 2825 
Q 1016 2553 972 2059 
L 3022 2063 
z
" transform="scale(0.015625)"/>
       <path id="DejaVuSans-20" transform="scale(0.015625)"/>
       <path id="DejaVuSans-5b" d="M 550 4863 
L 1875 4863 
L 1875 4416 
L 1125 4416 
L 1125 -397 
L 1875 -397 
L 1875 -844 
L 550 -844 
L 550 4863 
z
" transform="scale(0.015625)"/>
       <path id="DejaVuSans-73" d="M 2834 3397 
L 2834 2853 
Q 2591 2978 2328 3040 
Q 2066 3103 1784 3103 
Q 1356 3103 1142 2972 
Q 928 2841 928 2578 
Q 928 2378 1081 2264 
Q 1234 2150 1697 2047 
L 1894 2003 
Q 2506 1872 2764 1633 
Q 3022 1394 3022 966 
Q 3022 478 2636 193 
Q 2250 -91 1575 -91 
Q 1294 -91 989 -36 
Q 684 19 347 128 
L 347 722 
Q 666 556 975 473 
Q 1284 391 1588 391 
Q 1994 391 2212 530 
Q 2431 669 2431 922 
Q 2431 1156 2273 1281 
Q 2116 1406 1581 1522 
L 1381 1569 
Q 847 1681 609 1914 
Q 372 2147 372 2553 
Q 372 3047 722 3315 
Q 1072 3584 1716 3584 
Q 2034 3584 2315 3537 
Q 2597 3491 2834 3397 
z
" transform="scale(0.015625)"/>
       <path id="DejaVuSans-5d" d="M 1947 4863 
L 1947 -844 
L 622 -844 
L 622 -397 
L 1369 -397 
L 1369 4416 
L 622 4416 
L 622 4863 
L 1947 4863 
z
" transform="scale(0.015625)"/>
      </defs>
      <use xlink:href="#DejaVuSans-54"/>
      <use xlink:href="#DejaVuSans-69" x="57.958984"/>
      <use xlink:href="#DejaVuSans-6d" x="85.742188"/>
      <use xlink:href="#DejaVuSans-65" x="183.154297"/>
      <use xlink:href="#DejaVuSans-20" x="244.677734"/>
      <use xlink:href="#DejaVuSans-5b" x="276.464844"/>
      <use xlink:href="#DejaVuSans-73" x="315.478516"/>
      <use xlink:href="#DejaVuSans-5d" x="367.578125"/>
     </g>
    </g>
   </g>
   <g id="matplotlib.axis_2">
    <g id="ytick_1">
     <g id="line2d_10">
      <defs>
       <path id="mabcee65630" d="M 0 0 
L -3.5 0 
" style="stroke: #000000; stroke-width: 0.8"/>
      </defs>
      <g>
       <use xlink:href="#mabcee65630" x="81" y="320.4" style="stroke: #000000; stroke-width: 0.8"/>
      </g>
     </g>
     <g id="text_11">
      <!-- 0.0 -->
      <g transform="translate(58.096875 324.199219) scale(0.1 -0.1)">
       <defs>
        <path id="DejaVuSans-2e" d="M 684 794 
L 1344 794 
L 1344 0 
L 684 0 
L 684 794 
z
" transform="scale(0.015625)"/>
       </defs>
       <use xlink:href="#DejaVuSans-30"/>
       <use xlink:href="#DejaVuSans-2e" x="63.623047"/>
       <use xlink:href="#DejaVuSans-30" x="95.410156"/>
      </g>
     </g>
    </g>
    <g id="ytick_2">
     <g id="line2d_11">
      <g>
       <use xlink:href="#mabcee65630" x="81" y="285.75" style="stroke: #000000; stroke-width: 0.8"/>
      </g>
     </g>
     <g id="text_12">
      <!-- 2.5 -->
      <g transform="translate(58.096875 289.549219) scale(0.1 -0.1)">
       <defs>
        <path id="DejaVuSans-35" d="M 691 4666 
L 3169 4666 
L 3169 4134 
L 1269 4134 
L 1269 2991 
Q 1406 3038 1543 3061 
Q 1681 3084 1819 3084 
Q 2600 3084 3056 2656 
Q 3513 2228 3513 1497 
Q 3513 744 3044 326 
Q 2575 -91 1722 -91 
Q 1428 -91 1123 -41 
Q 819 9 494 109 
L 494 744 
Q 775 591 1075 516 
Q 1375 441 1709 441 
Q 2250 441 2565 725 
Q 2881 1009 2881 1497 
Q 2881 1984 2565 2268 
Q 2250 2553 1709 2553 
Q 1456 2553 1204 2497 
Q 953 2441 691 2322 
L 691 4666 
z
" transform="scale(0.015625)"/>
       </defs>
       <use xlink:href="#DejaVuSans-32"/>
       <use xlink:href="#DejaVuSans-2e" x="63.623047"/>
       <use xlink:href="#DejaVuSans-35" x="95.410156"/>
      </g>
     </g>
    </g>
    <g id="ytick_3">
     <g id="line2d_12">
      <g>
       <use xlink:href="#mabcee65630" x="81" y="251.1" style="stroke: #000000; stroke-width: 0.8"/>
      </g>
     </g>
     <g id="text_13">
      <!-- 5.0 -->
      <g transform="translate(58.096875 254.899219) scale(0.1 -0.1)">
       <use xlink:href="#DejaVuSans-35"/>
       <use xlink:href="#DejaVuSans-2e" x="63.623047"/>
       <use xlink:href="#DejaVuSans-30" x="95.410156"/>
      </g>
     </g>
    </g>
    <g id="ytick_4">
     <g id="line2d_13">
      <g>
       <use xlink:href="#mabcee65630" x="81" y="216.45" style="stroke: #000000; stroke-width: 0.8"/>
      </g>
     </g>
     <g id="text_14">
      <!-- 7.5 -->
      <g transform="translate(58.096875 220.249219) scale(0.1 -0.1)">
       <defs>
        <path id="DejaVuSans-37" d="M 525 4666 
L 3525 4666 
L 3525 4397 
L 1831 0 
L 1172 0 
L 2766 4134 
L 525 4134 
L 525 4666 
z
" transform="scale(0.015625)"/>
       </defs>
       <use xlink:href="#DejaVuSans-37"/>
       <use xlink:href="#DejaVuSans-2e" x="63.623047"/>
       <use xlink:href="#DejaVuSans-35" x="95.410156"/>
      </g>
     </g>
    </g>
    <g id="ytick_5">
     <g id="line2d_14">
      <g>
       <use xlink:href="#mabcee65630" x="81" y="181.8" style="stroke: #000000; stroke-width: 0.8"/>
      </g>
     </g>
     <g id="text_15">
      <!-- 10.0 -->
      <g transform="translate(51.734375 185.599219) scale(0.1 -0.1)">
       <use xlink:href="#DejaVuSans-31"/>
       <use xlink:href="#DejaVuSans-30" x="63.623047"/>
       <use xlink:href="#DejaVuSans-2e" x="127.246094"/>
       <use xlink:href="#DejaVuSans-30" x="159.033203"/>
      </g>
     </g>
    </g>
    <g id="ytick_6">
     <g id="line2d_15">
      <g>
       <use xlink:href="#mabcee65630" x="81" y="147.15" style="stroke: #000000; stroke-width: 0.8"/>
      </g>
     </g>
     <g id="text_16">
      <!-- 12.5 -->
      <g transform="translate(51.734375 150.949219) scale(0.1 -0.1)">
       <use xlink:href="#DejaVuSans-31"/>
       <use xlink:href="#DejaVuSans-32" x="63.623047"/>
       <use xlink:href="#DejaVuSans-2e" x="127.246094"/>
       <use xlink:href="#DejaVuSans-35" x="159.033203"/>
      </g>
     </g>
    </g>
    <g id="ytick_7">
     <g id="line2d_16">
      <g>
       <use xlink:href="#mabcee65630" x="81" y="112.5" style="stroke: #000000; stroke-width: 0.8"/>
      </g>
     </g>
     <g id="text_17">
      <!-- 15.0 -->
      <g transform="translate(51.734375 116.299219) scale(0.1 -0.1)">
       <use xlink:href="#DejaVuSans-31"/>
       <use xlink:href="#DejaVuSans-35" x="63.623047"/>
       <use xlink:href="#DejaVuSans-2e" x="127.246094"/>
       <use xlink:href="#DejaVuSans-30" x="159.033203"/>
      </g>
     </g>
    </g>
    <g id="ytick_8">
     <g id="line2d_17">
      <g>
       <use xlink:href="#mabcee65630" x="81" y="77.85" style="stroke: #000000; stroke-width: 0.8"/>
      </g>
     </g>
     <g id="text_18">
      <!-- 17.5 -->
      <g transform="translate(51.734375 81.649219) scale(0.1 -0.1)">
       <use xlink:href="#DejaVuSans-31"/>
       <use xlink:href="#DejaVuSans-37" x="63.623047"/>
       <use xlink:href="#DejaVuSans-2e" x="127.246094"/>
       <use xlink:href="#DejaVuSans-35" x="159.033203"/>
      </g>
     </g>
    </g>
    <g id="ytick_9">
     <g id="line2d_18">
      <g>
       <use xlink:href="#mabcee65630" x="81" y="43.2" style="stroke: #000000; stroke-width: 0.8"/>
      </g>
     </g>
     <g id="text_19">
      <!-- 20.0 -->
      <g transform="translate(51.734375 46.999219) scale(0.1 -0.1)">
       <use xlink:href="#DejaVuSans-32"/>
       <use xlink:href="#DejaVuSans-30" x="63.623047"/>
       <use xlink:href="#DejaVuSans-2e" x="127.246094"/>
       <use xlink:href="#DejaVuSans-30" x="159.033203"/>
      </g>
     </g>
    </g>
    <g id="text_20">
     <!-- Power [mW] -->
     <g transform="translate(45.654687 212.21875) rotate(-90) scale(0.1 -0.1)">
      <defs>
       <path id="DejaVuSans-50" d="M 1259 4147 
L 1259 2394 
L 2053 2394 
Q 2494 2394 2734 2622 
Q 2975 2850 2975 3272 
Q 2975 3691 2734 3919 
Q 2494 4147 2053 4147 
L 1259 4147 
z
M 628 4666 
L 2053 4666 
Q 2838 4666 3239 4311 
Q 3641 3956 3641 3272 
Q 3641 2581 3239 2228 
Q 2838 1875 2053 1875 
L 1259 1875 
L 1259 0 
L 628 0 
L 628 4666 
z
" transform="scale(0.015625)"/>
       <path id="DejaVuSans-6f" d="M 1959 3097 
Q 1497 3097 1228 2736 
Q 959 2375 959 1747 
Q 959 1119 1226 758 
Q 1494 397 1959 397 
Q 2419 397 2687 759 
Q 2956 1122 2956 1747 
Q 2956 2369 2687 2733 
Q 2419 3097 1959 3097 
z
M 1959 3584 
Q 2709 3584 3137 3096 
Q 3566 2609 3566 1747 
Q 3566 888 3137 398 
Q 2709 -91 1959 -91 
Q 1206 -91 779 398 
Q 353 888 353 1747 
Q 353 2609 779 3096 
Q 1206 3584 1959 3584 
z
" transform="scale(0.015625)"/>
       <path id="DejaVuSans-77" d="M 269 3500 
L 844 3500 
L 1563 769 
L 2278 3500 
L 2956 3500 
L 3675 769 
L 4391 3500 
L 4966 3500 
L 4050 0 
L 3372 0 
L 2619 2869 
L 1863 0 
L 1184 0 
L 269 3500 
z
" transform="scale(0.015625)"/>
       <path id="DejaVuSans-72" d="M 2631 2963 
Q 2534 3019 2420 3045 
Q 2306 3072 2169 3072 
Q 1681 3072 1420 2755 
Q 1159 2438 1159 1844 
L 1159 0 
L 581 0 
L 581 3500 
L 1159 3500 
L 1159 2956 
Q 1341 3275 1631 3429 
Q 1922 3584 2338 3584 
Q 2397 3584 2469 3576 
Q 2541 3569 2628 3553 
L 2631 2963 
z
" transform="scale(0.015625)"/>
       <path id="DejaVuSans-57" d="M 213 4666 
L 850 4666 
L 1831 722 
L 2809 4666 
L 3519 4666 
L 4500 722 
L 5478 4666 
L 6119 4666 
L 4947 0 
L 4153 0 
L 3169 4050 
L 2175 0 
L 1381 0 
L 213 4666 
z
" transform="scale(0.015625)"/>
      </defs>
      <use xlink:href="#DejaVuSans-50"/>
      <use xlink:href="#DejaVuSans-6f" x="56.677734"/>
      <use xlink:href="#DejaVuSans-77" x="117.859375"/>
      <use xlink:href="#DejaVuSans-65" x="199.646484"/>
      <use xlink:href="#DejaVuSans-72" x="261.169922"/>
      <use xlink:href="#DejaVuSans-20" x="302.283203"/>
      <use xlink:href="#DejaVuSans-5b" x="334.070312"/>
      <use xlink:href="#DejaVuSans-6d" x="373.083984"/>
      <use xlink:href="#DejaVuSans-57" x="470.496094"/>
      <use xlink:href="#DejaVuSans-5d" x="569.373047"/>
     </g>
    </g>
   </g>
   <g id="line2d_19">
    <path d="M 103.827273 217.009251 
L 118.837143 217.009251 
L 118.865679 218.600019 
L 119.008358 201.102489 
L 127.026939 201.102489 
L 127.055474 204.284025 
L 127.141082 202.693257 
L 146.688156 202.693257 
L 146.716692 204.284025 
L 146.745228 201.102489 
L 146.773764 202.693257 
L 174.567705 202.693257 
L 174.795992 62.717597 
L 175.081351 62.717597 
L 175.109887 57.946208 
L 175.166959 59.536061 
L 175.281102 62.717597 
L 175.309638 62.717597 
L 175.338174 59.536061 
L 175.395246 62.717597 
L 175.480853 62.717597 
L 175.509389 57.946208 
L 175.537925 64.308364 
L 175.652069 67.489899 
L 175.680604 67.489899 
L 175.70914 65.899132 
L 175.737676 69.080667 
L 175.766212 67.489899 
L 175.794748 69.080667 
L 175.85182 57.946208 
L 175.937427 59.536061 
L 176.793504 59.536061 
L 176.822039 57.946208 
L 176.879111 59.536061 
L 177.135934 59.536061 
L 177.278613 56.355441 
L 177.364221 59.536061 
L 177.392757 57.946208 
L 177.449829 59.536061 
L 177.478365 56.355441 
L 177.535436 59.536061 
L 177.592508 59.536061 
L 177.621044 56.355441 
L 177.678116 59.536061 
L 177.706652 59.536061 
L 177.735187 57.946208 
L 177.792259 59.536061 
L 178.077618 59.536061 
L 178.106154 56.355441 
L 178.163226 59.536061 
L 178.391513 59.536061 
L 178.448584 57.946208 
L 178.47712 59.536061 
L 178.505656 59.536061 
L 178.534192 56.355441 
L 178.591264 59.536061 
L 178.648335 59.536061 
L 178.705407 57.946208 
L 178.733943 59.536061 
L 178.762479 59.536061 
L 178.876622 56.355441 
L 178.905158 59.536061 
L 178.990766 57.946208 
L 179.047838 59.536061 
L 179.076374 56.355441 
L 179.219053 59.536061 
L 179.361732 59.536061 
L 179.44734 57.946208 
L 179.504412 56.355441 
L 179.561483 59.536061 
L 179.590019 56.355441 
L 179.675627 57.946208 
L 179.732699 57.946208 
L 179.761235 59.536061 
L 179.78977 56.355441 
L 179.818306 57.946208 
L 179.846842 57.946208 
L 179.960986 59.536061 
L 179.989522 59.536061 
L 180.075129 57.946208 
L 180.132201 59.536061 
L 180.217808 56.355441 
L 180.331952 59.536061 
L 181.273636 59.536061 
L 181.302172 57.946208 
L 181.359243 59.536061 
L 182.07264 59.536061 
L 182.101176 57.946208 
L 182.158248 59.536061 
L 182.728965 59.536061 
L 182.757501 57.946208 
L 182.814573 59.536061 
L 183.328219 59.536061 
L 183.385291 57.946208 
L 183.413826 59.536061 
L 183.585042 59.536061 
L 183.613578 57.946208 
L 183.670649 59.536061 
L 184.241367 59.536061 
L 184.269903 57.946208 
L 184.326974 59.536061 
L 184.612333 59.536061 
L 184.640869 56.355441 
L 184.697941 59.536061 
L 184.755013 59.536061 
L 184.869156 57.946208 
L 184.926228 59.536061 
L 184.954764 57.946208 
L 184.9833 57.946208 
L 185.097443 59.536061 
L 185.211587 56.355441 
L 185.32573 59.536061 
L 185.839376 59.536061 
L 185.867912 57.946208 
L 185.896448 62.717597 
L 185.924983 56.355441 
L 185.982055 59.536061 
L 186.067663 57.946208 
L 186.181806 59.536061 
L 186.29595 56.355441 
L 186.438629 59.536061 
L 186.552773 57.946208 
L 186.695452 57.946208 
L 186.78106 59.536061 
L 186.866667 57.946208 
L 186.980811 59.536061 
L 187.437385 59.536061 
L 187.551528 56.355441 
L 187.665672 59.536061 
L 187.722743 59.536061 
L 187.751279 57.946208 
L 187.808351 59.536061 
L 188.207853 59.536061 
L 188.236389 57.946208 
L 188.293461 59.536061 
L 188.778571 59.536061 
L 188.92125 56.355441 
L 189.035394 59.536061 
L 189.06393 59.536061 
L 189.092465 56.355441 
L 189.149537 57.946208 
L 189.206609 59.536061 
L 189.235145 57.946208 
L 189.263681 57.946208 
L 189.349288 62.717597 
L 189.434896 56.355441 
L 189.463432 59.536061 
L 189.634647 59.536061 
L 189.691719 57.946208 
L 189.720255 59.536061 
L 189.948542 59.536061 
L 189.977078 56.355441 
L 190.034149 59.536061 
L 190.205365 59.536061 
L 190.2339 57.946208 
L 190.290972 59.536061 
L 190.319508 59.536061 
L 190.433652 56.355441 
L 190.547795 59.536061 
L 190.576331 56.355441 
L 190.633403 59.536061 
L 190.747546 59.536061 
L 190.804618 57.946208 
L 190.86169 56.355441 
L 190.890226 62.717597 
L 191.004369 56.355441 
L 191.032905 59.536061 
L 191.089977 57.946208 
L 191.118513 56.355441 
L 191.147048 59.536061 
L 191.603622 59.536061 
L 191.632158 57.946208 
L 191.660694 62.717597 
L 191.68923 56.355441 
L 191.746302 59.536061 
L 191.774838 56.355441 
L 191.860445 57.946208 
L 191.946053 57.946208 
L 191.974589 56.355441 
L 192.003125 59.536061 
L 192.031661 57.946208 
L 192.060196 57.946208 
L 192.17434 59.536061 
L 192.602378 59.536061 
L 192.630914 56.355441 
L 192.687986 57.946208 
L 192.802129 59.536061 
L 193.00188 59.536061 
L 193.116024 57.946208 
L 193.230167 59.536061 
L 193.344311 57.946208 
L 193.372847 57.946208 
L 193.48699 59.536061 
L 193.829421 59.536061 
L 193.857956 57.946208 
L 193.915028 59.536061 
L 196.283506 59.536061 
L 196.312042 56.355441 
L 196.369113 59.536061 
L 196.511793 59.536061 
L 196.540329 57.946208 
L 196.5974 59.536061 
L 197.795907 59.536061 
L 197.824443 56.355441 
L 197.910051 57.946208 
L 198.024194 59.536061 
L 198.05273 57.946208 
L 198.109802 59.536061 
L 198.138338 59.536061 
L 198.166873 57.946208 
L 198.223945 59.536061 
L 198.39516 59.536061 
L 198.423696 56.355441 
L 198.480768 59.536061 
L 198.88027 59.536061 
L 198.908806 56.355441 
L 198.965878 59.536061 
L 199.50806 59.536061 
L 199.536595 57.946208 
L 199.593667 59.536061 
L 199.679275 59.536061 
L 199.707811 57.946208 
L 199.764882 59.536061 
L 199.85049 59.536061 
L 199.879026 57.946208 
L 199.936098 59.536061 
L 200.050241 59.536061 
L 200.078777 57.946208 
L 200.135849 59.536061 
L 201.591178 59.536061 
L 201.705322 57.946208 
L 201.819465 59.536061 
L 201.848001 56.355441 
L 201.933609 57.946208 
L 201.962145 57.946208 
L 202.076288 59.536061 
L 202.504326 59.536061 
L 202.61847 56.355441 
L 206.841779 56.355441 
L 206.870315 57.946208 
L 206.898851 54.764673 
L 206.927387 56.355441 
L 207.070066 56.355441 
L 207.098602 57.946208 
L 207.127138 54.764673 
L 207.155674 54.764673 
L 207.18421 57.946208 
L 207.269817 56.355441 
L 207.754927 56.355441 
L 207.783463 57.946208 
L 207.811999 54.764673 
L 207.840535 56.355441 
L 208.725147 56.355441 
L 208.753683 54.764673 
L 208.782219 57.946208 
L 208.810755 57.946208 
L 208.896362 54.764673 
L 208.867826 59.536061 
L 208.924898 56.355441 
L 209.267329 56.355441 
L 209.295865 54.764673 
L 209.3244 57.946208 
L 209.352936 56.355441 
L 210.437299 56.355441 
L 210.465835 57.946208 
L 210.494371 54.764673 
L 210.522907 56.355441 
L 210.808266 56.355441 
L 210.836802 57.946208 
L 210.865338 54.764673 
L 210.893873 56.355441 
L 210.979481 56.355441 
L 211.008017 54.764673 
L 211.036553 57.946208 
L 211.12216 57.946208 
L 211.236304 56.355441 
L 212.149452 56.355441 
L 212.177988 57.946208 
L 212.206524 54.764673 
L 212.23506 56.355441 
L 212.377739 56.355441 
L 212.406275 54.764673 
L 212.434811 57.946208 
L 212.463347 56.355441 
L 212.57749 56.355441 
L 212.634562 57.946208 
L 212.691634 54.764673 
L 212.720169 57.946208 
L 212.805777 56.355441 
L 214.917432 56.355441 
L 214.974504 57.946208 
L 215.003039 54.764673 
L 215.031575 59.536061 
L 215.117183 57.946208 
L 215.145719 54.764673 
L 215.174255 59.536061 
L 215.231326 56.355441 
L 215.259862 56.355441 
L 215.316934 57.946208 
L 215.34547 54.764673 
L 215.459613 56.355441 
L 222.850405 56.355441 
L 222.878941 54.764673 
L 222.907477 57.946208 
L 222.936012 56.355441 
L 225.618385 56.355441 
L 225.675456 57.946208 
L 225.703992 54.764673 
L 225.818136 56.355441 
L 226.474461 56.355441 
L 226.531533 57.946208 
L 226.560069 54.764673 
L 226.674212 56.355441 
L 228.129542 56.355441 
L 228.158077 57.946208 
L 228.186613 54.764673 
L 228.215149 56.355441 
L 241.997977 56.355441 
L 242.026512 57.946208 
L 242.055048 54.764673 
L 242.083584 56.355441 
L 242.796981 56.355441 
L 242.825517 54.764673 
L 242.854053 57.946208 
L 242.882589 56.355441 
L 242.911125 56.355441 
L 242.93966 57.946208 
L 242.968196 54.764673 
L 242.996732 56.355441 
L 245.393746 56.355441 
L 245.422282 54.764673 
L 245.450817 57.946208 
L 245.479353 56.355441 
L 245.764712 56.355441 
L 245.793248 54.764673 
L 245.821784 57.946208 
L 245.85032 56.355441 
L 253.897436 56.355441 
L 253.925972 57.946208 
L 253.954508 54.764673 
L 253.983044 56.355441 
L 254.125723 56.355441 
L 254.211331 59.536061 
L 254.296938 54.764673 
L 254.325474 56.355441 
L 254.468154 56.355441 
L 254.49669 57.946208 
L 254.525225 54.764673 
L 254.553761 56.355441 
L 256.037627 56.355441 
L 256.066163 57.946208 
L 256.094699 54.764673 
L 256.123234 56.355441 
L 256.237378 56.355441 
L 256.265914 57.946208 
L 256.29445 54.764673 
L 256.322986 56.355441 
L 256.77956 56.355441 
L 256.808095 57.946208 
L 256.836631 54.764673 
L 256.865167 54.764673 
L 256.893703 57.946208 
L 256.979311 56.355441 
L 257.521492 56.355441 
L 257.578564 57.946208 
L 257.6071 54.764673 
L 257.635636 59.536061 
L 257.721243 56.355441 
L 260.260936 56.355441 
L 260.318008 57.946208 
L 260.346544 54.764673 
L 260.460687 56.355441 
L 260.746046 56.355441 
L 260.774582 57.946208 
L 260.803118 54.764673 
L 260.831654 56.355441 
L 260.86019 56.355441 
L 260.888725 57.946208 
L 260.917261 54.764673 
L 260.945797 56.355441 
L 261.316764 56.355441 
L 261.345299 54.764673 
L 261.373835 57.946208 
L 261.402371 57.946208 
L 261.487979 56.355441 
L 261.516515 59.536061 
L 261.573586 54.764673 
L 261.68773 56.355441 
L 262.229912 56.355441 
L 262.258447 54.764673 
L 262.286983 57.946208 
L 262.315519 56.355441 
L 291.593326 56.355441 
L 291.621862 54.764673 
L 291.650398 57.946208 
L 291.678934 56.355441 
L 295.702492 56.355441 
L 295.731028 54.764673 
L 295.873707 218.600019 
L 295.930779 217.009251 
L 337.593156 217.009251 
L 337.735835 201.102489 
L 344.75566 201.102489 
L 344.869804 202.693257 
L 365.415633 202.693257 
L 365.444169 204.284025 
L 365.472705 201.102489 
L 365.501241 202.693257 
L 393.295183 202.693257 
L 393.552006 62.717597 
L 393.637613 62.717597 
L 393.694685 57.946208 
L 393.723221 62.717597 
L 393.751757 62.717597 
L 393.837364 57.946208 
L 393.808828 64.308364 
L 393.8659 59.536061 
L 393.894436 59.536061 
L 394.00858 62.717597 
L 394.208331 62.717597 
L 394.265402 59.536061 
L 394.35101 69.080667 
L 394.379546 64.308364 
L 394.522225 67.489899 
L 394.579297 57.946208 
L 394.664905 59.536061 
L 421.231804 59.536061 
L 421.345947 54.764673 
L 421.460091 57.946208 
L 421.574234 54.764673 
L 421.60277 57.946208 
L 421.688378 56.355441 
L 421.716914 56.355441 
L 421.745449 54.764673 
L 421.773985 57.946208 
L 421.802521 56.355441 
L 421.831057 56.355441 
L 421.859593 57.946208 
L 421.888129 54.764673 
L 421.916665 56.355441 
L 421.945201 56.355441 
L 421.973736 54.764673 
L 422.002272 57.946208 
L 422.030808 56.355441 
L 422.230559 56.355441 
L 422.287631 57.946208 
L 422.316167 54.764673 
L 422.458846 57.946208 
L 422.57299 54.764673 
L 422.630062 57.946208 
L 422.658597 56.355441 
L 422.715669 54.764673 
L 422.772741 57.946208 
L 422.829813 56.355441 
L 422.858349 57.946208 
L 422.886884 54.764673 
L 422.91542 56.355441 
L 422.943956 56.355441 
L 423.0581 57.946208 
L 423.172243 54.764673 
L 423.286387 57.946208 
L 423.314923 54.764673 
L 423.371994 56.355441 
L 423.40053 57.946208 
L 423.457602 56.355441 
L 423.600281 56.355441 
L 423.628817 54.764673 
L 423.657353 57.946208 
L 423.714425 57.946208 
L 423.828568 54.764673 
L 423.942712 57.946208 
L 424.028319 57.946208 
L 424.085391 56.355441 
L 424.113927 57.946208 
L 424.142463 57.946208 
L 424.170999 54.764673 
L 424.256606 56.355441 
L 424.37075 56.355441 
L 424.484893 57.946208 
L 424.570501 57.946208 
L 424.599037 54.764673 
L 424.656109 57.946208 
L 424.741716 57.946208 
L 424.770252 56.355441 
L 424.827324 57.946208 
L 425.569257 57.946208 
L 425.626328 56.355441 
L 425.654864 57.946208 
L 425.911687 57.946208 
L 425.940223 54.764673 
L 426.025831 56.355441 
L 426.054366 56.355441 
L 426.082902 54.764673 
L 426.111438 59.536061 
L 426.197046 56.355441 
L 426.254118 57.946208 
L 426.282653 54.764673 
L 426.339725 57.946208 
L 426.368261 57.946208 
L 426.396797 54.764673 
L 426.482405 56.355441 
L 426.51094 56.355441 
L 426.568012 57.946208 
L 426.596548 56.355441 
L 426.65362 57.946208 
L 426.682156 54.764673 
L 426.796299 56.355441 
L 426.853371 56.355441 
L 426.910443 57.946208 
L 426.967514 54.764673 
L 426.99605 59.536061 
L 427.053122 57.946208 
L 427.081658 54.764673 
L 427.167266 56.355441 
L 427.224337 57.946208 
L 427.252873 54.764673 
L 427.338481 57.946208 
L 427.367017 56.355441 
L 427.424088 56.355441 
L 427.452624 57.946208 
L 427.48116 54.764673 
L 427.509696 56.355441 
L 427.566768 56.355441 
L 427.680911 57.946208 
L 427.709447 57.946208 
L 427.766519 54.764673 
L 427.823591 56.355441 
L 427.852127 56.355441 
L 427.909198 57.946208 
L 427.937734 54.764673 
L 427.994806 57.946208 
L 428.051878 57.946208 
L 428.080414 54.764673 
L 428.166021 56.355441 
L 428.251629 57.946208 
L 428.365772 54.764673 
L 428.394308 57.946208 
L 428.45138 56.355441 
L 428.508452 57.946208 
L 428.536988 54.764673 
L 428.651131 56.355441 
L 428.708203 56.355441 
L 428.736739 54.764673 
L 428.765275 57.946208 
L 428.79381 57.946208 
L 428.879418 54.764673 
L 428.93649 57.946208 
L 428.993562 56.355441 
L 429.050633 57.946208 
L 429.079169 54.764673 
L 429.164777 56.355441 
L 429.27892 56.355441 
L 429.307456 54.764673 
L 429.335992 57.946208 
L 429.364528 57.946208 
L 429.393064 54.764673 
L 429.478671 56.355441 
L 429.678423 56.355441 
L 429.76403 57.946208 
L 429.878174 54.764673 
L 429.935245 57.946208 
L 429.992317 56.355441 
L 430.106461 56.355441 
L 430.134997 54.764673 
L 430.163532 57.946208 
L 430.24914 57.946208 
L 430.334748 56.355441 
L 430.391819 57.946208 
L 430.420355 54.764673 
L 430.505963 56.355441 
L 430.73425 56.355441 
L 430.762786 57.946208 
L 430.791322 54.764673 
L 430.819857 56.355441 
L 430.962537 56.355441 
L 431.019609 57.946208 
L 431.07668 54.764673 
L 431.190824 57.946208 
L 431.304967 54.764673 
L 431.419111 56.355441 
L 432.018364 56.355441 
L 432.103972 57.946208 
L 432.132508 54.764673 
L 432.218115 56.355441 
L 432.360795 56.355441 
L 432.417866 57.946208 
L 432.474938 54.764673 
L 432.53201 57.946208 
L 432.589082 56.355441 
L 432.617618 56.355441 
L 432.674689 54.764673 
L 432.703225 57.946208 
L 432.760297 56.355441 
L 432.788833 57.946208 
L 432.817369 57.946208 
L 432.845905 54.764673 
L 432.931512 56.355441 
L 432.988584 56.355441 
L 433.045656 57.946208 
L 433.074192 54.764673 
L 433.159799 57.946208 
L 433.245407 54.764673 
L 433.273943 56.355441 
L 433.331014 56.355441 
L 433.35955 54.764673 
L 433.388086 57.946208 
L 433.416622 56.355441 
L 433.701981 56.355441 
L 433.759053 57.946208 
L 433.787588 54.764673 
L 433.873196 56.355441 
L 434.015875 56.355441 
L 434.130019 59.536061 
L 434.187091 54.764673 
L 434.244162 56.355441 
L 434.32977 56.355441 
L 434.358306 54.764673 
L 434.386842 57.946208 
L 434.472449 57.946208 
L 434.529521 54.764673 
L 434.586593 56.355441 
L 434.615129 57.946208 
L 434.643665 54.764673 
L 434.672201 56.355441 
L 434.700736 56.355441 
L 434.757808 57.946208 
L 434.843416 54.764673 
L 434.871952 56.355441 
L 434.986095 56.355441 
L 435.043167 57.946208 
L 435.071703 54.764673 
L 435.15731 56.355441 
L 435.214382 57.946208 
L 435.242918 54.764673 
L 435.271454 57.946208 
L 435.357062 56.355441 
L 435.414133 56.355441 
L 435.471205 57.946208 
L 435.499741 54.764673 
L 435.64242 57.946208 
L 435.670956 57.946208 
L 435.7851 54.764673 
L 435.842171 57.946208 
L 435.899243 56.355441 
L 435.927779 56.355441 
L 435.956315 57.946208 
L 436.013387 56.355441 
L 436.156066 56.355441 
L 436.184602 57.946208 
L 436.213138 54.764673 
L 436.241674 56.355441 
L 436.498496 56.355441 
L 436.555568 57.946208 
L 436.61264 54.764673 
L 436.641176 57.946208 
L 436.726783 56.355441 
L 436.783855 56.355441 
L 436.897999 57.946208 
L 436.95507 54.764673 
L 437.012142 56.355441 
L 437.040678 56.355441 
L 437.126286 57.946208 
L 437.154822 54.764673 
L 437.240429 56.355441 
L 437.268965 56.355441 
L 437.297501 57.946208 
L 437.354573 56.355441 
L 437.383109 54.764673 
L 437.411644 57.946208 
L 437.44018 57.946208 
L 437.497252 56.355441 
L 437.525788 57.946208 
L 437.554324 57.946208 
L 437.58286 54.764673 
L 437.668467 56.355441 
L 437.697003 56.355441 
L 437.754075 57.946208 
L 437.782611 54.764673 
L 437.896754 57.946208 
L 437.92529 54.764673 
L 438.010898 56.355441 
L 438.06797 57.946208 
L 438.096505 54.764673 
L 438.210649 56.355441 
L 438.267721 56.355441 
L 438.296257 54.764673 
L 438.324792 57.946208 
L 438.4104 57.946208 
L 438.467472 54.764673 
L 438.496008 57.946208 
L 438.781366 57.946208 
L 438.866974 54.764673 
L 438.981118 57.946208 
L 439.266476 57.946208 
L 439.352084 54.764673 
L 439.38062 56.355441 
L 439.494763 57.946208 
L 439.523299 56.355441 
L 439.580371 57.946208 
L 439.894266 57.946208 
L 439.979873 56.355441 
L 440.094017 57.946208 
L 440.550591 57.946208 
L 440.664734 56.355441 
L 440.721806 56.355441 
L 440.835949 57.946208 
L 441.149844 57.946208 
L 441.235452 54.764673 
L 441.349595 57.946208 
L 441.378131 57.946208 
L 441.492275 54.764673 
L 441.606418 57.946208 
L 441.692026 54.764673 
L 441.720562 56.355441 
L 441.863241 56.355441 
L 441.891777 54.764673 
L 441.920313 57.946208 
L 441.948849 56.355441 
L 442.034456 56.355441 
L 442.062992 54.764673 
L 442.091528 57.946208 
L 442.120064 57.946208 
L 442.234207 54.764673 
L 442.348351 57.946208 
L 442.405422 54.764673 
L 442.433958 57.946208 
L 442.776389 57.946208 
L 442.833461 56.355441 
L 442.861996 57.946208 
L 442.890532 57.946208 
L 442.947604 54.764673 
L 443.004676 56.355441 
L 443.147355 56.355441 
L 443.261499 57.946208 
L 443.375642 54.764673 
L 443.46125 57.946208 
L 443.489786 56.355441 
L 443.546857 57.946208 
L 443.575393 54.764673 
L 443.661001 57.946208 
L 443.689537 56.355441 
L 443.718073 56.355441 
L 443.832216 57.946208 
L 443.860752 57.946208 
L 443.917824 54.764673 
L 443.94636 57.946208 
L 443.974896 57.946208 
L 444.031967 56.355441 
L 444.060503 57.946208 
L 444.28879 57.946208 
L 444.374398 54.764673 
L 444.460005 57.946208 
L 444.488541 54.764673 
L 444.545613 56.355441 
L 444.574149 57.946208 
L 444.602685 54.764673 
L 444.631221 56.355441 
L 444.659757 54.764673 
L 444.688292 57.946208 
L 444.716828 56.355441 
L 444.745364 56.355441 
L 444.802436 54.764673 
L 444.830972 57.946208 
L 444.888044 54.764673 
L 444.916579 57.946208 
L 444.973651 57.946208 
L 445.002187 54.764673 
L 445.087795 56.355441 
L 445.116331 56.355441 
L 445.144866 57.946208 
L 445.173402 54.764673 
L 445.201938 56.355441 
L 445.230474 56.355441 
L 445.25901 54.764673 
L 445.287546 57.946208 
L 445.316082 57.946208 
L 445.430225 56.355441 
L 445.487297 57.946208 
L 445.60144 54.764673 
L 445.715584 57.946208 
L 445.772656 54.764673 
L 445.829727 56.355441 
L 445.943871 57.946208 
L 445.972407 57.946208 
L 446.058014 54.764673 
L 446.08655 56.355441 
L 446.257766 56.355441 
L 446.286301 57.946208 
L 446.314837 54.764673 
L 446.343373 54.764673 
L 446.457517 57.946208 
L 446.57166 56.355441 
L 446.600196 57.946208 
L 446.628732 54.764673 
L 446.657268 56.355441 
L 446.799947 56.355441 
L 446.828483 54.764673 
L 446.857019 59.536061 
L 446.942627 56.355441 
L 446.999698 56.355441 
L 447.028234 57.946208 
L 447.085306 56.355441 
L 447.142378 56.355441 
L 447.170914 57.946208 
L 447.199449 54.764673 
L 447.227985 56.355441 
L 447.285057 57.946208 
L 447.313593 54.764673 
L 447.370665 57.946208 
L 447.427736 56.355441 
L 447.456272 54.764673 
L 447.484808 57.946208 
L 447.513344 56.355441 
L 447.54188 56.355441 
L 447.598952 57.946208 
L 447.627488 54.764673 
L 447.684559 57.946208 
L 447.741631 56.355441 
L 447.770167 56.355441 
L 447.798703 54.764673 
L 447.827239 57.946208 
L 447.855775 56.355441 
L 447.912846 56.355441 
L 447.941382 54.764673 
L 447.969918 57.946208 
L 448.055526 57.946208 
L 448.084062 54.764673 
L 448.141133 57.946208 
L 448.283813 57.946208 
L 448.36942 56.355441 
L 448.483564 57.946208 
L 448.626243 57.946208 
L 448.654779 54.764673 
L 448.711851 57.946208 
L 448.997209 57.946208 
L 449.025745 54.764673 
L 449.111353 56.355441 
L 449.168425 57.946208 
L 449.196961 54.764673 
L 449.311104 56.355441 
L 449.482319 56.355441 
L 449.596463 57.946208 
L 449.624999 57.946208 
L 449.68207 56.355441 
L 449.710606 57.946208 
L 449.881822 57.946208 
L 449.995965 54.764673 
L 450.110109 56.355441 
L 450.16718 56.355441 
L 450.195716 54.764673 
L 450.224252 57.946208 
L 450.252788 57.946208 
L 450.281324 54.764673 
L 450.366931 56.355441 
L 450.452539 56.355441 
L 450.566683 57.946208 
L 450.623754 54.764673 
L 450.65229 57.946208 
L 450.737898 57.946208 
L 450.766434 54.764673 
L 450.823505 56.355441 
L 450.852041 57.946208 
L 450.880577 54.764673 
L 450.909113 54.764673 
L 450.937649 57.946208 
L 451.023257 56.355441 
L 451.051792 56.355441 
L 451.165936 57.946208 
L 451.223008 57.946208 
L 451.251544 54.764673 
L 451.337151 56.355441 
L 451.365687 54.764673 
L 451.394223 57.946208 
L 451.422759 57.946208 
L 451.451295 54.764673 
L 451.508366 57.946208 
L 451.536902 57.946208 
L 451.593974 56.355441 
L 451.62251 57.946208 
L 451.879333 57.946208 
L 451.907869 56.355441 
L 451.96494 57.946208 
L 452.10762 57.946208 
L 452.164692 56.355441 
L 452.193227 57.946208 
L 452.221763 57.946208 
L 452.307371 54.764673 
L 452.364443 57.946208 
L 452.392979 54.764673 
L 452.421514 54.764673 
L 452.535658 57.946208 
L 452.93516 57.946208 
L 453.020768 54.764673 
L 453.049304 56.355441 
L 453.106375 57.946208 
L 453.134911 54.764673 
L 453.191983 57.946208 
L 453.249055 56.355441 
L 453.848308 56.355441 
L 453.876844 57.946208 
L 453.90538 54.764673 
L 453.933916 56.355441 
L 454.133667 56.355441 
L 454.162203 54.764673 
L 454.190739 57.946208 
L 454.219275 56.355441 
L 454.276346 54.764673 
L 454.304882 59.536061 
L 454.361954 54.764673 
L 454.419026 56.355441 
L 454.476097 54.764673 
L 454.533169 57.946208 
L 454.647313 54.764673 
L 454.704384 57.946208 
L 454.761456 56.355441 
L 454.8756 57.946208 
L 454.904135 57.946208 
L 455.018279 54.764673 
L 455.132422 57.946208 
L 455.160958 56.355441 
L 455.21803 57.946208 
L 455.275102 57.946208 
L 455.417781 54.764673 
L 455.531925 57.946208 
L 455.731676 57.946208 
L 455.845819 54.764673 
L 455.874355 57.946208 
L 455.959963 56.355441 
L 456.131178 56.355441 
L 456.18825 54.764673 
L 456.216786 57.946208 
L 456.330929 56.355441 
L 456.359465 56.355441 
L 456.388001 54.764673 
L 456.416537 57.946208 
L 456.473609 57.946208 
L 456.502144 54.764673 
L 456.559216 57.946208 
L 456.587752 57.946208 
L 456.616288 56.355441 
L 456.67336 57.946208 
L 456.758967 57.946208 
L 456.844575 56.355441 
L 456.930183 57.946208 
L 456.958718 56.355441 
L 457.01579 57.946208 
L 457.044326 57.946208 
L 457.101398 54.764673 
L 457.129934 57.946208 
L 457.472364 57.946208 
L 457.529436 56.355441 
L 457.557972 57.946208 
L 457.729187 57.946208 
L 457.843331 56.355441 
L 457.957474 57.946208 
L 458.499656 57.946208 
L 458.528192 56.355441 
L 458.585263 57.946208 
L 458.727943 57.946208 
L 458.842086 56.355441 
L 458.870622 56.355441 
L 458.984766 57.946208 
L 459.070373 57.946208 
L 459.184517 54.764673 
L 459.241588 57.946208 
L 459.270124 56.355441 
L 459.29866 54.764673 
L 459.327196 57.946208 
L 459.355732 56.355441 
L 459.412804 56.355441 
L 459.44134 54.764673 
L 459.469875 57.946208 
L 459.641091 57.946208 
L 459.755234 56.355441 
L 459.78377 56.355441 
L 459.812306 57.946208 
L 459.840842 54.764673 
L 459.869378 54.764673 
L 459.897914 57.946208 
L 459.983521 56.355441 
L 460.069129 56.355441 
L 460.097665 54.764673 
L 460.126201 57.946208 
L 460.154736 57.946208 
L 460.183272 54.764673 
L 460.240344 57.946208 
L 460.297416 57.946208 
L 460.325952 54.764673 
L 460.411559 56.355441 
L 460.468631 56.355441 
L 460.497167 57.946208 
L 460.525703 54.764673 
L 460.554239 54.764673 
L 460.668382 57.946208 
L 460.696918 56.355441 
L 460.75399 57.946208 
L 460.839597 57.946208 
L 460.868133 56.355441 
L 460.925205 57.946208 
L 461.039348 57.946208 
L 461.09642 59.536061 
L 461.124956 54.764673 
L 461.2391 57.946208 
L 461.324707 57.946208 
L 461.353243 56.355441 
L 461.410315 57.946208 
L 461.495922 57.946208 
L 461.552994 54.764673 
L 461.58153 57.946208 
L 461.695674 57.946208 
L 461.752745 56.355441 
L 461.781281 57.946208 
L 461.838353 57.946208 
L 461.952496 54.764673 
L 462.009568 57.946208 
L 462.06664 56.355441 
L 462.095176 56.355441 
L 462.209319 57.946208 
L 462.437606 57.946208 
L 462.466142 56.355441 
L 462.523214 57.946208 
L 462.55175 57.946208 
L 462.608822 54.764673 
L 462.637357 56.355441 
L 462.722965 57.946208 
L 462.865644 54.764673 
L 463.008324 57.946208 
L 463.03686 54.764673 
L 463.093931 57.946208 
L 463.179539 57.946208 
L 463.208075 54.764673 
L 463.265147 57.946208 
L 463.350754 57.946208 
L 463.464898 56.355441 
L 463.579041 56.355441 
L 463.636113 57.946208 
L 463.664649 56.355441 
L 464.007079 56.355441 
L 464.064151 57.946208 
L 464.092687 54.764673 
L 464.235366 57.946208 
L 464.606333 57.946208 
L 464.663405 54.764673 
L 464.69194 57.946208 
L 464.777548 57.946208 
L 464.806084 54.764673 
L 464.863156 57.946208 
L 464.891692 57.946208 
L 464.920227 54.764673 
L 465.005835 56.355441 
L 465.062907 57.946208 
L 465.091443 54.764673 
L 465.17705 56.355441 
L 465.291194 57.946208 
L 465.405337 57.946208 
L 465.490945 56.355441 
L 465.605088 57.946208 
L 465.747768 57.946208 
L 465.861911 56.355441 
L 465.890447 56.355441 
L 465.918983 54.764673 
L 465.947519 57.946208 
L 465.976055 57.946208 
L 466.004591 54.764673 
L 466.061662 57.946208 
L 466.090198 57.946208 
L 466.175806 56.355441 
L 466.289949 57.946208 
L 466.375557 57.946208 
L 466.4897 54.764673 
L 466.603844 57.946208 
L 466.63238 54.764673 
L 466.689452 57.946208 
L 466.746523 57.946208 
L 466.832131 54.764673 
L 466.946274 57.946208 
L 467.11749 57.946208 
L 467.146026 54.764673 
L 467.231633 56.355441 
L 467.260169 54.764673 
L 467.288705 57.946208 
L 467.317241 56.355441 
L 467.345777 56.355441 
L 467.374313 57.946208 
L 467.402848 54.764673 
L 467.431384 54.764673 
L 467.545528 57.946208 
L 467.574064 57.946208 
L 467.6026 56.355441 
L 467.659671 57.946208 
L 467.773815 57.946208 
L 467.802351 54.764673 
L 467.859422 56.355441 
L 467.973566 57.946208 
L 468.002102 54.764673 
L 468.087709 56.355441 
L 468.230389 56.355441 
L 468.287461 57.946208 
L 468.344532 54.764673 
L 468.373068 57.946208 
L 468.458676 56.355441 
L 468.572819 56.355441 
L 468.601355 54.764673 
L 468.629891 57.946208 
L 468.658427 57.946208 
L 468.744035 54.764673 
L 468.77257 56.355441 
L 468.829642 56.355441 
L 468.858178 54.764673 
L 468.886714 56.355441 
L 469.000857 57.946208 
L 469.029393 56.355441 
L 469.086465 57.946208 
L 469.143537 57.946208 
L 469.229144 54.764673 
L 469.343288 57.946208 
L 469.40036 56.355441 
L 469.428896 57.946208 
L 469.485967 57.946208 
L 469.600111 56.355441 
L 469.628647 56.355441 
L 469.657183 57.946208 
L 469.714254 56.355441 
L 469.74279 56.355441 
L 469.799862 54.764673 
L 469.828398 59.536061 
L 469.942541 56.355441 
L 470.056685 57.946208 
L 470.142292 57.946208 
L 470.199364 56.355441 
L 470.2279 57.946208 
L 470.256436 57.946208 
L 470.399115 54.764673 
L 470.456187 57.946208 
L 470.484723 54.764673 
L 470.513259 54.764673 
L 470.570331 57.946208 
L 470.627402 56.355441 
L 470.684474 57.946208 
L 470.71301 56.355441 
L 470.741546 54.764673 
L 470.770082 57.946208 
L 470.798618 56.355441 
L 470.827153 56.355441 
L 470.884225 57.946208 
L 470.912761 54.764673 
L 471.026905 57.946208 
L 471.05544 57.946208 
L 471.19812 54.764673 
L 471.312263 57.946208 
L 471.340799 57.946208 
L 471.426407 54.764673 
L 471.397871 59.536061 
L 471.454943 56.355441 
L 471.569086 57.946208 
L 471.854445 57.946208 
L 471.968588 54.764673 
L 472.054196 57.946208 
L 472.082732 56.355441 
L 472.196875 57.946208 
L 472.311019 56.355441 
L 472.425162 57.946208 
L 472.482234 57.946208 
L 472.539306 54.764673 
L 472.567842 57.946208 
L 472.596378 57.946208 
L 472.624913 56.355441 
L 472.681985 57.946208 
L 472.8532 57.946208 
L 472.967344 54.764673 
L 473.024416 57.946208 
L 473.081487 56.355441 
L 473.195631 57.946208 
L 473.224167 56.355441 
L 473.281239 57.946208 
L 473.909028 57.946208 
L 473.9661 56.355441 
L 473.994635 57.946208 
L 474.080243 57.946208 
L 474.165851 54.764673 
L 474.251458 59.536061 
L 474.279994 54.764673 
L 474.365602 56.355441 
L 474.394138 56.355441 
L 474.422674 54.764673 
L 474.451209 59.536061 
L 474.536817 57.946208 
L 474.622425 56.355441 
L 474.736568 57.946208 
L 474.822176 57.946208 
L 474.850712 54.764673 
L 474.907783 57.946208 
L 474.936319 57.946208 
L 475.050463 56.355441 
L 475.078999 57.946208 
L 475.107535 54.764673 
L 475.13607 56.355441 
L 475.193142 56.355441 
L 475.221678 54.764673 
L 475.250214 57.946208 
L 475.27875 57.946208 
L 475.307286 54.764673 
L 475.392893 56.355441 
L 475.478501 57.946208 
L 475.535573 56.355441 
L 475.564109 57.946208 
L 475.792396 57.946208 
L 475.820931 54.764673 
L 475.906539 56.355441 
L 476.020683 57.946208 
L 476.077754 57.946208 
L 476.10629 54.764673 
L 476.163362 57.946208 
L 476.448721 57.946208 
L 476.562864 54.764673 
L 476.619936 57.946208 
L 476.677008 56.355441 
L 476.791151 57.946208 
L 476.819687 57.946208 
L 476.905295 56.355441 
L 476.933831 57.946208 
L 476.962366 54.764673 
L 476.990902 56.355441 
L 477.019438 56.355441 
L 477.07651 54.764673 
L 477.133582 57.946208 
L 477.276261 57.946208 
L 477.333333 54.764673 
L 477.361869 57.946208 
L 477.504548 57.946208 
L 477.533084 54.764673 
L 477.618692 56.355441 
L 477.647227 56.355441 
L 477.761371 57.946208 
L 477.789907 57.946208 
L 477.90405 54.764673 
L 477.932586 57.946208 
L 477.989658 56.355441 
L 478.04673 57.946208 
L 478.075265 54.764673 
L 478.189409 57.946208 
L 478.217945 57.946208 
L 478.332088 54.764673 
L 478.474768 57.946208 
L 478.503304 57.946208 
L 478.617447 56.355441 
L 479.016949 56.355441 
L 479.045485 54.764673 
L 479.074021 57.946208 
L 479.188165 57.946208 
L 479.302308 56.355441 
L 479.416452 56.355441 
L 479.444987 54.764673 
L 479.473523 57.946208 
L 479.502059 56.355441 
L 479.559131 57.946208 
L 479.673274 54.764673 
L 479.730346 57.946208 
L 479.787418 56.355441 
L 479.84449 57.946208 
L 479.873026 54.764673 
L 479.958633 57.946208 
L 479.987169 56.355441 
L 480.044241 56.355441 
L 480.101313 57.946208 
L 480.129848 54.764673 
L 480.18692 57.946208 
L 480.3296 57.946208 
L 480.358135 56.355441 
L 480.415207 57.946208 
L 480.529351 57.946208 
L 480.586422 54.764673 
L 480.614958 57.946208 
L 480.814709 57.946208 
L 480.928853 56.355441 
L 481.042996 57.946208 
L 481.585178 57.946208 
L 481.64225 59.536061 
L 481.670786 54.764673 
L 481.784929 57.946208 
L 481.870537 57.946208 
L 481.927609 56.355441 
L 481.956144 57.946208 
L 482.098824 57.946208 
L 482.12736 54.764673 
L 482.184431 57.946208 
L 482.241503 57.946208 
L 482.355647 56.355441 
L 482.384183 56.355441 
L 482.498326 57.946208 
L 482.669541 57.946208 
L 482.698077 54.764673 
L 482.755149 57.946208 
L 483.554153 57.946208 
L 483.611225 54.764673 
L 483.639761 57.946208 
L 483.696833 57.946208 
L 483.725369 54.764673 
L 483.753905 59.536061 
L 483.78244 56.355441 
L 483.839512 57.946208 
L 483.868048 56.355441 
L 483.896584 54.764673 
L 483.92512 57.946208 
L 484.124871 57.946208 
L 484.239014 56.355441 
L 484.324622 57.946208 
L 484.353158 54.764673 
L 484.41023 57.946208 
L 484.438765 57.946208 
L 484.552909 56.355441 
L 484.667052 57.946208 
L 484.724124 56.355441 
L 484.75266 57.946208 
L 486.864315 57.946208 
L 486.978458 56.355441 
L 487.006994 56.355441 
L 487.121138 57.946208 
L 487.320889 57.946208 
L 487.377961 59.536061 
L 487.406496 56.355441 
L 487.52064 57.946208 
L 490.088869 57.946208 
L 490.117404 56.355441 
L 490.174476 57.946208 
L 496.338225 57.946208 
L 496.452369 56.355441 
L 496.480904 56.355441 
L 496.595048 57.946208 
L 499.049133 57.946208 
L 499.077669 56.355441 
L 499.134741 57.946208 
L 499.27742 57.946208 
L 499.305956 56.355441 
L 499.363028 57.946208 
L 499.391564 57.946208 
L 499.505707 56.355441 
L 499.619851 57.946208 
L 499.848138 57.946208 
L 499.876674 54.764673 
L 499.933745 57.946208 
L 499.962281 57.946208 
L 499.990817 54.764673 
L 500.047889 57.946208 
L 500.104961 57.946208 
L 500.133496 56.355441 
L 500.190568 57.946208 
L 502.701725 57.946208 
L 502.844404 54.764673 
L 502.958548 57.946208 
L 503.072691 57.946208 
L 503.101227 54.764673 
L 503.158299 57.946208 
L 503.415122 57.946208 
L 503.443658 56.355441 
L 503.50073 57.946208 
L 503.614873 57.946208 
L 503.643409 56.355441 
L 503.700481 57.946208 
L 504.499485 57.946208 
L 504.528021 54.764673 
L 504.585093 57.946208 
L 505.041667 57.946208 
L 505.070203 54.764673 
L 505.127274 57.946208 
L 505.384097 57.946208 
L 505.412633 56.355441 
L 505.469705 57.946208 
L 505.926279 57.946208 
L 505.954815 54.764673 
L 506.040422 56.355441 
L 506.12603 56.355441 
L 506.183102 57.946208 
L 506.211638 54.764673 
L 506.268709 57.946208 
L 506.325781 57.946208 
L 506.411389 54.764673 
L 506.439925 56.355441 
L 506.554068 57.946208 
L 506.725283 57.946208 
L 506.782355 54.764673 
L 506.810891 57.946208 
L 506.867963 57.946208 
L 506.982106 56.355441 
L 507.067714 56.355441 
L 507.09625 57.946208 
L 507.124786 54.764673 
L 507.153322 56.355441 
L 507.181857 54.764673 
L 507.210393 57.946208 
L 507.238929 56.355441 
L 507.353073 57.946208 
L 507.410144 54.764673 
L 507.467216 56.355441 
L 507.58136 57.946208 
L 507.638431 57.946208 
L 507.666967 54.764673 
L 507.752575 56.355441 
L 507.866718 56.355441 
L 507.895254 54.764673 
L 507.92379 57.946208 
L 507.952326 57.946208 
L 507.980862 54.764673 
L 508.037934 57.946208 
L 508.380364 57.946208 
L 508.437436 54.764673 
L 508.465972 57.946208 
L 508.523043 57.946208 
L 508.551579 54.764673 
L 508.608651 57.946208 
L 508.694259 57.946208 
L 508.722795 54.764673 
L 508.779866 57.946208 
L 509.550335 57.946208 
L 509.578871 56.355441 
L 509.635943 57.946208 
L 509.778622 57.946208 
L 509.807158 56.355441 
L 509.86423 57.946208 
L 510.121052 57.946208 
L 510.235196 54.764673 
L 510.349339 57.946208 
L 510.549091 57.946208 
L 510.577626 56.355441 
L 510.634698 57.946208 
L 510.862985 57.946208 
L 510.891521 56.355441 
L 510.948593 57.946208 
L 512.346851 57.946208 
L 512.375387 56.355441 
L 512.432458 57.946208 
L 512.717817 57.946208 
L 512.803425 54.764673 
L 512.831961 56.355441 
L 512.860496 56.355441 
L 512.97464 57.946208 
L 513.060248 57.946208 
L 513.174391 54.764673 
L 513.288535 57.946208 
L 513.431214 57.946208 
L 513.516822 54.764673 
L 513.630965 57.946208 
L 513.659501 54.764673 
L 513.745109 56.355441 
L 513.94486 56.355441 
L 513.973395 57.946208 
L 514.001931 54.764673 
L 514.030467 54.764673 
L 514.059003 57.946208 
L 514.144611 56.355441 
L 514.173147 56.355441 
L 514.230218 57.946208 
L 514.258754 54.764673 
L 514.344362 56.355441 
L 514.372898 54.764673 
L 514.401434 56.355441 
L 514.458505 57.946208 
L 514.601185 218.600019 
L 514.715328 217.009251 
L 560.372727 217.009251 
L 560.372727 217.009251 
" clip-path="url(#p88842b9607)" style="fill: none; stroke: #1f77b4; stroke-width: 1.5; stroke-linecap: square"/>
   </g>
   <g id="patch_3">
    <path d="M 81 320.4 
L 81 43.2 
" style="fill: none; stroke: #000000; stroke-width: 0.8; stroke-linejoin: miter; stroke-linecap: square"/>
   </g>
   <g id="patch_4">
    <path d="M 583.2 320.4 
L 583.2 43.2 
" style="fill: none; stroke: #000000; stroke-width: 0.8; stroke-linejoin: miter; stroke-linecap: square"/>
   </g>
   <g id="patch_5">
    <path d="M 81 320.4 
L 583.2 320.4 
" style="fill: none; stroke: #000000; stroke-width: 0.8; stroke-linejoin: miter; stroke-linecap: square"/>
   </g>
   <g id="patch_6">
    <path d="M 81 43.2 
L 583.2 43.2 
" style="fill: none; stroke: #000000; stroke-width: 0.8; stroke-linejoin: miter; stroke-linecap: square"/>
   </g>
   <g id="text_21">
    <!-- Instant power consumption of the MCU -->
    <g transform="translate(214.903125 37.2) scale(0.12 -0.12)">
     <defs>
      <path id="DejaVuSans-49" d="M 628 4666 
L 1259 4666 
L 1259 0 
L 628 0 
L 628 4666 
z
" transform="scale(0.015625)"/>
      <path id="DejaVuSans-6e" d="M 3513 2113 
L 3513 0 
L 2938 0 
L 2938 2094 
Q 2938 2591 2744 2837 
Q 2550 3084 2163 3084 
Q 1697 3084 1428 2787 
Q 1159 2491 1159 1978 
L 1159 0 
L 581 0 
L 581 3500 
L 1159 3500 
L 1159 2956 
Q 1366 3272 1645 3428 
Q 1925 3584 2291 3584 
Q 2894 3584 3203 3211 
Q 3513 2838 3513 2113 
z
" transform="scale(0.015625)"/>
      <path id="DejaVuSans-74" d="M 1172 4494 
L 1172 3500 
L 2356 3500 
L 2356 3053 
L 1172 3053 
L 1172 1153 
Q 1172 725 1289 603 
Q 1406 481 1766 481 
L 2356 481 
L 2356 0 
L 1766 0 
Q 1100 0 847 248 
Q 594 497 594 1153 
L 594 3053 
L 172 3053 
L 172 3500 
L 594 3500 
L 594 4494 
L 1172 4494 
z
" transform="scale(0.015625)"/>
      <path id="DejaVuSans-61" d="M 2194 1759 
Q 1497 1759 1228 1600 
Q 959 1441 959 1056 
Q 959 750 1161 570 
Q 1363 391 1709 391 
Q 2188 391 2477 730 
Q 2766 1069 2766 1631 
L 2766 1759 
L 2194 1759 
z
M 3341 1997 
L 3341 0 
L 2766 0 
L 2766 531 
Q 2569 213 2275 61 
Q 1981 -91 1556 -91 
Q 1019 -91 701 211 
Q 384 513 384 1019 
Q 384 1609 779 1909 
Q 1175 2209 1959 2209 
L 2766 2209 
L 2766 2266 
Q 2766 2663 2505 2880 
Q 2244 3097 1772 3097 
Q 1472 3097 1187 3025 
Q 903 2953 641 2809 
L 641 3341 
Q 956 3463 1253 3523 
Q 1550 3584 1831 3584 
Q 2591 3584 2966 3190 
Q 3341 2797 3341 1997 
z
" transform="scale(0.015625)"/>
      <path id="DejaVuSans-70" d="M 1159 525 
L 1159 -1331 
L 581 -1331 
L 581 3500 
L 1159 3500 
L 1159 2969 
Q 1341 3281 1617 3432 
Q 1894 3584 2278 3584 
Q 2916 3584 3314 3078 
Q 3713 2572 3713 1747 
Q 3713 922 3314 415 
Q 2916 -91 2278 -91 
Q 1894 -91 1617 61 
Q 1341 213 1159 525 
z
M 3116 1747 
Q 3116 2381 2855 2742 
Q 2594 3103 2138 3103 
Q 1681 3103 1420 2742 
Q 1159 2381 1159 1747 
Q 1159 1113 1420 752 
Q 1681 391 2138 391 
Q 2594 391 2855 752 
Q 3116 1113 3116 1747 
z
" transform="scale(0.015625)"/>
      <path id="DejaVuSans-63" d="M 3122 3366 
L 3122 2828 
Q 2878 2963 2633 3030 
Q 2388 3097 2138 3097 
Q 1578 3097 1268 2742 
Q 959 2388 959 1747 
Q 959 1106 1268 751 
Q 1578 397 2138 397 
Q 2388 397 2633 464 
Q 2878 531 3122 666 
L 3122 134 
Q 2881 22 2623 -34 
Q 2366 -91 2075 -91 
Q 1284 -91 818 406 
Q 353 903 353 1747 
Q 353 2603 823 3093 
Q 1294 3584 2113 3584 
Q 2378 3584 2631 3529 
Q 2884 3475 3122 3366 
z
" transform="scale(0.015625)"/>
      <path id="DejaVuSans-75" d="M 544 1381 
L 544 3500 
L 1119 3500 
L 1119 1403 
Q 1119 906 1312 657 
Q 1506 409 1894 409 
Q 2359 409 2629 706 
Q 2900 1003 2900 1516 
L 2900 3500 
L 3475 3500 
L 3475 0 
L 2900 0 
L 2900 538 
Q 2691 219 2414 64 
Q 2138 -91 1772 -91 
Q 1169 -91 856 284 
Q 544 659 544 1381 
z
M 1991 3584 
L 1991 3584 
z
" transform="scale(0.015625)"/>
      <path id="DejaVuSans-66" d="M 2375 4863 
L 2375 4384 
L 1825 4384 
Q 1516 4384 1395 4259 
Q 1275 4134 1275 3809 
L 1275 3500 
L 2222 3500 
L 2222 3053 
L 1275 3053 
L 1275 0 
L 697 0 
L 697 3053 
L 147 3053 
L 147 3500 
L 697 3500 
L 697 3744 
Q 697 4328 969 4595 
Q 1241 4863 1831 4863 
L 2375 4863 
z
" transform="scale(0.015625)"/>
      <path id="DejaVuSans-68" d="M 3513 2113 
L 3513 0 
L 2938 0 
L 2938 2094 
Q 2938 2591 2744 2837 
Q 2550 3084 2163 3084 
Q 1697 3084 1428 2787 
Q 1159 2491 1159 1978 
L 1159 0 
L 581 0 
L 581 4863 
L 1159 4863 
L 1159 2956 
Q 1366 3272 1645 3428 
Q 1925 3584 2291 3584 
Q 2894 3584 3203 3211 
Q 3513 2838 3513 2113 
z
" transform="scale(0.015625)"/>
      <path id="DejaVuSans-4d" d="M 628 4666 
L 1569 4666 
L 2759 1491 
L 3956 4666 
L 4897 4666 
L 4897 0 
L 4281 0 
L 4281 4097 
L 3078 897 
L 2444 897 
L 1241 4097 
L 1241 0 
L 628 0 
L 628 4666 
z
" transform="scale(0.015625)"/>
      <path id="DejaVuSans-43" d="M 4122 4306 
L 4122 3641 
Q 3803 3938 3442 4084 
Q 3081 4231 2675 4231 
Q 1875 4231 1450 3742 
Q 1025 3253 1025 2328 
Q 1025 1406 1450 917 
Q 1875 428 2675 428 
Q 3081 428 3442 575 
Q 3803 722 4122 1019 
L 4122 359 
Q 3791 134 3420 21 
Q 3050 -91 2638 -91 
Q 1578 -91 968 557 
Q 359 1206 359 2328 
Q 359 3453 968 4101 
Q 1578 4750 2638 4750 
Q 3056 4750 3426 4639 
Q 3797 4528 4122 4306 
z
" transform="scale(0.015625)"/>
      <path id="DejaVuSans-55" d="M 556 4666 
L 1191 4666 
L 1191 1831 
Q 1191 1081 1462 751 
Q 1734 422 2344 422 
Q 2950 422 3222 751 
Q 3494 1081 3494 1831 
L 3494 4666 
L 4128 4666 
L 4128 1753 
Q 4128 841 3676 375 
Q 3225 -91 2344 -91 
Q 1459 -91 1007 375 
Q 556 841 556 1753 
L 556 4666 
z
" transform="scale(0.015625)"/>
     </defs>
     <use xlink:href="#DejaVuSans-49"/>
     <use xlink:href="#DejaVuSans-6e" x="29.492188"/>
     <use xlink:href="#DejaVuSans-73" x="92.871094"/>
     <use xlink:href="#DejaVuSans-74" x="144.970703"/>
     <use xlink:href="#DejaVuSans-61" x="184.179688"/>
     <use xlink:href="#DejaVuSans-6e" x="245.458984"/>
     <use xlink:href="#DejaVuSans-74" x="308.837891"/>
     <use xlink:href="#DejaVuSans-20" x="348.046875"/>
     <use xlink:href="#DejaVuSans-70" x="379.833984"/>
     <use xlink:href="#DejaVuSans-6f" x="443.310547"/>
     <use xlink:href="#DejaVuSans-77" x="504.492188"/>
     <use xlink:href="#DejaVuSans-65" x="586.279297"/>
     <use xlink:href="#DejaVuSans-72" x="647.802734"/>
     <use xlink:href="#DejaVuSans-20" x="688.916016"/>
     <use xlink:href="#DejaVuSans-63" x="720.703125"/>
     <use xlink:href="#DejaVuSans-6f" x="775.683594"/>
     <use xlink:href="#DejaVuSans-6e" x="836.865234"/>
     <use xlink:href="#DejaVuSans-73" x="900.244141"/>
     <use xlink:href="#DejaVuSans-75" x="952.34375"/>
     <use xlink:href="#DejaVuSans-6d" x="1015.722656"/>
     <use xlink:href="#DejaVuSans-70" x="1113.134766"/>
     <use xlink:href="#DejaVuSans-74" x="1176.611328"/>
     <use xlink:href="#DejaVuSans-69" x="1215.820312"/>
     <use xlink:href="#DejaVuSans-6f" x="1243.603516"/>
     <use xlink:href="#DejaVuSans-6e" x="1304.785156"/>
     <use xlink:href="#DejaVuSans-20" x="1368.164062"/>
     <use xlink:href="#DejaVuSans-6f" x="1399.951172"/>
     <use xlink:href="#DejaVuSans-66" x="1461.132812"/>
     <use xlink:href="#DejaVuSans-20" x="1496.337891"/>
     <use xlink:href="#DejaVuSans-74" x="1528.125"/>
     <use xlink:href="#DejaVuSans-68" x="1567.333984"/>
     <use xlink:href="#DejaVuSans-65" x="1630.712891"/>
     <use xlink:href="#DejaVuSans-20" x="1692.236328"/>
     <use xlink:href="#DejaVuSans-4d" x="1724.023438"/>
     <use xlink:href="#DejaVuSans-43" x="1810.302734"/>
     <use xlink:href="#DejaVuSans-55" x="1880.126953"/>
    </g>
   </g>
  </g>
 </g>
 <defs>
  <clipPath id="p88842b9607">
   <rect x="81" y="43.2" width="502.2" height="277.2"/>
  </clipPath>
 </defs>
</svg>
