<?xml version="1.0" encoding="utf-8" standalone="no"?>
<!DOCTYPE svg PUBLIC "-//W3C//DTD SVG 1.1//EN"
  "http://www.w3.org/Graphics/SVG/1.1/DTD/svg11.dtd">
<svg xmlns:xlink="http://www.w3.org/1999/xlink" width="648pt" height="360pt" viewBox="0 0 648 360" xmlns="http://www.w3.org/2000/svg" version="1.1">
 <metadata>
  <rdf:RDF xmlns:dc="http://purl.org/dc/elements/1.1/" xmlns:cc="http://creativecommons.org/ns#" xmlns:rdf="http://www.w3.org/1999/02/22-rdf-syntax-ns#">
   <cc:Work>
    <dc:type rdf:resource="http://purl.org/dc/dcmitype/StillImage"/>
    <dc:date>2024-12-06T19:21:18.937634</dc:date>
    <dc:format>image/svg+xml</dc:format>
    <dc:creator>
     <cc:Agent>
      <dc:title>Matplotlib v3.9.2, https://matplotlib.org/</dc:title>
     </cc:Agent>
    </dc:creator>
   </cc:Work>
  </rdf:RDF>
 </metadata>
 <defs>
  <style type="text/css">*{stroke-linejoin: round; stroke-linecap: butt}</style>
 </defs>
 <g id="figure_1">
  <g id="patch_1">
   <path d="M 0 360 
L 648 360 
L 648 0 
L 0 0 
z
" style="fill: #ffffff"/>
  </g>
  <g id="axes_1">
   <g id="patch_2">
    <path d="M 81 320.4 
L 583.2 320.4 
L 583.2 43.2 
L 81 43.2 
z
" style="fill: #ffffff"/>
   </g>
   <g id="PolyCollection_1">
    <defs>
     <path id="mca2e87fc44" d="M 544.290395 -52.2 
L 544.290395 -168.612628 
L 544.290395 -52.2 
L 544.290395 -52.2 
z
" style="stroke: #008000; stroke-opacity: 0.5"/>
    </defs>
    <g clip-path="url(#p334c14d587)">
     <use xlink:href="#mca2e87fc44" x="0" y="360" style="fill: #008000; fill-opacity: 0.5; stroke: #008000; stroke-opacity: 0.5"/>
    </g>
   </g>
   <g id="PolyCollection_2">
    <path d="M 420.045499 307.8 
L 420.045499 105.10457 
L 420.096232 69.49602 
L 420.146965 69.49602 
L 420.197698 69.49602 
L 420.248431 69.49602 
L 420.299164 69.49602 
L 420.349896 69.49602 
L 420.400629 69.49602 
L 420.451362 69.49602 
L 420.502095 69.49602 
L 420.552828 69.49602 
L 420.603561 69.49602 
L 420.654294 69.49602 
L 420.705027 69.49602 
L 420.75576 69.49602 
L 420.806493 69.49602 
L 420.857226 69.49602 
L 420.907958 69.49602 
L 420.958691 69.49602 
L 421.009424 69.49602 
L 421.060157 69.49602 
L 421.11089 69.49602 
L 421.161623 69.49602 
L 421.212356 69.49602 
L 421.263089 69.49602 
L 421.313822 69.49602 
L 421.364555 69.49602 
L 421.415288 69.49602 
L 421.46602 69.49602 
L 421.516753 69.49602 
L 421.567486 69.49602 
L 421.618219 69.49602 
L 421.668952 69.49602 
L 421.719685 69.49602 
L 421.770418 69.49602 
L 421.821151 69.49602 
L 421.871884 69.49602 
L 421.922617 69.49602 
L 421.97335 69.49602 
L 422.024082 69.49602 
L 422.074815 69.49602 
L 422.125548 69.49602 
L 422.176281 69.49602 
L 422.227014 69.49602 
L 422.277747 69.49602 
L 422.32848 69.49602 
L 422.379213 69.49602 
L 422.429946 69.49602 
L 422.480679 69.49602 
L 422.531412 69.49602 
L 422.582144 69.49602 
L 422.632877 69.49602 
L 422.68361 69.49602 
L 422.734343 69.49602 
L 422.785076 69.49602 
L 422.835809 69.49602 
L 422.886542 69.49602 
L 422.937275 69.49602 
L 422.988008 69.49602 
L 423.038741 69.49602 
L 423.089474 69.49602 
L 423.140206 69.49602 
L 423.190939 69.49602 
L 423.241672 69.49602 
L 423.292405 69.49602 
L 423.343138 69.49602 
L 423.393871 69.49602 
L 423.444604 69.49602 
L 423.495337 69.49602 
L 423.54607 69.49602 
L 423.596803 69.49602 
L 423.647536 69.49602 
L 423.698268 69.49602 
L 423.749001 69.49602 
L 423.799734 69.49602 
L 423.850467 69.49602 
L 423.9012 69.49602 
L 423.951933 69.49602 
L 424.002666 69.49602 
L 424.053399 69.49602 
L 424.104132 69.49602 
L 424.154865 69.49602 
L 424.205598 69.49602 
L 424.256331 69.49602 
L 424.307063 69.49602 
L 424.357796 69.49602 
L 424.408529 69.49602 
L 424.459262 69.49602 
L 424.509995 69.49602 
L 424.560728 69.49602 
L 424.611461 69.49602 
L 424.662194 69.49602 
L 424.712927 69.49602 
L 424.76366 69.49602 
L 424.814393 69.49602 
L 424.865125 69.49602 
L 424.915858 69.49602 
L 424.966591 69.49602 
L 425.017324 69.49602 
L 425.068057 69.49602 
L 425.11879 69.49602 
L 425.169523 69.49602 
L 425.220256 69.49602 
L 425.270989 69.49602 
L 425.321722 69.49602 
L 425.372455 69.49602 
L 425.423187 69.49602 
L 425.47392 69.49602 
L 425.524653 69.49602 
L 425.575386 69.49602 
L 425.626119 69.49602 
L 425.676852 69.49602 
L 425.727585 69.49602 
L 425.778318 69.49602 
L 425.829051 69.49602 
L 425.879784 69.49602 
L 425.930517 69.49602 
L 425.981249 69.49602 
L 426.031982 69.49602 
L 426.082715 69.49602 
L 426.133448 69.49602 
L 426.184181 69.49602 
L 426.234914 69.49602 
L 426.285647 69.49602 
L 426.33638 69.49602 
L 426.387113 69.49602 
L 426.437846 69.49602 
L 426.488579 69.49602 
L 426.539311 69.49602 
L 426.590044 69.49602 
L 426.640777 69.49602 
L 426.69151 69.49602 
L 426.742243 69.49602 
L 426.792976 150.300098 
L 426.792976 307.8 
L 426.792976 307.8 
L 426.742243 307.8 
L 426.69151 307.8 
L 426.640777 307.8 
L 426.590044 307.8 
L 426.539311 307.8 
L 426.488579 307.8 
L 426.437846 307.8 
L 426.387113 307.8 
L 426.33638 307.8 
L 426.285647 307.8 
L 426.234914 307.8 
L 426.184181 307.8 
L 426.133448 307.8 
L 426.082715 307.8 
L 426.031982 307.8 
L 425.981249 307.8 
L 425.930517 307.8 
L 425.879784 307.8 
L 425.829051 307.8 
L 425.778318 307.8 
L 425.727585 307.8 
L 425.676852 307.8 
L 425.626119 307.8 
L 425.575386 307.8 
L 425.524653 307.8 
L 425.47392 307.8 
L 425.423187 307.8 
L 425.372455 307.8 
L 425.321722 307.8 
L 425.270989 307.8 
L 425.220256 307.8 
L 425.169523 307.8 
L 425.11879 307.8 
L 425.068057 307.8 
L 425.017324 307.8 
L 424.966591 307.8 
L 424.915858 307.8 
L 424.865125 307.8 
L 424.814393 307.8 
L 424.76366 307.8 
L 424.712927 307.8 
L 424.662194 307.8 
L 424.611461 307.8 
L 424.560728 307.8 
L 424.509995 307.8 
L 424.459262 307.8 
L 424.408529 307.8 
L 424.357796 307.8 
L 424.307063 307.8 
L 424.256331 307.8 
L 424.205598 307.8 
L 424.154865 307.8 
L 424.104132 307.8 
L 424.053399 307.8 
L 424.002666 307.8 
L 423.951933 307.8 
L 423.9012 307.8 
L 423.850467 307.8 
L 423.799734 307.8 
L 423.749001 307.8 
L 423.698268 307.8 
L 423.647536 307.8 
L 423.596803 307.8 
L 423.54607 307.8 
L 423.495337 307.8 
L 423.444604 307.8 
L 423.393871 307.8 
L 423.343138 307.8 
L 423.292405 307.8 
L 423.241672 307.8 
L 423.190939 307.8 
L 423.140206 307.8 
L 423.089474 307.8 
L 423.038741 307.8 
L 422.988008 307.8 
L 422.937275 307.8 
L 422.886542 307.8 
L 422.835809 307.8 
L 422.785076 307.8 
L 422.734343 307.8 
L 422.68361 307.8 
L 422.632877 307.8 
L 422.582144 307.8 
L 422.531412 307.8 
L 422.480679 307.8 
L 422.429946 307.8 
L 422.379213 307.8 
L 422.32848 307.8 
L 422.277747 307.8 
L 422.227014 307.8 
L 422.176281 307.8 
L 422.125548 307.8 
L 422.074815 307.8 
L 422.024082 307.8 
L 421.97335 307.8 
L 421.922617 307.8 
L 421.871884 307.8 
L 421.821151 307.8 
L 421.770418 307.8 
L 421.719685 307.8 
L 421.668952 307.8 
L 421.618219 307.8 
L 421.567486 307.8 
L 421.516753 307.8 
L 421.46602 307.8 
L 421.415288 307.8 
L 421.364555 307.8 
L 421.313822 307.8 
L 421.263089 307.8 
L 421.212356 307.8 
L 421.161623 307.8 
L 421.11089 307.8 
L 421.060157 307.8 
L 421.009424 307.8 
L 420.958691 307.8 
L 420.907958 307.8 
L 420.857226 307.8 
L 420.806493 307.8 
L 420.75576 307.8 
L 420.705027 307.8 
L 420.654294 307.8 
L 420.603561 307.8 
L 420.552828 307.8 
L 420.502095 307.8 
L 420.451362 307.8 
L 420.400629 307.8 
L 420.349896 307.8 
L 420.299164 307.8 
L 420.248431 307.8 
L 420.197698 307.8 
L 420.146965 307.8 
L 420.096232 307.8 
L 420.045499 307.8 
z
" clip-path="url(#p334c14d587)" style="fill: #ff0000; fill-opacity: 0.5; stroke: #ff0000; stroke-opacity: 0.5"/>
    <path d="M 482.193313 307.8 
L 482.193313 76.343637 
L 482.244046 70.865701 
L 482.294779 69.49602 
L 482.345512 69.49602 
L 482.396245 69.49602 
L 482.446978 69.49602 
L 482.497711 69.49602 
L 482.548444 69.49602 
L 482.599177 69.49602 
L 482.64991 69.49602 
L 482.700642 69.49602 
L 482.751375 69.49602 
L 482.802108 69.49602 
L 482.852841 69.49602 
L 482.903574 69.49602 
L 482.954307 69.49602 
L 483.00504 69.49602 
L 483.055773 69.49602 
L 483.106506 69.49602 
L 483.157239 69.49602 
L 483.207972 69.49602 
L 483.258705 69.49602 
L 483.309437 69.49602 
L 483.36017 69.49602 
L 483.410903 69.49602 
L 483.461636 69.49602 
L 483.512369 69.49602 
L 483.563102 69.49602 
L 483.613835 69.49602 
L 483.664568 69.49602 
L 483.715301 69.49602 
L 483.766034 69.49602 
L 483.816767 69.49602 
L 483.867499 69.49602 
L 483.918232 69.49602 
L 483.968965 69.49602 
L 484.019698 69.49602 
L 484.070431 69.49602 
L 484.121164 69.49602 
L 484.171897 69.49602 
L 484.22263 69.49602 
L 484.273363 69.49602 
L 484.324096 69.49602 
L 484.374829 69.49602 
L 484.425561 69.49602 
L 484.476294 69.49602 
L 484.527027 69.49602 
L 484.57776 69.49602 
L 484.628493 69.49602 
L 484.679226 69.49602 
L 484.729959 69.49602 
L 484.780692 69.49602 
L 484.831425 69.49602 
L 484.882158 69.49602 
L 484.932891 69.49602 
L 484.983623 69.49602 
L 485.034356 69.49602 
L 485.085089 69.49602 
L 485.135822 69.49602 
L 485.186555 69.49602 
L 485.237288 69.49602 
L 485.288021 69.49602 
L 485.338754 69.49602 
L 485.389487 69.49602 
L 485.44022 69.49602 
L 485.490953 69.49602 
L 485.541685 69.49602 
L 485.592418 69.49602 
L 485.643151 69.49602 
L 485.693884 69.49602 
L 485.744617 69.49602 
L 485.79535 69.49602 
L 485.846083 69.49602 
L 485.896816 69.49602 
L 485.947549 69.49602 
L 485.998282 69.49602 
L 486.049015 69.49602 
L 486.099747 69.49602 
L 486.15048 69.49602 
L 486.201213 69.49602 
L 486.251946 69.49602 
L 486.302679 69.49602 
L 486.353412 69.49602 
L 486.404145 69.49602 
L 486.454878 69.49602 
L 486.505611 69.49602 
L 486.556344 69.49602 
L 486.607077 69.49602 
L 486.657809 69.49602 
L 486.708542 69.49602 
L 486.759275 69.49602 
L 486.810008 69.49602 
L 486.860741 69.49602 
L 486.911474 69.49602 
L 486.962207 69.49602 
L 487.01294 69.49602 
L 487.063673 69.49602 
L 487.114406 69.49602 
L 487.165139 69.49602 
L 487.215871 69.49602 
L 487.266604 69.49602 
L 487.317337 69.49602 
L 487.36807 69.49602 
L 487.418803 69.49602 
L 487.469536 69.49602 
L 487.520269 69.49602 
L 487.571002 69.49602 
L 487.621735 69.49602 
L 487.672468 69.49602 
L 487.723201 69.49602 
L 487.773933 69.49602 
L 487.824666 69.49602 
L 487.875399 69.49602 
L 487.926132 69.49602 
L 487.976865 69.49602 
L 488.027598 69.49602 
L 488.078331 69.49602 
L 488.129064 69.49602 
L 488.179797 69.49602 
L 488.23053 69.49602 
L 488.281263 69.49602 
L 488.331995 69.49602 
L 488.382728 69.49602 
L 488.433461 69.49602 
L 488.484194 69.49602 
L 488.534927 69.49602 
L 488.58566 69.49602 
L 488.636393 69.49602 
L 488.687126 69.49602 
L 488.737859 69.49602 
L 488.788592 69.49602 
L 488.839325 69.49602 
L 488.890057 57.169681 
L 488.890057 307.8 
L 488.890057 307.8 
L 488.839325 307.8 
L 488.788592 307.8 
L 488.737859 307.8 
L 488.687126 307.8 
L 488.636393 307.8 
L 488.58566 307.8 
L 488.534927 307.8 
L 488.484194 307.8 
L 488.433461 307.8 
L 488.382728 307.8 
L 488.331995 307.8 
L 488.281263 307.8 
L 488.23053 307.8 
L 488.179797 307.8 
L 488.129064 307.8 
L 488.078331 307.8 
L 488.027598 307.8 
L 487.976865 307.8 
L 487.926132 307.8 
L 487.875399 307.8 
L 487.824666 307.8 
L 487.773933 307.8 
L 487.723201 307.8 
L 487.672468 307.8 
L 487.621735 307.8 
L 487.571002 307.8 
L 487.520269 307.8 
L 487.469536 307.8 
L 487.418803 307.8 
L 487.36807 307.8 
L 487.317337 307.8 
L 487.266604 307.8 
L 487.215871 307.8 
L 487.165139 307.8 
L 487.114406 307.8 
L 487.063673 307.8 
L 487.01294 307.8 
L 486.962207 307.8 
L 486.911474 307.8 
L 486.860741 307.8 
L 486.810008 307.8 
L 486.759275 307.8 
L 486.708542 307.8 
L 486.657809 307.8 
L 486.607077 307.8 
L 486.556344 307.8 
L 486.505611 307.8 
L 486.454878 307.8 
L 486.404145 307.8 
L 486.353412 307.8 
L 486.302679 307.8 
L 486.251946 307.8 
L 486.201213 307.8 
L 486.15048 307.8 
L 486.099747 307.8 
L 486.049015 307.8 
L 485.998282 307.8 
L 485.947549 307.8 
L 485.896816 307.8 
L 485.846083 307.8 
L 485.79535 307.8 
L 485.744617 307.8 
L 485.693884 307.8 
L 485.643151 307.8 
L 485.592418 307.8 
L 485.541685 307.8 
L 485.490953 307.8 
L 485.44022 307.8 
L 485.389487 307.8 
L 485.338754 307.8 
L 485.288021 307.8 
L 485.237288 307.8 
L 485.186555 307.8 
L 485.135822 307.8 
L 485.085089 307.8 
L 485.034356 307.8 
L 484.983623 307.8 
L 484.932891 307.8 
L 484.882158 307.8 
L 484.831425 307.8 
L 484.780692 307.8 
L 484.729959 307.8 
L 484.679226 307.8 
L 484.628493 307.8 
L 484.57776 307.8 
L 484.527027 307.8 
L 484.476294 307.8 
L 484.425561 307.8 
L 484.374829 307.8 
L 484.324096 307.8 
L 484.273363 307.8 
L 484.22263 307.8 
L 484.171897 307.8 
L 484.121164 307.8 
L 484.070431 307.8 
L 484.019698 307.8 
L 483.968965 307.8 
L 483.918232 307.8 
L 483.867499 307.8 
L 483.816767 307.8 
L 483.766034 307.8 
L 483.715301 307.8 
L 483.664568 307.8 
L 483.613835 307.8 
L 483.563102 307.8 
L 483.512369 307.8 
L 483.461636 307.8 
L 483.410903 307.8 
L 483.36017 307.8 
L 483.309437 307.8 
L 483.258705 307.8 
L 483.207972 307.8 
L 483.157239 307.8 
L 483.106506 307.8 
L 483.055773 307.8 
L 483.00504 307.8 
L 482.954307 307.8 
L 482.903574 307.8 
L 482.852841 307.8 
L 482.802108 307.8 
L 482.751375 307.8 
L 482.700642 307.8 
L 482.64991 307.8 
L 482.599177 307.8 
L 482.548444 307.8 
L 482.497711 307.8 
L 482.446978 307.8 
L 482.396245 307.8 
L 482.345512 307.8 
L 482.294779 307.8 
L 482.244046 307.8 
L 482.193313 307.8 
z
" clip-path="url(#p334c14d587)" style="fill: #ff0000; fill-opacity: 0.5; stroke: #ff0000; stroke-opacity: 0.5"/>
    <path d="M 544.341128 307.8 
L 544.341128 65.386978 
L 544.391861 69.49602 
L 544.442594 69.49602 
L 544.493327 69.49602 
L 544.544059 69.49602 
L 544.594792 69.49602 
L 544.645525 69.49602 
L 544.696258 69.49602 
L 544.746991 69.49602 
L 544.797724 69.49602 
L 544.848457 69.49602 
L 544.89919 69.49602 
L 544.949923 69.49602 
L 545.000656 69.49602 
L 545.051389 69.49602 
L 545.102121 69.49602 
L 545.152854 69.49602 
L 545.203587 69.49602 
L 545.25432 69.49602 
L 545.305053 69.49602 
L 545.355786 69.49602 
L 545.406519 69.49602 
L 545.457252 69.49602 
L 545.507985 69.49602 
L 545.558718 69.49602 
L 545.609451 69.49602 
L 545.660183 69.49602 
L 545.710916 69.49602 
L 545.761649 69.49602 
L 545.812382 69.49602 
L 545.863115 69.49602 
L 545.913848 69.49602 
L 545.964581 69.49602 
L 546.015314 69.49602 
L 546.066047 69.49602 
L 546.11678 69.49602 
L 546.167513 69.49602 
L 546.218245 69.49602 
L 546.268978 69.49602 
L 546.319711 69.49602 
L 546.370444 69.49602 
L 546.421177 69.49602 
L 546.47191 69.49602 
L 546.522643 69.49602 
L 546.573376 69.49602 
L 546.624109 69.49602 
L 546.674842 69.49602 
L 546.725575 69.49602 
L 546.776307 69.49602 
L 546.82704 69.49602 
L 546.877773 69.49602 
L 546.928506 69.49602 
L 546.979239 69.49602 
L 547.029972 69.49602 
L 547.080705 69.49602 
L 547.131438 69.49602 
L 547.182171 69.49602 
L 547.232904 69.49602 
L 547.283637 69.49602 
L 547.334369 69.49602 
L 547.385102 69.49602 
L 547.435835 69.49602 
L 547.486568 69.49602 
L 547.537301 69.49602 
L 547.588034 69.49602 
L 547.638767 69.49602 
L 547.6895 69.49602 
L 547.740233 69.49602 
L 547.790966 69.49602 
L 547.841699 69.49602 
L 547.892431 69.49602 
L 547.943164 69.49602 
L 547.993897 69.49602 
L 548.04463 69.49602 
L 548.095363 69.49602 
L 548.146096 69.49602 
L 548.196829 69.49602 
L 548.247562 69.49602 
L 548.298295 69.49602 
L 548.349028 69.49602 
L 548.399761 69.49602 
L 548.450493 69.49602 
L 548.501226 69.49602 
L 548.551959 69.49602 
L 548.602692 69.49602 
L 548.653425 69.49602 
L 548.704158 69.49602 
L 548.754891 69.49602 
L 548.805624 69.49602 
L 548.856357 69.49602 
L 548.90709 69.49602 
L 548.957823 69.49602 
L 549.008555 69.49602 
L 549.059288 69.49602 
L 549.110021 69.49602 
L 549.160754 69.49602 
L 549.211487 69.49602 
L 549.26222 69.49602 
L 549.312953 69.49602 
L 549.363686 69.49602 
L 549.414419 69.49602 
L 549.465152 69.49602 
L 549.515885 69.49602 
L 549.566618 69.49602 
L 549.61735 69.49602 
L 549.668083 69.49602 
L 549.718816 69.49602 
L 549.769549 69.49602 
L 549.820282 69.49602 
L 549.871015 69.49602 
L 549.921748 69.49602 
L 549.972481 69.49602 
L 550.023214 69.49602 
L 550.073947 69.49602 
L 550.12468 69.49602 
L 550.175412 69.49602 
L 550.226145 69.49602 
L 550.276878 69.49602 
L 550.327611 69.49602 
L 550.378344 69.49602 
L 550.429077 69.49602 
L 550.47981 69.49602 
L 550.530543 69.49602 
L 550.581276 69.49602 
L 550.632009 69.49602 
L 550.682742 69.49602 
L 550.733474 69.49602 
L 550.784207 69.49602 
L 550.83494 69.49602 
L 550.885673 69.49602 
L 550.936406 69.49602 
L 550.987139 70.865701 
L 551.037872 55.8 
L 551.037872 307.8 
L 551.037872 307.8 
L 550.987139 307.8 
L 550.936406 307.8 
L 550.885673 307.8 
L 550.83494 307.8 
L 550.784207 307.8 
L 550.733474 307.8 
L 550.682742 307.8 
L 550.632009 307.8 
L 550.581276 307.8 
L 550.530543 307.8 
L 550.47981 307.8 
L 550.429077 307.8 
L 550.378344 307.8 
L 550.327611 307.8 
L 550.276878 307.8 
L 550.226145 307.8 
L 550.175412 307.8 
L 550.12468 307.8 
L 550.073947 307.8 
L 550.023214 307.8 
L 549.972481 307.8 
L 549.921748 307.8 
L 549.871015 307.8 
L 549.820282 307.8 
L 549.769549 307.8 
L 549.718816 307.8 
L 549.668083 307.8 
L 549.61735 307.8 
L 549.566618 307.8 
L 549.515885 307.8 
L 549.465152 307.8 
L 549.414419 307.8 
L 549.363686 307.8 
L 549.312953 307.8 
L 549.26222 307.8 
L 549.211487 307.8 
L 549.160754 307.8 
L 549.110021 307.8 
L 549.059288 307.8 
L 549.008555 307.8 
L 548.957823 307.8 
L 548.90709 307.8 
L 548.856357 307.8 
L 548.805624 307.8 
L 548.754891 307.8 
L 548.704158 307.8 
L 548.653425 307.8 
L 548.602692 307.8 
L 548.551959 307.8 
L 548.501226 307.8 
L 548.450493 307.8 
L 548.399761 307.8 
L 548.349028 307.8 
L 548.298295 307.8 
L 548.247562 307.8 
L 548.196829 307.8 
L 548.146096 307.8 
L 548.095363 307.8 
L 548.04463 307.8 
L 547.993897 307.8 
L 547.943164 307.8 
L 547.892431 307.8 
L 547.841699 307.8 
L 547.790966 307.8 
L 547.740233 307.8 
L 547.6895 307.8 
L 547.638767 307.8 
L 547.588034 307.8 
L 547.537301 307.8 
L 547.486568 307.8 
L 547.435835 307.8 
L 547.385102 307.8 
L 547.334369 307.8 
L 547.283637 307.8 
L 547.232904 307.8 
L 547.182171 307.8 
L 547.131438 307.8 
L 547.080705 307.8 
L 547.029972 307.8 
L 546.979239 307.8 
L 546.928506 307.8 
L 546.877773 307.8 
L 546.82704 307.8 
L 546.776307 307.8 
L 546.725575 307.8 
L 546.674842 307.8 
L 546.624109 307.8 
L 546.573376 307.8 
L 546.522643 307.8 
L 546.47191 307.8 
L 546.421177 307.8 
L 546.370444 307.8 
L 546.319711 307.8 
L 546.268978 307.8 
L 546.218245 307.8 
L 546.167513 307.8 
L 546.11678 307.8 
L 546.066047 307.8 
L 546.015314 307.8 
L 545.964581 307.8 
L 545.913848 307.8 
L 545.863115 307.8 
L 545.812382 307.8 
L 545.761649 307.8 
L 545.710916 307.8 
L 545.660183 307.8 
L 545.609451 307.8 
L 545.558718 307.8 
L 545.507985 307.8 
L 545.457252 307.8 
L 545.406519 307.8 
L 545.355786 307.8 
L 545.305053 307.8 
L 545.25432 307.8 
L 545.203587 307.8 
L 545.152854 307.8 
L 545.102121 307.8 
L 545.051389 307.8 
L 545.000656 307.8 
L 544.949923 307.8 
L 544.89919 307.8 
L 544.848457 307.8 
L 544.797724 307.8 
L 544.746991 307.8 
L 544.696258 307.8 
L 544.645525 307.8 
L 544.594792 307.8 
L 544.544059 307.8 
L 544.493327 307.8 
L 544.442594 307.8 
L 544.391861 307.8 
L 544.341128 307.8 
z
" clip-path="url(#p334c14d587)" style="fill: #ff0000; fill-opacity: 0.5; stroke: #ff0000; stroke-opacity: 0.5"/>
   </g>
   <g id="matplotlib.axis_1">
    <g id="xtick_1">
     <g id="line2d_1">
      <defs>
       <path id="mb916f8a069" d="M 0 0 
L 0 3.5 
" style="stroke: #000000; stroke-width: 0.8"/>
      </defs>
      <g>
       <use xlink:href="#mb916f8a069" x="103.827273" y="320.4" style="stroke: #000000; stroke-width: 0.8"/>
      </g>
     </g>
     <g id="text_1">
      <!-- 8 -->
      <g transform="translate(100.646023 334.998438) scale(0.1 -0.1)">
       <defs>
        <path id="DejaVuSans-38" d="M 2034 2216 
Q 1584 2216 1326 1975 
Q 1069 1734 1069 1313 
Q 1069 891 1326 650 
Q 1584 409 2034 409 
Q 2484 409 2743 651 
Q 3003 894 3003 1313 
Q 3003 1734 2745 1975 
Q 2488 2216 2034 2216 
z
M 1403 2484 
Q 997 2584 770 2862 
Q 544 3141 544 3541 
Q 544 4100 942 4425 
Q 1341 4750 2034 4750 
Q 2731 4750 3128 4425 
Q 3525 4100 3525 3541 
Q 3525 3141 3298 2862 
Q 3072 2584 2669 2484 
Q 3125 2378 3379 2068 
Q 3634 1759 3634 1313 
Q 3634 634 3220 271 
Q 2806 -91 2034 -91 
Q 1263 -91 848 271 
Q 434 634 434 1313 
Q 434 1759 690 2068 
Q 947 2378 1403 2484 
z
M 1172 3481 
Q 1172 3119 1398 2916 
Q 1625 2713 2034 2713 
Q 2441 2713 2670 2916 
Q 2900 3119 2900 3481 
Q 2900 3844 2670 4047 
Q 2441 4250 2034 4250 
Q 1625 4250 1398 4047 
Q 1172 3844 1172 3481 
z
" transform="scale(0.015625)"/>
       </defs>
       <use xlink:href="#DejaVuSans-38"/>
      </g>
     </g>
    </g>
    <g id="xtick_2">
     <g id="line2d_2">
      <g>
       <use xlink:href="#mb916f8a069" x="205.293092" y="320.4" style="stroke: #000000; stroke-width: 0.8"/>
      </g>
     </g>
     <g id="text_2">
      <!-- 10 -->
      <g transform="translate(198.930592 334.998438) scale(0.1 -0.1)">
       <defs>
        <path id="DejaVuSans-31" d="M 794 531 
L 1825 531 
L 1825 4091 
L 703 3866 
L 703 4441 
L 1819 4666 
L 2450 4666 
L 2450 531 
L 3481 531 
L 3481 0 
L 794 0 
L 794 531 
z
" transform="scale(0.015625)"/>
        <path id="DejaVuSans-30" d="M 2034 4250 
Q 1547 4250 1301 3770 
Q 1056 3291 1056 2328 
Q 1056 1369 1301 889 
Q 1547 409 2034 409 
Q 2525 409 2770 889 
Q 3016 1369 3016 2328 
Q 3016 3291 2770 3770 
Q 2525 4250 2034 4250 
z
M 2034 4750 
Q 2819 4750 3233 4129 
Q 3647 3509 3647 2328 
Q 3647 1150 3233 529 
Q 2819 -91 2034 -91 
Q 1250 -91 836 529 
Q 422 1150 422 2328 
Q 422 3509 836 4129 
Q 1250 4750 2034 4750 
z
" transform="scale(0.015625)"/>
       </defs>
       <use xlink:href="#DejaVuSans-31"/>
       <use xlink:href="#DejaVuSans-30" x="63.623047"/>
      </g>
     </g>
    </g>
    <g id="xtick_3">
     <g id="line2d_3">
      <g>
       <use xlink:href="#mb916f8a069" x="306.758912" y="320.4" style="stroke: #000000; stroke-width: 0.8"/>
      </g>
     </g>
     <g id="text_3">
      <!-- 12 -->
      <g transform="translate(300.396412 334.998438) scale(0.1 -0.1)">
       <defs>
        <path id="DejaVuSans-32" d="M 1228 531 
L 3431 531 
L 3431 0 
L 469 0 
L 469 531 
Q 828 903 1448 1529 
Q 2069 2156 2228 2338 
Q 2531 2678 2651 2914 
Q 2772 3150 2772 3378 
Q 2772 3750 2511 3984 
Q 2250 4219 1831 4219 
Q 1534 4219 1204 4116 
Q 875 4013 500 3803 
L 500 4441 
Q 881 4594 1212 4672 
Q 1544 4750 1819 4750 
Q 2544 4750 2975 4387 
Q 3406 4025 3406 3419 
Q 3406 3131 3298 2873 
Q 3191 2616 2906 2266 
Q 2828 2175 2409 1742 
Q 1991 1309 1228 531 
z
" transform="scale(0.015625)"/>
       </defs>
       <use xlink:href="#DejaVuSans-31"/>
       <use xlink:href="#DejaVuSans-32" x="63.623047"/>
      </g>
     </g>
    </g>
    <g id="xtick_4">
     <g id="line2d_4">
      <g>
       <use xlink:href="#mb916f8a069" x="408.224731" y="320.4" style="stroke: #000000; stroke-width: 0.8"/>
      </g>
     </g>
     <g id="text_4">
      <!-- 14 -->
      <g transform="translate(401.862231 334.998438) scale(0.1 -0.1)">
       <defs>
        <path id="DejaVuSans-34" d="M 2419 4116 
L 825 1625 
L 2419 1625 
L 2419 4116 
z
M 2253 4666 
L 3047 4666 
L 3047 1625 
L 3713 1625 
L 3713 1100 
L 3047 1100 
L 3047 0 
L 2419 0 
L 2419 1100 
L 313 1100 
L 313 1709 
L 2253 4666 
z
" transform="scale(0.015625)"/>
       </defs>
       <use xlink:href="#DejaVuSans-31"/>
       <use xlink:href="#DejaVuSans-34" x="63.623047"/>
      </g>
     </g>
    </g>
    <g id="xtick_5">
     <g id="line2d_5">
      <g>
       <use xlink:href="#mb916f8a069" x="509.69055" y="320.4" style="stroke: #000000; stroke-width: 0.8"/>
      </g>
     </g>
     <g id="text_5">
      <!-- 16 -->
      <g transform="translate(503.32805 334.998438) scale(0.1 -0.1)">
       <defs>
        <path id="DejaVuSans-36" d="M 2113 2584 
Q 1688 2584 1439 2293 
Q 1191 2003 1191 1497 
Q 1191 994 1439 701 
Q 1688 409 2113 409 
Q 2538 409 2786 701 
Q 3034 994 3034 1497 
Q 3034 2003 2786 2293 
Q 2538 2584 2113 2584 
z
M 3366 4563 
L 3366 3988 
Q 3128 4100 2886 4159 
Q 2644 4219 2406 4219 
Q 1781 4219 1451 3797 
Q 1122 3375 1075 2522 
Q 1259 2794 1537 2939 
Q 1816 3084 2150 3084 
Q 2853 3084 3261 2657 
Q 3669 2231 3669 1497 
Q 3669 778 3244 343 
Q 2819 -91 2113 -91 
Q 1303 -91 875 529 
Q 447 1150 447 2328 
Q 447 3434 972 4092 
Q 1497 4750 2381 4750 
Q 2619 4750 2861 4703 
Q 3103 4656 3366 4563 
z
" transform="scale(0.015625)"/>
       </defs>
       <use xlink:href="#DejaVuSans-31"/>
       <use xlink:href="#DejaVuSans-36" x="63.623047"/>
      </g>
     </g>
    </g>
    <g id="text_6">
     <!-- Time [s] -->
     <g transform="translate(311.771094 348.676562) scale(0.1 -0.1)">
      <defs>
       <path id="DejaVuSans-54" d="M -19 4666 
L 3928 4666 
L 3928 4134 
L 2272 4134 
L 2272 0 
L 1638 0 
L 1638 4134 
L -19 4134 
L -19 4666 
z
" transform="scale(0.015625)"/>
       <path id="DejaVuSans-69" d="M 603 3500 
L 1178 3500 
L 1178 0 
L 603 0 
L 603 3500 
z
M 603 4863 
L 1178 4863 
L 1178 4134 
L 603 4134 
L 603 4863 
z
" transform="scale(0.015625)"/>
       <path id="DejaVuSans-6d" d="M 3328 2828 
Q 3544 3216 3844 3400 
Q 4144 3584 4550 3584 
Q 5097 3584 5394 3201 
Q 5691 2819 5691 2113 
L 5691 0 
L 5113 0 
L 5113 2094 
Q 5113 2597 4934 2840 
Q 4756 3084 4391 3084 
Q 3944 3084 3684 2787 
Q 3425 2491 3425 1978 
L 3425 0 
L 2847 0 
L 2847 2094 
Q 2847 2600 2669 2842 
Q 2491 3084 2119 3084 
Q 1678 3084 1418 2786 
Q 1159 2488 1159 1978 
L 1159 0 
L 581 0 
L 581 3500 
L 1159 3500 
L 1159 2956 
Q 1356 3278 1631 3431 
Q 1906 3584 2284 3584 
Q 2666 3584 2933 3390 
Q 3200 3197 3328 2828 
z
" transform="scale(0.015625)"/>
       <path id="DejaVuSans-65" d="M 3597 1894 
L 3597 1613 
L 953 1613 
Q 991 1019 1311 708 
Q 1631 397 2203 397 
Q 2534 397 2845 478 
Q 3156 559 3463 722 
L 3463 178 
Q 3153 47 2828 -22 
Q 2503 -91 2169 -91 
Q 1331 -91 842 396 
Q 353 884 353 1716 
Q 353 2575 817 3079 
Q 1281 3584 2069 3584 
Q 2775 3584 3186 3129 
Q 3597 2675 3597 1894 
z
M 3022 2063 
Q 3016 2534 2758 2815 
Q 2500 3097 2075 3097 
Q 1594 3097 1305 2825 
Q 1016 2553 972 2059 
L 3022 2063 
z
" transform="scale(0.015625)"/>
       <path id="DejaVuSans-20" transform="scale(0.015625)"/>
       <path id="DejaVuSans-5b" d="M 550 4863 
L 1875 4863 
L 1875 4416 
L 1125 4416 
L 1125 -397 
L 1875 -397 
L 1875 -844 
L 550 -844 
L 550 4863 
z
" transform="scale(0.015625)"/>
       <path id="DejaVuSans-73" d="M 2834 3397 
L 2834 2853 
Q 2591 2978 2328 3040 
Q 2066 3103 1784 3103 
Q 1356 3103 1142 2972 
Q 928 2841 928 2578 
Q 928 2378 1081 2264 
Q 1234 2150 1697 2047 
L 1894 2003 
Q 2506 1872 2764 1633 
Q 3022 1394 3022 966 
Q 3022 478 2636 193 
Q 2250 -91 1575 -91 
Q 1294 -91 989 -36 
Q 684 19 347 128 
L 347 722 
Q 666 556 975 473 
Q 1284 391 1588 391 
Q 1994 391 2212 530 
Q 2431 669 2431 922 
Q 2431 1156 2273 1281 
Q 2116 1406 1581 1522 
L 1381 1569 
Q 847 1681 609 1914 
Q 372 2147 372 2553 
Q 372 3047 722 3315 
Q 1072 3584 1716 3584 
Q 2034 3584 2315 3537 
Q 2597 3491 2834 3397 
z
" transform="scale(0.015625)"/>
       <path id="DejaVuSans-5d" d="M 1947 4863 
L 1947 -844 
L 622 -844 
L 622 -397 
L 1369 -397 
L 1369 4416 
L 622 4416 
L 622 4863 
L 1947 4863 
z
" transform="scale(0.015625)"/>
      </defs>
      <use xlink:href="#DejaVuSans-54"/>
      <use xlink:href="#DejaVuSans-69" x="57.958984"/>
      <use xlink:href="#DejaVuSans-6d" x="85.742188"/>
      <use xlink:href="#DejaVuSans-65" x="183.154297"/>
      <use xlink:href="#DejaVuSans-20" x="244.677734"/>
      <use xlink:href="#DejaVuSans-5b" x="276.464844"/>
      <use xlink:href="#DejaVuSans-73" x="315.478516"/>
      <use xlink:href="#DejaVuSans-5d" x="367.578125"/>
     </g>
    </g>
   </g>
   <g id="matplotlib.axis_2">
    <g id="ytick_1">
     <g id="line2d_6">
      <defs>
       <path id="m4be18f5996" d="M 0 0 
L -3.5 0 
" style="stroke: #000000; stroke-width: 0.8"/>
      </defs>
      <g>
       <use xlink:href="#m4be18f5996" x="81" y="307.8" style="stroke: #000000; stroke-width: 0.8"/>
      </g>
     </g>
     <g id="text_7">
      <!-- 0 -->
      <g transform="translate(67.6375 311.599219) scale(0.1 -0.1)">
       <use xlink:href="#DejaVuSans-30"/>
      </g>
     </g>
    </g>
    <g id="ytick_2">
     <g id="line2d_7">
      <g>
       <use xlink:href="#m4be18f5996" x="81" y="248.131399" style="stroke: #000000; stroke-width: 0.8"/>
      </g>
     </g>
     <g id="text_8">
      <!-- 5 -->
      <g transform="translate(67.6375 251.930618) scale(0.1 -0.1)">
       <defs>
        <path id="DejaVuSans-35" d="M 691 4666 
L 3169 4666 
L 3169 4134 
L 1269 4134 
L 1269 2991 
Q 1406 3038 1543 3061 
Q 1681 3084 1819 3084 
Q 2600 3084 3056 2656 
Q 3513 2228 3513 1497 
Q 3513 744 3044 326 
Q 2575 -91 1722 -91 
Q 1428 -91 1123 -41 
Q 819 9 494 109 
L 494 744 
Q 775 591 1075 516 
Q 1375 441 1709 441 
Q 2250 441 2565 725 
Q 2881 1009 2881 1497 
Q 2881 1984 2565 2268 
Q 2250 2553 1709 2553 
Q 1456 2553 1204 2497 
Q 953 2441 691 2322 
L 691 4666 
z
" transform="scale(0.015625)"/>
       </defs>
       <use xlink:href="#DejaVuSans-35"/>
      </g>
     </g>
    </g>
    <g id="ytick_3">
     <g id="line2d_8">
      <g>
       <use xlink:href="#m4be18f5996" x="81" y="188.462799" style="stroke: #000000; stroke-width: 0.8"/>
      </g>
     </g>
     <g id="text_9">
      <!-- 10 -->
      <g transform="translate(61.275 192.262018) scale(0.1 -0.1)">
       <use xlink:href="#DejaVuSans-31"/>
       <use xlink:href="#DejaVuSans-30" x="63.623047"/>
      </g>
     </g>
    </g>
    <g id="ytick_4">
     <g id="line2d_9">
      <g>
       <use xlink:href="#m4be18f5996" x="81" y="128.794198" style="stroke: #000000; stroke-width: 0.8"/>
      </g>
     </g>
     <g id="text_10">
      <!-- 15 -->
      <g transform="translate(61.275 132.593417) scale(0.1 -0.1)">
       <use xlink:href="#DejaVuSans-31"/>
       <use xlink:href="#DejaVuSans-35" x="63.623047"/>
      </g>
     </g>
    </g>
    <g id="ytick_5">
     <g id="line2d_10">
      <g>
       <use xlink:href="#m4be18f5996" x="81" y="69.125598" style="stroke: #000000; stroke-width: 0.8"/>
      </g>
     </g>
     <g id="text_11">
      <!-- 20 -->
      <g transform="translate(61.275 72.924816) scale(0.1 -0.1)">
       <use xlink:href="#DejaVuSans-32"/>
       <use xlink:href="#DejaVuSans-30" x="63.623047"/>
      </g>
     </g>
    </g>
    <g id="text_12">
     <!-- Power [mW] -->
     <g transform="translate(55.195312 212.21875) rotate(-90) scale(0.1 -0.1)">
      <defs>
       <path id="DejaVuSans-50" d="M 1259 4147 
L 1259 2394 
L 2053 2394 
Q 2494 2394 2734 2622 
Q 2975 2850 2975 3272 
Q 2975 3691 2734 3919 
Q 2494 4147 2053 4147 
L 1259 4147 
z
M 628 4666 
L 2053 4666 
Q 2838 4666 3239 4311 
Q 3641 3956 3641 3272 
Q 3641 2581 3239 2228 
Q 2838 1875 2053 1875 
L 1259 1875 
L 1259 0 
L 628 0 
L 628 4666 
z
" transform="scale(0.015625)"/>
       <path id="DejaVuSans-6f" d="M 1959 3097 
Q 1497 3097 1228 2736 
Q 959 2375 959 1747 
Q 959 1119 1226 758 
Q 1494 397 1959 397 
Q 2419 397 2687 759 
Q 2956 1122 2956 1747 
Q 2956 2369 2687 2733 
Q 2419 3097 1959 3097 
z
M 1959 3584 
Q 2709 3584 3137 3096 
Q 3566 2609 3566 1747 
Q 3566 888 3137 398 
Q 2709 -91 1959 -91 
Q 1206 -91 779 398 
Q 353 888 353 1747 
Q 353 2609 779 3096 
Q 1206 3584 1959 3584 
z
" transform="scale(0.015625)"/>
       <path id="DejaVuSans-77" d="M 269 3500 
L 844 3500 
L 1563 769 
L 2278 3500 
L 2956 3500 
L 3675 769 
L 4391 3500 
L 4966 3500 
L 4050 0 
L 3372 0 
L 2619 2869 
L 1863 0 
L 1184 0 
L 269 3500 
z
" transform="scale(0.015625)"/>
       <path id="DejaVuSans-72" d="M 2631 2963 
Q 2534 3019 2420 3045 
Q 2306 3072 2169 3072 
Q 1681 3072 1420 2755 
Q 1159 2438 1159 1844 
L 1159 0 
L 581 0 
L 581 3500 
L 1159 3500 
L 1159 2956 
Q 1341 3275 1631 3429 
Q 1922 3584 2338 3584 
Q 2397 3584 2469 3576 
Q 2541 3569 2628 3553 
L 2631 2963 
z
" transform="scale(0.015625)"/>
       <path id="DejaVuSans-57" d="M 213 4666 
L 850 4666 
L 1831 722 
L 2809 4666 
L 3519 4666 
L 4500 722 
L 5478 4666 
L 6119 4666 
L 4947 0 
L 4153 0 
L 3169 4050 
L 2175 0 
L 1381 0 
L 213 4666 
z
" transform="scale(0.015625)"/>
      </defs>
      <use xlink:href="#DejaVuSans-50"/>
      <use xlink:href="#DejaVuSans-6f" x="56.677734"/>
      <use xlink:href="#DejaVuSans-77" x="117.859375"/>
      <use xlink:href="#DejaVuSans-65" x="199.646484"/>
      <use xlink:href="#DejaVuSans-72" x="261.169922"/>
      <use xlink:href="#DejaVuSans-20" x="302.283203"/>
      <use xlink:href="#DejaVuSans-5b" x="334.070312"/>
      <use xlink:href="#DejaVuSans-6d" x="373.083984"/>
      <use xlink:href="#DejaVuSans-57" x="470.496094"/>
      <use xlink:href="#DejaVuSans-5d" x="569.373047"/>
     </g>
    </g>
   </g>
   <g id="line2d_11">
    <path d="M 103.827273 306.430437 
L 419.8933 306.430437 
L 419.944033 302.321749 
L 420.197698 69.49602 
L 426.742243 69.49602 
L 426.995908 306.430437 
L 482.041115 306.430437 
L 482.091848 305.060875 
L 482.294779 69.49602 
L 488.839325 69.49602 
L 488.890057 57.169681 
L 488.991523 307.8 
L 489.042256 306.430437 
L 544.138196 306.430437 
L 544.188929 305.060875 
L 544.239662 299.582624 
L 544.341128 65.386978 
L 544.442594 69.49602 
L 550.936406 69.49602 
L 550.987139 70.865701 
L 551.037872 55.8 
L 551.190071 306.430437 
L 560.372727 306.430437 
L 560.372727 306.430437 
" clip-path="url(#p334c14d587)" style="fill: none; stroke: #1f77b4; stroke-width: 1.5; stroke-linecap: square"/>
   </g>
   <g id="patch_3">
    <path d="M 81 320.4 
L 81 43.2 
" style="fill: none; stroke: #000000; stroke-width: 0.8; stroke-linejoin: miter; stroke-linecap: square"/>
   </g>
   <g id="patch_4">
    <path d="M 583.2 320.4 
L 583.2 43.2 
" style="fill: none; stroke: #000000; stroke-width: 0.8; stroke-linejoin: miter; stroke-linecap: square"/>
   </g>
   <g id="patch_5">
    <path d="M 81 320.4 
L 583.2 320.4 
" style="fill: none; stroke: #000000; stroke-width: 0.8; stroke-linejoin: miter; stroke-linecap: square"/>
   </g>
   <g id="patch_6">
    <path d="M 81 43.2 
L 583.2 43.2 
" style="fill: none; stroke: #000000; stroke-width: 0.8; stroke-linejoin: miter; stroke-linecap: square"/>
   </g>
   <g id="text_13">
    <!-- Energy consumption of the MCU during subtasks (2) and (3)  -->
    <g transform="translate(149.653125 23.762625) scale(0.12 -0.12)">
     <defs>
      <path id="DejaVuSans-45" d="M 628 4666 
L 3578 4666 
L 3578 4134 
L 1259 4134 
L 1259 2753 
L 3481 2753 
L 3481 2222 
L 1259 2222 
L 1259 531 
L 3634 531 
L 3634 0 
L 628 0 
L 628 4666 
z
" transform="scale(0.015625)"/>
      <path id="DejaVuSans-6e" d="M 3513 2113 
L 3513 0 
L 2938 0 
L 2938 2094 
Q 2938 2591 2744 2837 
Q 2550 3084 2163 3084 
Q 1697 3084 1428 2787 
Q 1159 2491 1159 1978 
L 1159 0 
L 581 0 
L 581 3500 
L 1159 3500 
L 1159 2956 
Q 1366 3272 1645 3428 
Q 1925 3584 2291 3584 
Q 2894 3584 3203 3211 
Q 3513 2838 3513 2113 
z
" transform="scale(0.015625)"/>
      <path id="DejaVuSans-67" d="M 2906 1791 
Q 2906 2416 2648 2759 
Q 2391 3103 1925 3103 
Q 1463 3103 1205 2759 
Q 947 2416 947 1791 
Q 947 1169 1205 825 
Q 1463 481 1925 481 
Q 2391 481 2648 825 
Q 2906 1169 2906 1791 
z
M 3481 434 
Q 3481 -459 3084 -895 
Q 2688 -1331 1869 -1331 
Q 1566 -1331 1297 -1286 
Q 1028 -1241 775 -1147 
L 775 -588 
Q 1028 -725 1275 -790 
Q 1522 -856 1778 -856 
Q 2344 -856 2625 -561 
Q 2906 -266 2906 331 
L 2906 616 
Q 2728 306 2450 153 
Q 2172 0 1784 0 
Q 1141 0 747 490 
Q 353 981 353 1791 
Q 353 2603 747 3093 
Q 1141 3584 1784 3584 
Q 2172 3584 2450 3431 
Q 2728 3278 2906 2969 
L 2906 3500 
L 3481 3500 
L 3481 434 
z
" transform="scale(0.015625)"/>
      <path id="DejaVuSans-79" d="M 2059 -325 
Q 1816 -950 1584 -1140 
Q 1353 -1331 966 -1331 
L 506 -1331 
L 506 -850 
L 844 -850 
Q 1081 -850 1212 -737 
Q 1344 -625 1503 -206 
L 1606 56 
L 191 3500 
L 800 3500 
L 1894 763 
L 2988 3500 
L 3597 3500 
L 2059 -325 
z
" transform="scale(0.015625)"/>
      <path id="DejaVuSans-63" d="M 3122 3366 
L 3122 2828 
Q 2878 2963 2633 3030 
Q 2388 3097 2138 3097 
Q 1578 3097 1268 2742 
Q 959 2388 959 1747 
Q 959 1106 1268 751 
Q 1578 397 2138 397 
Q 2388 397 2633 464 
Q 2878 531 3122 666 
L 3122 134 
Q 2881 22 2623 -34 
Q 2366 -91 2075 -91 
Q 1284 -91 818 406 
Q 353 903 353 1747 
Q 353 2603 823 3093 
Q 1294 3584 2113 3584 
Q 2378 3584 2631 3529 
Q 2884 3475 3122 3366 
z
" transform="scale(0.015625)"/>
      <path id="DejaVuSans-75" d="M 544 1381 
L 544 3500 
L 1119 3500 
L 1119 1403 
Q 1119 906 1312 657 
Q 1506 409 1894 409 
Q 2359 409 2629 706 
Q 2900 1003 2900 1516 
L 2900 3500 
L 3475 3500 
L 3475 0 
L 2900 0 
L 2900 538 
Q 2691 219 2414 64 
Q 2138 -91 1772 -91 
Q 1169 -91 856 284 
Q 544 659 544 1381 
z
M 1991 3584 
L 1991 3584 
z
" transform="scale(0.015625)"/>
      <path id="DejaVuSans-70" d="M 1159 525 
L 1159 -1331 
L 581 -1331 
L 581 3500 
L 1159 3500 
L 1159 2969 
Q 1341 3281 1617 3432 
Q 1894 3584 2278 3584 
Q 2916 3584 3314 3078 
Q 3713 2572 3713 1747 
Q 3713 922 3314 415 
Q 2916 -91 2278 -91 
Q 1894 -91 1617 61 
Q 1341 213 1159 525 
z
M 3116 1747 
Q 3116 2381 2855 2742 
Q 2594 3103 2138 3103 
Q 1681 3103 1420 2742 
Q 1159 2381 1159 1747 
Q 1159 1113 1420 752 
Q 1681 391 2138 391 
Q 2594 391 2855 752 
Q 3116 1113 3116 1747 
z
" transform="scale(0.015625)"/>
      <path id="DejaVuSans-74" d="M 1172 4494 
L 1172 3500 
L 2356 3500 
L 2356 3053 
L 1172 3053 
L 1172 1153 
Q 1172 725 1289 603 
Q 1406 481 1766 481 
L 2356 481 
L 2356 0 
L 1766 0 
Q 1100 0 847 248 
Q 594 497 594 1153 
L 594 3053 
L 172 3053 
L 172 3500 
L 594 3500 
L 594 4494 
L 1172 4494 
z
" transform="scale(0.015625)"/>
      <path id="DejaVuSans-66" d="M 2375 4863 
L 2375 4384 
L 1825 4384 
Q 1516 4384 1395 4259 
Q 1275 4134 1275 3809 
L 1275 3500 
L 2222 3500 
L 2222 3053 
L 1275 3053 
L 1275 0 
L 697 0 
L 697 3053 
L 147 3053 
L 147 3500 
L 697 3500 
L 697 3744 
Q 697 4328 969 4595 
Q 1241 4863 1831 4863 
L 2375 4863 
z
" transform="scale(0.015625)"/>
      <path id="DejaVuSans-68" d="M 3513 2113 
L 3513 0 
L 2938 0 
L 2938 2094 
Q 2938 2591 2744 2837 
Q 2550 3084 2163 3084 
Q 1697 3084 1428 2787 
Q 1159 2491 1159 1978 
L 1159 0 
L 581 0 
L 581 4863 
L 1159 4863 
L 1159 2956 
Q 1366 3272 1645 3428 
Q 1925 3584 2291 3584 
Q 2894 3584 3203 3211 
Q 3513 2838 3513 2113 
z
" transform="scale(0.015625)"/>
      <path id="DejaVuSans-4d" d="M 628 4666 
L 1569 4666 
L 2759 1491 
L 3956 4666 
L 4897 4666 
L 4897 0 
L 4281 0 
L 4281 4097 
L 3078 897 
L 2444 897 
L 1241 4097 
L 1241 0 
L 628 0 
L 628 4666 
z
" transform="scale(0.015625)"/>
      <path id="DejaVuSans-43" d="M 4122 4306 
L 4122 3641 
Q 3803 3938 3442 4084 
Q 3081 4231 2675 4231 
Q 1875 4231 1450 3742 
Q 1025 3253 1025 2328 
Q 1025 1406 1450 917 
Q 1875 428 2675 428 
Q 3081 428 3442 575 
Q 3803 722 4122 1019 
L 4122 359 
Q 3791 134 3420 21 
Q 3050 -91 2638 -91 
Q 1578 -91 968 557 
Q 359 1206 359 2328 
Q 359 3453 968 4101 
Q 1578 4750 2638 4750 
Q 3056 4750 3426 4639 
Q 3797 4528 4122 4306 
z
" transform="scale(0.015625)"/>
      <path id="DejaVuSans-55" d="M 556 4666 
L 1191 4666 
L 1191 1831 
Q 1191 1081 1462 751 
Q 1734 422 2344 422 
Q 2950 422 3222 751 
Q 3494 1081 3494 1831 
L 3494 4666 
L 4128 4666 
L 4128 1753 
Q 4128 841 3676 375 
Q 3225 -91 2344 -91 
Q 1459 -91 1007 375 
Q 556 841 556 1753 
L 556 4666 
z
" transform="scale(0.015625)"/>
      <path id="DejaVuSans-64" d="M 2906 2969 
L 2906 4863 
L 3481 4863 
L 3481 0 
L 2906 0 
L 2906 525 
Q 2725 213 2448 61 
Q 2172 -91 1784 -91 
Q 1150 -91 751 415 
Q 353 922 353 1747 
Q 353 2572 751 3078 
Q 1150 3584 1784 3584 
Q 2172 3584 2448 3432 
Q 2725 3281 2906 2969 
z
M 947 1747 
Q 947 1113 1208 752 
Q 1469 391 1925 391 
Q 2381 391 2643 752 
Q 2906 1113 2906 1747 
Q 2906 2381 2643 2742 
Q 2381 3103 1925 3103 
Q 1469 3103 1208 2742 
Q 947 2381 947 1747 
z
" transform="scale(0.015625)"/>
      <path id="DejaVuSans-62" d="M 3116 1747 
Q 3116 2381 2855 2742 
Q 2594 3103 2138 3103 
Q 1681 3103 1420 2742 
Q 1159 2381 1159 1747 
Q 1159 1113 1420 752 
Q 1681 391 2138 391 
Q 2594 391 2855 752 
Q 3116 1113 3116 1747 
z
M 1159 2969 
Q 1341 3281 1617 3432 
Q 1894 3584 2278 3584 
Q 2916 3584 3314 3078 
Q 3713 2572 3713 1747 
Q 3713 922 3314 415 
Q 2916 -91 2278 -91 
Q 1894 -91 1617 61 
Q 1341 213 1159 525 
L 1159 0 
L 581 0 
L 581 4863 
L 1159 4863 
L 1159 2969 
z
" transform="scale(0.015625)"/>
      <path id="DejaVuSans-61" d="M 2194 1759 
Q 1497 1759 1228 1600 
Q 959 1441 959 1056 
Q 959 750 1161 570 
Q 1363 391 1709 391 
Q 2188 391 2477 730 
Q 2766 1069 2766 1631 
L 2766 1759 
L 2194 1759 
z
M 3341 1997 
L 3341 0 
L 2766 0 
L 2766 531 
Q 2569 213 2275 61 
Q 1981 -91 1556 -91 
Q 1019 -91 701 211 
Q 384 513 384 1019 
Q 384 1609 779 1909 
Q 1175 2209 1959 2209 
L 2766 2209 
L 2766 2266 
Q 2766 2663 2505 2880 
Q 2244 3097 1772 3097 
Q 1472 3097 1187 3025 
Q 903 2953 641 2809 
L 641 3341 
Q 956 3463 1253 3523 
Q 1550 3584 1831 3584 
Q 2591 3584 2966 3190 
Q 3341 2797 3341 1997 
z
" transform="scale(0.015625)"/>
      <path id="DejaVuSans-6b" d="M 581 4863 
L 1159 4863 
L 1159 1991 
L 2875 3500 
L 3609 3500 
L 1753 1863 
L 3688 0 
L 2938 0 
L 1159 1709 
L 1159 0 
L 581 0 
L 581 4863 
z
" transform="scale(0.015625)"/>
      <path id="DejaVuSans-28" d="M 1984 4856 
Q 1566 4138 1362 3434 
Q 1159 2731 1159 2009 
Q 1159 1288 1364 580 
Q 1569 -128 1984 -844 
L 1484 -844 
Q 1016 -109 783 600 
Q 550 1309 550 2009 
Q 550 2706 781 3412 
Q 1013 4119 1484 4856 
L 1984 4856 
z
" transform="scale(0.015625)"/>
      <path id="DejaVuSans-29" d="M 513 4856 
L 1013 4856 
Q 1481 4119 1714 3412 
Q 1947 2706 1947 2009 
Q 1947 1309 1714 600 
Q 1481 -109 1013 -844 
L 513 -844 
Q 928 -128 1133 580 
Q 1338 1288 1338 2009 
Q 1338 2731 1133 3434 
Q 928 4138 513 4856 
z
" transform="scale(0.015625)"/>
      <path id="DejaVuSans-33" d="M 2597 2516 
Q 3050 2419 3304 2112 
Q 3559 1806 3559 1356 
Q 3559 666 3084 287 
Q 2609 -91 1734 -91 
Q 1441 -91 1130 -33 
Q 819 25 488 141 
L 488 750 
Q 750 597 1062 519 
Q 1375 441 1716 441 
Q 2309 441 2620 675 
Q 2931 909 2931 1356 
Q 2931 1769 2642 2001 
Q 2353 2234 1838 2234 
L 1294 2234 
L 1294 2753 
L 1863 2753 
Q 2328 2753 2575 2939 
Q 2822 3125 2822 3475 
Q 2822 3834 2567 4026 
Q 2313 4219 1838 4219 
Q 1578 4219 1281 4162 
Q 984 4106 628 3988 
L 628 4550 
Q 988 4650 1302 4700 
Q 1616 4750 1894 4750 
Q 2613 4750 3031 4423 
Q 3450 4097 3450 3541 
Q 3450 3153 3228 2886 
Q 3006 2619 2597 2516 
z
" transform="scale(0.015625)"/>
     </defs>
     <use xlink:href="#DejaVuSans-45"/>
     <use xlink:href="#DejaVuSans-6e" x="63.183594"/>
     <use xlink:href="#DejaVuSans-65" x="126.5625"/>
     <use xlink:href="#DejaVuSans-72" x="188.085938"/>
     <use xlink:href="#DejaVuSans-67" x="227.449219"/>
     <use xlink:href="#DejaVuSans-79" x="290.925781"/>
     <use xlink:href="#DejaVuSans-20" x="350.105469"/>
     <use xlink:href="#DejaVuSans-63" x="381.892578"/>
     <use xlink:href="#DejaVuSans-6f" x="436.873047"/>
     <use xlink:href="#DejaVuSans-6e" x="498.054688"/>
     <use xlink:href="#DejaVuSans-73" x="561.433594"/>
     <use xlink:href="#DejaVuSans-75" x="613.533203"/>
     <use xlink:href="#DejaVuSans-6d" x="676.912109"/>
     <use xlink:href="#DejaVuSans-70" x="774.324219"/>
     <use xlink:href="#DejaVuSans-74" x="837.800781"/>
     <use xlink:href="#DejaVuSans-69" x="877.009766"/>
     <use xlink:href="#DejaVuSans-6f" x="904.792969"/>
     <use xlink:href="#DejaVuSans-6e" x="965.974609"/>
     <use xlink:href="#DejaVuSans-20" x="1029.353516"/>
     <use xlink:href="#DejaVuSans-6f" x="1061.140625"/>
     <use xlink:href="#DejaVuSans-66" x="1122.322266"/>
     <use xlink:href="#DejaVuSans-20" x="1157.527344"/>
     <use xlink:href="#DejaVuSans-74" x="1189.314453"/>
     <use xlink:href="#DejaVuSans-68" x="1228.523438"/>
     <use xlink:href="#DejaVuSans-65" x="1291.902344"/>
     <use xlink:href="#DejaVuSans-20" x="1353.425781"/>
     <use xlink:href="#DejaVuSans-4d" x="1385.212891"/>
     <use xlink:href="#DejaVuSans-43" x="1471.492188"/>
     <use xlink:href="#DejaVuSans-55" x="1541.316406"/>
     <use xlink:href="#DejaVuSans-20" x="1614.509766"/>
     <use xlink:href="#DejaVuSans-64" x="1646.296875"/>
     <use xlink:href="#DejaVuSans-75" x="1709.773438"/>
     <use xlink:href="#DejaVuSans-72" x="1773.152344"/>
     <use xlink:href="#DejaVuSans-69" x="1814.265625"/>
     <use xlink:href="#DejaVuSans-6e" x="1842.048828"/>
     <use xlink:href="#DejaVuSans-67" x="1905.427734"/>
     <use xlink:href="#DejaVuSans-20" x="1968.904297"/>
     <use xlink:href="#DejaVuSans-73" x="2000.691406"/>
     <use xlink:href="#DejaVuSans-75" x="2052.791016"/>
     <use xlink:href="#DejaVuSans-62" x="2116.169922"/>
     <use xlink:href="#DejaVuSans-74" x="2179.646484"/>
     <use xlink:href="#DejaVuSans-61" x="2218.855469"/>
     <use xlink:href="#DejaVuSans-73" x="2280.134766"/>
     <use xlink:href="#DejaVuSans-6b" x="2332.234375"/>
     <use xlink:href="#DejaVuSans-73" x="2390.144531"/>
     <use xlink:href="#DejaVuSans-20" x="2442.244141"/>
     <use xlink:href="#DejaVuSans-28" x="2474.03125"/>
     <use xlink:href="#DejaVuSans-32" x="2513.044922"/>
     <use xlink:href="#DejaVuSans-29" x="2576.667969"/>
     <use xlink:href="#DejaVuSans-20" x="2615.681641"/>
     <use xlink:href="#DejaVuSans-61" x="2647.46875"/>
     <use xlink:href="#DejaVuSans-6e" x="2708.748047"/>
     <use xlink:href="#DejaVuSans-64" x="2772.126953"/>
     <use xlink:href="#DejaVuSans-20" x="2835.603516"/>
     <use xlink:href="#DejaVuSans-28" x="2867.390625"/>
     <use xlink:href="#DejaVuSans-33" x="2906.404297"/>
     <use xlink:href="#DejaVuSans-29" x="2970.027344"/>
     <use xlink:href="#DejaVuSans-20" x="3009.041016"/>
    </g>
    <!-- (Piechart 2 equivalent) -->
    <g transform="translate(263.63625 37.2) scale(0.12 -0.12)">
     <defs>
      <path id="DejaVuSans-71" d="M 947 1747 
Q 947 1113 1208 752 
Q 1469 391 1925 391 
Q 2381 391 2643 752 
Q 2906 1113 2906 1747 
Q 2906 2381 2643 2742 
Q 2381 3103 1925 3103 
Q 1469 3103 1208 2742 
Q 947 2381 947 1747 
z
M 2906 525 
Q 2725 213 2448 61 
Q 2172 -91 1784 -91 
Q 1150 -91 751 415 
Q 353 922 353 1747 
Q 353 2572 751 3078 
Q 1150 3584 1784 3584 
Q 2172 3584 2448 3432 
Q 2725 3281 2906 2969 
L 2906 3500 
L 3481 3500 
L 3481 -1331 
L 2906 -1331 
L 2906 525 
z
" transform="scale(0.015625)"/>
      <path id="DejaVuSans-76" d="M 191 3500 
L 800 3500 
L 1894 563 
L 2988 3500 
L 3597 3500 
L 2284 0 
L 1503 0 
L 191 3500 
z
" transform="scale(0.015625)"/>
      <path id="DejaVuSans-6c" d="M 603 4863 
L 1178 4863 
L 1178 0 
L 603 0 
L 603 4863 
z
" transform="scale(0.015625)"/>
     </defs>
     <use xlink:href="#DejaVuSans-28"/>
     <use xlink:href="#DejaVuSans-50" x="39.013672"/>
     <use xlink:href="#DejaVuSans-69" x="97.066406"/>
     <use xlink:href="#DejaVuSans-65" x="124.849609"/>
     <use xlink:href="#DejaVuSans-63" x="186.373047"/>
     <use xlink:href="#DejaVuSans-68" x="241.353516"/>
     <use xlink:href="#DejaVuSans-61" x="304.732422"/>
     <use xlink:href="#DejaVuSans-72" x="366.011719"/>
     <use xlink:href="#DejaVuSans-74" x="407.125"/>
     <use xlink:href="#DejaVuSans-20" x="446.333984"/>
     <use xlink:href="#DejaVuSans-32" x="478.121094"/>
     <use xlink:href="#DejaVuSans-20" x="541.744141"/>
     <use xlink:href="#DejaVuSans-65" x="573.53125"/>
     <use xlink:href="#DejaVuSans-71" x="635.054688"/>
     <use xlink:href="#DejaVuSans-75" x="698.53125"/>
     <use xlink:href="#DejaVuSans-69" x="761.910156"/>
     <use xlink:href="#DejaVuSans-76" x="789.693359"/>
     <use xlink:href="#DejaVuSans-61" x="848.873047"/>
     <use xlink:href="#DejaVuSans-6c" x="910.152344"/>
     <use xlink:href="#DejaVuSans-65" x="937.935547"/>
     <use xlink:href="#DejaVuSans-6e" x="999.458984"/>
     <use xlink:href="#DejaVuSans-74" x="1062.837891"/>
     <use xlink:href="#DejaVuSans-29" x="1102.046875"/>
    </g>
   </g>
   <g id="legend_1">
    <g id="patch_7">
     <path d="M 450.653125 95.234375 
L 576.2 95.234375 
Q 578.2 95.234375 578.2 93.234375 
L 578.2 50.2 
Q 578.2 48.2 576.2 48.2 
L 450.653125 48.2 
Q 448.653125 48.2 448.653125 50.2 
L 448.653125 93.234375 
Q 448.653125 95.234375 450.653125 95.234375 
z
" style="fill: #ffffff; opacity: 0.8; stroke: #cccccc; stroke-linejoin: miter"/>
    </g>
    <g id="line2d_12">
     <path d="M 452.653125 56.298437 
L 462.653125 56.298437 
L 472.653125 56.298437 
" style="fill: none; stroke: #1f77b4; stroke-width: 1.5; stroke-linecap: square"/>
    </g>
    <g id="text_14">
     <!-- MCU -->
     <g transform="translate(480.653125 59.798437) scale(0.1 -0.1)">
      <use xlink:href="#DejaVuSans-4d"/>
      <use xlink:href="#DejaVuSans-43" x="86.279297"/>
      <use xlink:href="#DejaVuSans-55" x="156.103516"/>
     </g>
    </g>
    <g id="patch_8">
     <path d="M 452.653125 74.476562 
L 472.653125 74.476562 
L 472.653125 67.476562 
L 452.653125 67.476562 
z
" style="fill: #008000; fill-opacity: 0.5; stroke: #008000; stroke-opacity: 0.5; stroke-linejoin: miter"/>
    </g>
    <g id="text_15">
     <!-- Audio sampling -->
     <g transform="translate(480.653125 74.476562) scale(0.1 -0.1)">
      <defs>
       <path id="DejaVuSans-41" d="M 2188 4044 
L 1331 1722 
L 3047 1722 
L 2188 4044 
z
M 1831 4666 
L 2547 4666 
L 4325 0 
L 3669 0 
L 3244 1197 
L 1141 1197 
L 716 0 
L 50 0 
L 1831 4666 
z
" transform="scale(0.015625)"/>
      </defs>
      <use xlink:href="#DejaVuSans-41"/>
      <use xlink:href="#DejaVuSans-75" x="68.408203"/>
      <use xlink:href="#DejaVuSans-64" x="131.787109"/>
      <use xlink:href="#DejaVuSans-69" x="195.263672"/>
      <use xlink:href="#DejaVuSans-6f" x="223.046875"/>
      <use xlink:href="#DejaVuSans-20" x="284.228516"/>
      <use xlink:href="#DejaVuSans-73" x="316.015625"/>
      <use xlink:href="#DejaVuSans-61" x="368.115234"/>
      <use xlink:href="#DejaVuSans-6d" x="429.394531"/>
      <use xlink:href="#DejaVuSans-70" x="526.806641"/>
      <use xlink:href="#DejaVuSans-6c" x="590.283203"/>
      <use xlink:href="#DejaVuSans-69" x="618.066406"/>
      <use xlink:href="#DejaVuSans-6e" x="645.849609"/>
      <use xlink:href="#DejaVuSans-67" x="709.228516"/>
     </g>
    </g>
    <g id="patch_9">
     <path d="M 452.653125 89.154687 
L 472.653125 89.154687 
L 472.653125 82.154687 
L 452.653125 82.154687 
z
" style="fill: #ff0000; fill-opacity: 0.5; stroke: #ff0000; stroke-opacity: 0.5; stroke-linejoin: miter"/>
    </g>
    <g id="text_16">
     <!-- UART transmission -->
     <g transform="translate(480.653125 89.154687) scale(0.1 -0.1)">
      <defs>
       <path id="DejaVuSans-52" d="M 2841 2188 
Q 3044 2119 3236 1894 
Q 3428 1669 3622 1275 
L 4263 0 
L 3584 0 
L 2988 1197 
Q 2756 1666 2539 1819 
Q 2322 1972 1947 1972 
L 1259 1972 
L 1259 0 
L 628 0 
L 628 4666 
L 2053 4666 
Q 2853 4666 3247 4331 
Q 3641 3997 3641 3322 
Q 3641 2881 3436 2590 
Q 3231 2300 2841 2188 
z
M 1259 4147 
L 1259 2491 
L 2053 2491 
Q 2509 2491 2742 2702 
Q 2975 2913 2975 3322 
Q 2975 3731 2742 3939 
Q 2509 4147 2053 4147 
L 1259 4147 
z
" transform="scale(0.015625)"/>
      </defs>
      <use xlink:href="#DejaVuSans-55"/>
      <use xlink:href="#DejaVuSans-41" x="73.193359"/>
      <use xlink:href="#DejaVuSans-52" x="141.601562"/>
      <use xlink:href="#DejaVuSans-54" x="203.833984"/>
      <use xlink:href="#DejaVuSans-20" x="264.917969"/>
      <use xlink:href="#DejaVuSans-74" x="296.705078"/>
      <use xlink:href="#DejaVuSans-72" x="335.914062"/>
      <use xlink:href="#DejaVuSans-61" x="377.027344"/>
      <use xlink:href="#DejaVuSans-6e" x="438.306641"/>
      <use xlink:href="#DejaVuSans-73" x="501.685547"/>
      <use xlink:href="#DejaVuSans-6d" x="553.785156"/>
      <use xlink:href="#DejaVuSans-69" x="651.197266"/>
      <use xlink:href="#DejaVuSans-73" x="678.980469"/>
      <use xlink:href="#DejaVuSans-73" x="731.080078"/>
      <use xlink:href="#DejaVuSans-69" x="783.179688"/>
      <use xlink:href="#DejaVuSans-6f" x="810.962891"/>
      <use xlink:href="#DejaVuSans-6e" x="872.144531"/>
     </g>
    </g>
   </g>
  </g>
 </g>
 <defs>
  <clipPath id="p334c14d587">
   <rect x="81" y="43.2" width="502.2" height="277.2"/>
  </clipPath>
 </defs>
</svg>
